<svg xmlns="http://www.w3.org/2000/svg" viewBox="0 0 200 200" class="design-iconfont">
  <g fill="none" fill-rule="evenodd">
    <path d="M61.4402173,100.395306 C61.4438187,100.425957 61.4456194,100.454205 61.449821,100.482452 C64.0259927,120.281575 91.6072733,116.75 126.311912,116.5 C161.01655,116.25 179.017365,106.794876 178.947739,87.9982412 C192.008665,81.8486914 200.172344,71.9037539 198.86265,61.8422202 C198.031337,55.4510638 193.515233,50.0876371 186.69246,46.3595627 C190.240398,40.8753326 191.880817,34.9601774 191.107125,29.0143705 C188.530353,9.21524825 160.18106,-3.41080158 127.786242,0.814910358 C107.245894,3.49602271 90.0145951,12.3086545 80.8089229,23.4459988 C72.890136,22.2217384 64.1910549,22.0913189 55.1780554,23.2674984 C22.7838369,27.4944124 -1.38848042,46.9707914 1.18829149,66.7729187 C3.0670001,81.2086142 18.6458762,91.8272856 39.5025429,94.8852321 C45.4081704,98.0687901 53.0112381,100.034699 61.4402173,100.395306 Z" fill="#F2F3F5" transform="translate(0 43)"/>
    <path stroke="#052461" stroke-width=".5" fill="#3491FA" d="M158.187603 4.4931094L167.827666 32.7061303 146.037751 33.7602671 142.729917 4.4931094z" transform="translate(15.727713 54.520859)"/>
    <path fill="#3491FA" d="M6.8324302 43.6930244L0.272286794 87.6841329 16.5452757 97.1410385 25.1821509 73.4635961z" transform="translate(15.727713 54.520859)"/>
    <path d="M6.68611614,42.9791876 L7.04525102,43.5618478 L25.3949717,73.3324195 L25.4170134,73.5492675 L16.7801382,97.2267098 L16.6778179,97.5072144 L16.4196616,97.3571891 L0.146672726,87.9002835 L0,87.8150459 L0.0250210321,87.6472595 L6.58516444,43.656151 L6.68611614,42.9791876 Z M6.97828679,44.4060244 L0.544286794,87.5520244 L16.4122868,96.7740244 L24.9052868,73.4910244 L6.97828679,44.4060244 Z" fill="#052461" fill-rule="nonzero" transform="translate(15.727713 54.520859)"/>
    <path stroke="#052461" stroke-width=".5" fill="#FFF" d="M68.125131 0.479140613L158.187603 4.4931094 152.688873 68.7348057 152.064155 76.0337027 55.3347923 76.0337027z" transform="translate(15.727713 54.520859)"/>
    <path d="M95.7316813,21.5449242 L109.509578,21.5449242 C110.136214,21.5416787 110.641845,21.0305184 110.638619,20.4030624 C110.635903,19.7793928 110.132433,19.276887 109.509578,19.2725597 L95.7316813,19.2725597 C95.105045,19.276887 94.5999545,19.7869655 94.6026447,20.4144215 C94.6053565,21.0359275 95.1093666,21.5416787 95.7316813,21.5449242 Z M91.536567,19.2725597 C92.159422,19.276887 92.6628919,19.7793928 92.6661438,20.4030624 C92.6688341,21.0305184 92.1632034,21.5416787 91.536567,21.5449242 L74.2851601,21.5449242 C73.6628454,21.5416787 73.1588353,21.0359275 73.1561235,20.4144215 C73.1534333,19.7869655 73.6585238,19.276887 74.2851601,19.2725597 Z M78.2851601,38.5804091 L91.536567,38.5804091 C92.1632034,38.5760819 92.6688341,38.0670852 92.6661861,37.4396292 C92.6628919,36.8159595 92.159422,36.3112902 91.536567,36.3091265 L78.2851601,36.3091265 C77.6585238,36.3112902 77.1534333,36.8224505 77.1561235,37.4488247 C77.1588353,38.0735761 77.6628454,38.5760819 78.2851601,38.5804091 Z M141.917806,27.7896802 L125.731681,27.7896802 C125.105585,27.7940075 124.599954,28.3040859 124.60318,28.931542 C124.606436,29.5552116 125.109906,30.0587991 125.731681,30.0620446 L141.917806,30.0620446 C142.544442,30.0587991 143.049533,29.5476389 143.046307,28.9201828 C143.04305,28.2965132 142.53958,27.7940075 141.917806,27.7896802 Z M119.481793,27.7896802 L76.2851061,27.7896802 C75.65901,27.7940075 75.1533792,28.3040859 75.156605,28.931542 C75.1598617,29.5552116 75.6633316,30.0587991 76.2851061,30.0620446 L119.481793,30.0620446 C120.10843,30.0587991 120.61352,29.5476389 120.610325,28.9201828 C120.607038,28.2965132 120.103568,27.7940075 119.481793,27.7896802 Z M109.509902,44.257642 C110.134918,44.2598057 110.640008,44.7682614 110.638392,45.3935538 C110.640008,46.0188461 110.134918,46.5283837 109.509902,46.5305473 L104.829577,46.5305473 C104.207262,46.5262201 103.704332,46.0231734 103.701076,45.4000447 C103.69785,44.7725887 104.202941,44.2608875 104.829577,44.257642 Z M80.2851601,46.530331 L98.5532736,46.530331 C99.1799099,46.5260037 99.6850005,46.0159252 99.6818648,45.3884692 C99.678518,44.7647996 99.1750481,44.261212 98.5532736,44.2579666 L80.2851601,44.2579666 C79.6585238,44.261212 79.1534333,44.7723723 79.156659,45.3998283 C79.1599157,46.023498 79.6633856,46.5260037 80.2851601,46.530331 Z M102.536783,61.2944252 L85.2853762,61.2944252 C84.6587399,61.2965888 84.1531091,61.8066673 84.1557994,62.4341233 C84.1590514,63.0577929 84.6625213,63.5635441 85.2853762,63.564626 L102.536783,63.564626 C103.163419,63.5635441 103.66851,63.0523838 103.66582,62.4249278 C103.663108,61.8012582 103.159098,61.2965888 102.536783,61.2944252 M115.594649,52.7771965 L106.451161,52.7771965 C105.825064,52.7793602 105.319434,53.2894387 105.322124,53.9168947 C105.324836,54.5405643 105.828846,55.0441519 106.451161,55.0473973 L115.594649,55.0473973 C116.221286,55.0441519 116.726376,54.5351552 116.723686,53.9076992 C116.720974,53.2840296 116.216964,52.7793602 115.594649,52.7771965 Z M100.217317,52.7771965 L82.6862074,52.7771965 C82.0601112,52.7793602 81.5544805,53.2894387 81.5571708,53.9168947 C81.5598826,54.5405643 82.0638927,55.0441519 82.6862074,55.0473973 L100.217317,55.0473973 C100.843954,55.0441519 101.349044,54.5351552 101.346437,53.9076992 C101.343642,53.2840296 100.839632,52.7793602 100.217317,52.7771965 Z" fill="#F2F3F5" transform="matrix(1 0 0 -1 15.727713 137.358045)"/>
    <path fill="#FFF" d="M103.818959 42.6898354L108.273257 100.65038 101.412776 115.881071 11.9441988 115.881071 7.09323472 42.6898354z" transform="translate(15.727713 54.520859)"/>
    <path d="M104.050483,42.4398354 L104.068224,42.6706793 L108.522522,100.631224 L108.5012,100.753054 L101.640719,115.983746 L101.574358,116.131071 L11.7102197,116.131071 L11.694746,115.897605 L6.84378201,42.7063686 L6.82611674,42.4398354 L104.050483,42.4398354 Z M103.587235,42.9398354 L7.36023472,42.9398354 L12.1782347,115.630835 L101.250235,115.630835 L108.018235,100.606835 L103.587235,42.9398354 Z" fill="#052461" fill-rule="nonzero" transform="translate(15.727713 54.520859)"/>
    <path d="M27.259752,40.4938973 L33.4268691,42.4820794 L39.1888293,44.268896 L44.5662546,45.8664774 L49.5785535,47.284528 L54.2402826,48.5339653 L58.5720637,49.6257066 L62.5896663,50.5682432 L66.3088601,51.3737057 L69.7466275,52.0481592 L72.9187383,52.6037342 L75.8397489,53.047709 L78.5254289,53.3885749 L80.9879088,53.6348232 L83.2429581,53.7937322 L85.3027072,53.8737932 L87.1804998,53.8810715 L88.8896792,53.8216322 L90.4399497,53.7027537 L91.845868,53.5305012 L93.1159254,53.3097269 L94.2610392,53.0440698 L95.2909138,52.7395953 L96.2164665,52.3987294 L96.9515714,52.0627157 L97.5835674,51.7109324 L98.1221591,51.3458056 L98.5794768,50.9661223 L98.9603727,50.5730954 L99.3097294,50.1242684 L99.5947948,49.6584588 L99.819208,49.1744535 L99.984182,48.6698264 L100.092143,48.1385123 L100.151582,47.467698 L100.140665,46.7580661 L100.052113,46.0023386 L99.8810733,45.1968761 L99.6578731,44.4217398 L99.3728077,43.606573 L99.0210249,42.7489495 L98.5988855,41.8452304 L97.9935764,40.6819194 L97.2997151,39.4628083 L96.5136624,38.185471 L95.269079,36.2906933 L93.8983389,34.3182807 L91.0209979,30.3407033 L89.5641318,28.3367515 L88.1533613,26.3546346 L86.7947517,24.3700915 L85.5647248,22.4595443 L84.7932287,21.1700765 L84.1151369,19.9364089 L83.5255974,18.7561153 L83.1192276,17.8402656 L82.7832143,16.9680856 L82.5139185,16.1371492 L82.3077009,15.3426042 L82.1572835,14.5213721 L82.089353,13.7474489 L82.0978443,13.0159822 L82.1791183,12.3209069 L82.3816966,11.4038442 L82.6558447,10.5001251 L83.0015623,9.6048972 L83.4237017,8.71937372 L83.9222629,7.83991546 L84.502098,6.96409634 L85.1692724,6.09070332 L85.927425,5.21973638 L86.7826213,4.34998249 L87.7421393,3.47901556 L88.8120443,2.60926167 L89.9996147,1.73950778 L91.3145546,0.868540843 L92.7629295,0" stroke="#C9CDD4" stroke-width=".5" stroke-dasharray="1.49" transform="rotate(180 71.5695235 54.2009655)"/>
    <path fill="#3681FD" transform="matrix(1 0 0 -1 15.727713 85.121379)" d="M94.4790906 11.6975139L111.020162 7.3742184 104.296258 23.2263018 103.090492 15.3148167z"/>
    <path fill="#052461" d="M0 127H200V128H0z" transform="translate(0 43)"/>
    <path d="M42,101.731527 L42,79.2684729 L51.4868705,79.2684729 L51.4868705,82.6551724 L45.332045,82.6551724 L45.332045,88.7980296 L49.8305483,88.7980296 L49.8305483,92.2019704 L45.332045,92.2019704 L45.332045,98.3472906 L51.4868705,98.3472906 L51.4868705,101.731527 L42,101.731527 Z M59.0409609,79.2881773 C60.8985639,79.2881773 62.2638778,79.8054187 63.1320526,80.8448276 C63.8983744,81.7536946 64.2791103,83.0197044 64.2791103,84.6428571 L64.2791103,87.9039409 C64.2791103,89.4926108 63.6849684,90.8349754 62.4966845,91.9334975 L64.9678299,101.731527 L61.3690273,101.731527 L59.3416695,93.2586207 C59.2470918,93.270936 59.147664,93.2783251 59.0409609,93.2783251 L57.1178811,93.2783251 L57.1178811,101.731527 L53.7858361,101.731527 L53.7858361,79.2881773 L59.0409609,79.2881773 Z M61.0343678,84.6970443 C61.0343678,83.3940887 60.3989997,82.7438424 59.1282634,82.7438424 L57.1178811,82.7438424 L57.1178811,89.9261084 L59.1282634,89.9261084 C59.6593536,89.9261084 60.1055663,89.7364532 60.4693267,89.3546798 C60.8452124,88.9729064 61.0343678,88.5123153 61.0343678,87.9753695 L61.0343678,84.6970443 Z M73.0821113,79.2881773 C74.9397143,79.2881773 76.3050282,79.8054187 77.173203,80.8448276 C77.9395248,81.7536946 78.3202607,83.0197044 78.3202607,84.6428571 L78.3202607,87.9039409 C78.3202607,89.4926108 77.7261188,90.8349754 76.5402599,91.9334975 L79.0089803,101.731527 L75.4101777,101.731527 L73.3828199,93.2586207 C73.2882422,93.270936 73.1888144,93.2783251 73.0821113,93.2783251 L71.1590315,93.2783251 L71.1590315,101.731527 L67.8269865,101.731527 L67.8269865,79.2881773 L73.0821113,79.2881773 Z M75.0755182,84.6970443 C75.0755182,83.3940887 74.4401501,82.7438424 73.1694138,82.7438424 L71.1590315,82.7438424 L71.1590315,89.9261084 L73.1694138,89.9261084 C73.700504,89.9261084 74.1467167,89.7364532 74.5104771,89.3546798 C74.8863628,88.9729064 75.0755182,88.5123153 75.0755182,87.9753695 L75.0755182,84.6970443 Z M86.5824713,79 C88.0520632,79 89.2985487,79.5246305 90.3219279,80.5763547 C91.3574325,81.6280788 91.8739722,82.8940887 91.8739722,84.3743842 L91.8739722,96.6256158 C91.8739722,98.1182266 91.3574325,99.3916256 90.3219279,100.44335 C89.2864234,101.480296 88.0399379,102 86.5824713,102 C85.1128794,102 83.8663938,101.475369 82.8454397,100.423645 C81.8220606,99.3743842 81.310371,98.1083744 81.310371,96.6256158 L81.310371,84.3743842 C81.310371,82.8817734 81.8269107,81.6157635 82.8624152,80.5763547 C83.8954947,79.5246305 85.1371301,79 86.5824713,79 Z M88.3988481,84.3029557 C88.3988481,83.7660099 88.2121178,83.3103448 87.836232,82.9408867 C87.4700466,82.5591133 87.0238339,82.3669951 86.4951688,82.3669951 C85.9665037,82.3669951 85.5130158,82.5591133 85.1371301,82.9408867 C84.7612444,83.3103448 84.572089,83.7660099 84.572089,84.3029557 L84.572089,96.591133 C84.572089,97.1280788 84.7612444,97.58867 85.1371301,97.9704433 C85.5130158,98.3399015 85.9665037,98.5246305 86.4951688,98.5246305 C87.0238339,98.5246305 87.4700466,98.3399015 87.836232,97.9704433 C88.2121178,97.58867 88.3988481,97.1280788 88.3988481,96.591133 L88.3988481,84.3029557 Z M100.073131,79.2881773 C101.930734,79.2881773 103.293623,79.8054187 104.164223,80.8448276 C104.928119,81.7536946 105.31128,83.0197044 105.31128,84.6428571 L105.31128,87.9039409 C105.31128,89.4926108 104.717138,90.8349754 103.53128,91.9334975 L106,101.731527 L102.401197,101.731527 L100.37384,93.2586207 C100.279262,93.270936 100.179834,93.2783251 100.073131,93.2783251 L98.1500512,93.2783251 L98.1500512,101.731527 L94.8180061,101.731527 L94.8180061,79.2881773 L100.073131,79.2881773 Z M102.066538,84.6970443 C102.066538,83.3940887 101.43117,82.7438424 100.160433,82.7438424 L98.1500512,82.7438424 L98.1500512,89.9261084 L100.160433,89.9261084 C100.691524,89.9261084 101.137736,89.7364532 101.501497,89.3546798 C101.877382,88.9729064 102.066538,88.5123153 102.066538,87.9753695 L102.066538,84.6970443 Z" fill="#FF6661" fill-rule="nonzero" transform="rotate(-2 1305.73417506 112)"/>
  </g>
</svg>
