<svg xmlns="http://www.w3.org/2000/svg" xmlns:xlink="http://www.w3.org/1999/xlink" viewBox="0 0 200 200" class="design-iconfont">
  <defs>
    <linearGradient x1="50%" y1="0%" x2="50%" y2="100%" id="jvltrm8mh__vxqswbmvha">
      <stop stop-color="#48C2F7" offset="0%"/>
      <stop stop-color="#0268CB" offset="100%"/>
    </linearGradient>
    <linearGradient x1="50%" y1=".75939685%" x2="50%" y2="89.9456991%" id="jvltrm8mh__1cqxc5b8gb">
      <stop stop-color="#1C2A2D" offset="0%"/>
      <stop stop-color="#1D2123" offset="100%"/>
    </linearGradient>
    <linearGradient x1="21.2630152%" y1="33.776512%" x2="100%" y2="66.4262409%" id="jvltrm8mh__lshsrtco9d">
      <stop stop-color="#18CBD8" offset="0%"/>
      <stop stop-color="#12D1EE" offset="100%"/>
    </linearGradient>
    <linearGradient x1="50%" y1="0%" x2="50%" y2="100%" id="jvltrm8mh__nhfuyb5gpg">
      <stop stop-color="#48C2F7" offset="0%"/>
      <stop stop-color="#0268CB" offset="100%"/>
    </linearGradient>
    <linearGradient x1="50%" y1=".75939685%" x2="50%" y2="89.9456991%" id="jvltrm8mh__neflklu36h">
      <stop stop-color="#1C2A2D" offset="0%"/>
      <stop stop-color="#1D2123" offset="100%"/>
    </linearGradient>
    <linearGradient x1="21.2630152%" y1="33.776512%" x2="69.4670219%" y2="103.937249%" id="jvltrm8mh__ggc21wworj">
      <stop stop-color="#5EAFFF" offset="0%"/>
      <stop stop-color="#12D1EE" offset="100%"/>
    </linearGradient>
    <filter x="-105.7%" y="-105.7%" width="311.4%" height="311.4%" filterUnits="objectBoundingBox" id="jvltrm8mh__sdt7wz6o9e">
      <feGaussianBlur stdDeviation="37" in="SourceGraphic"/>
    </filter>
    <filter x="-105.7%" y="-105.7%" width="311.4%" height="311.4%" filterUnits="objectBoundingBox" id="jvltrm8mh__2v3t1kzcsk">
      <feGaussianBlur stdDeviation="37" in="SourceGraphic"/>
    </filter>
    <path id="jvltrm8mh__u0ewx72lkc" d="M12.7903388 0L102.852811 4.01396879 97.3540809 68.255665 96.7293631 75.5545621 0 75.5545621z"/>
    <path id="jvltrm8mh__sbuwwuzk3i" d="M96.725724 0L101.180023 57.9605447 94.3195413 73.1912361 4.85096403 73.1912361 0 0z"/>
  </defs>
  <g fill="none" fill-rule="evenodd">
    <path d="M61.4402173,100.395306 C61.4438187,100.425957 61.4456194,100.454205 61.449821,100.482452 C64.0259927,120.281575 91.6072733,116.75 126.311912,116.5 C161.01655,116.25 179.017365,106.794876 178.947739,87.9982412 C192.008665,81.8486914 200.172344,71.9037539 198.86265,61.8422202 C198.031337,55.4510638 193.515233,50.0876371 186.69246,46.3595627 C190.240398,40.8753326 191.880817,34.9601774 191.107125,29.0143705 C188.530353,9.21524825 160.18106,-3.41080158 127.786242,0.814910358 C107.245894,3.49602271 90.0145951,12.3086545 80.8089229,23.4459988 C72.890136,22.2217384 64.1910549,22.0913189 55.1780554,23.2674984 C22.7838369,27.4944124 -1.38848042,46.9707914 1.18829149,66.7729187 C3.0670001,81.2086142 18.6458762,91.8272856 39.5025429,94.8852321 C45.4081704,98.0687901 53.0112381,100.034699 61.4402173,100.395306 Z" fill="url(#jvltrm8mh__vxqswbmvha)" opacity=".15264602" transform="translate(0 43)"/>
    <path stroke="#226FD4" stroke-width=".5" fill="#5EAFFF" fill-rule="nonzero" d="M157.915316 4.4931094L167.555379 32.7061303 145.765465 33.7602671 142.45763 4.4931094z" transform="translate(16 54.520859)"/>
    <path stroke="#226FD4" stroke-width=".5" fill="#5EAFFF" fill-rule="nonzero" d="M6.82094793 43.2556684L0 87.6841329 16.2729889 97.1410385 24.9098641 73.4635961z" transform="translate(16 54.520859)"/>
    <path fill="url(#jvltrm8mh__1cqxc5b8gb)" d="M67.8528443 0.479140613L157.915316 4.4931094 152.416586 68.7348057 151.791869 76.0337027 55.0625055 76.0337027z" transform="translate(16 54.520859)"/>
    <g transform="translate(71.062505 55)">
      <mask id="jvltrm8mh__tdixbgijsf" fill="#fff">
        <use xlink:href="#jvltrm8mh__u0ewx72lkc"/>
      </mask>
      <use fill="url(#jvltrm8mh__1cqxc5b8gb)" xlink:href="#jvltrm8mh__u0ewx72lkc"/>
      <path fill="url(#jvltrm8mh__lshsrtco9d)" opacity=".37602306" filter="url(#jvltrm8mh__sdt7wz6o9e)" mask="url(#jvltrm8mh__tdixbgijsf)" d="M98.4374945 -78A52.5 52.5 0 1 0 98.4374945 27A52.5 52.5 0 1 0 98.4374945 -78Z"/>
    </g>
    <path d="M67.6432324,0.219550307 L67.8639754,0.22938854 L157.926447,4.24335733 L158.186615,4.25495267 L158.164405,4.51443004 L152.665676,68.7561254 L152.040958,76.0550224 L152.021385,76.2837027 L54.766627,76.2837027 L54.8160125,75.9919748 L67.6063513,0.437412773 L67.6432324,0.219550307 Z M68.0615055,0.738140613 L55.3575055,75.7831406 L151.562505,75.7831406 L152.167497,68.713485 L157.643505,4.73014061 L68.0615055,0.738140613 Z" fill="#226FD4" fill-rule="nonzero" transform="translate(16 54.520859)"/>
    <path d="M95.4593945,21.5449242 L109.237291,21.5449242 C109.863928,21.5416787 110.369558,21.0305184 110.366333,20.4030624 C110.363616,19.7793928 109.860146,19.276887 109.237291,19.2725597 L95.4593945,19.2725597 C94.8327582,19.276887 94.3276677,19.7869655 94.3303579,20.4144215 C94.3330697,21.0359275 94.8370798,21.5416787 95.4593945,21.5449242 Z M91.2642802,19.2725597 C91.8871352,19.276887 92.3906051,19.7793928 92.3938571,20.4030624 C92.3965473,21.0305184 91.8909166,21.5416787 91.2642802,21.5449242 L74.0128733,21.5449242 C73.3905586,21.5416787 72.8865485,21.0359275 72.8838367,20.4144215 C72.8811465,19.7869655 73.386237,19.276887 74.0128733,19.2725597 Z M78.0128733,38.5804091 L91.2642802,38.5804091 C91.8909166,38.5760819 92.3965473,38.0670852 92.3938993,37.4396292 C92.3906051,36.8159595 91.8871352,36.3112902 91.2642802,36.3091265 L78.0128733,36.3091265 C77.386237,36.3112902 76.8811465,36.8224505 76.8838367,37.4488247 C76.8865485,38.0735761 77.3905586,38.5760819 78.0128733,38.5804091 Z M141.645519,27.7896802 L125.459394,27.7896802 C124.833298,27.7940075 124.327667,28.3040859 124.330893,28.931542 C124.33415,29.5552116 124.837619,30.0587991 125.459394,30.0620446 L141.645519,30.0620446 C142.272155,30.0587991 142.777246,29.5476389 142.77402,28.9201828 C142.770763,28.2965132 142.267294,27.7940075 141.645519,27.7896802 Z M119.209507,27.7896802 L76.0128193,27.7896802 C75.3867232,27.7940075 74.8810924,28.3040859 74.8843182,28.931542 C74.8875749,29.5552116 75.3910448,30.0587991 76.0128193,30.0620446 L119.209507,30.0620446 C119.836143,30.0587991 120.341233,29.5476389 120.338038,28.9201828 C120.334751,28.2965132 119.831281,27.7940075 119.209507,27.7896802 Z M109.237615,44.257642 C109.862631,44.2598057 110.367722,44.7682614 110.366105,45.3935538 C110.367722,46.0188461 109.862631,46.5283837 109.237615,46.5305473 L104.55729,46.5305473 C103.934975,46.5262201 103.432046,46.0231734 103.428789,45.4000447 C103.425563,44.7725887 103.930654,44.2608875 104.55729,44.257642 Z M80.0128733,46.530331 L98.2809868,46.530331 C98.9076232,46.5260037 99.4127137,46.0159252 99.409578,45.3884692 C99.4062312,44.7647996 98.9027613,44.261212 98.2809868,44.2579666 L80.0128733,44.2579666 C79.386237,44.261212 78.8811465,44.7723723 78.8843722,45.3998283 C78.8876289,46.023498 79.3910988,46.5260037 80.0128733,46.530331 Z M102.264496,61.2944252 L85.0130894,61.2944252 C84.3864531,61.2965888 83.8808223,61.8066673 83.8835126,62.4341233 C83.8867646,63.0577929 84.3902345,63.5635441 85.0130894,63.564626 L102.264496,63.564626 C102.891133,63.5635441 103.396223,63.0523838 103.393533,62.4249278 C103.390821,61.8012582 102.886811,61.2965888 102.264496,61.2944252 M115.322362,52.7771965 L106.178874,52.7771965 C105.552778,52.7793602 105.047147,53.2894387 105.049837,53.9168947 C105.052549,54.5405643 105.556559,55.0441519 106.178874,55.0473973 L115.322362,55.0473973 C115.948999,55.0441519 116.454089,54.5351552 116.451399,53.9076992 C116.448687,53.2840296 115.944677,52.7793602 115.322362,52.7771965 Z M99.9450304,52.7771965 L82.4139206,52.7771965 C81.7878244,52.7793602 81.2821937,53.2894387 81.284884,53.9168947 C81.2875958,54.5405643 81.7916059,55.0441519 82.4139206,55.0473973 L99.9450304,55.0473973 C100.571667,55.0441519 101.076757,54.5351552 101.07415,53.9076992 C101.071355,53.2840296 100.567345,52.7793602 99.9450304,52.7771965 Z" fill="url(#jvltrm8mh__nhfuyb5gpg)" opacity=".10279483" transform="matrix(1 0 0 -1 16 137.358045)"/>
    <path fill="url(#jvltrm8mh__neflklu36h)" d="M103.546672 42.6898354L108.00097 100.65038 101.140489 115.881071 11.671912 115.881071 6.82094793 42.6898354z" transform="translate(16 54.520859)"/>
    <g transform="translate(22.820948 97.210694)">
      <mask id="jvltrm8mh__n4j5ou6uml" fill="#fff">
        <use xlink:href="#jvltrm8mh__sbuwwuzk3i"/>
      </mask>
      <use fill="url(#jvltrm8mh__neflklu36h)" xlink:href="#jvltrm8mh__sbuwwuzk3i"/>
      <path fill="url(#jvltrm8mh__ggc21wworj)" opacity=".5015811" filter="url(#jvltrm8mh__2v3t1kzcsk)" mask="url(#jvltrm8mh__n4j5ou6uml)" d="M73.6790521 -59.21069481A52.5 52.5 0 1 0 73.6790521 45.78930519A52.5 52.5 0 1 0 73.6790521 -59.21069481Z"/>
    </g>
    <path d="M103.778196,42.4398354 L103.795937,42.6706793 L108.250235,100.631224 L108.228913,100.753054 L101.368432,115.983746 L101.302071,116.131071 L11.4379329,116.131071 L11.4224593,115.897605 L6.57149522,42.7063686 L6.55382995,42.4398354 L103.778196,42.4398354 Z M103.314948,42.9398354 L7.08794793,42.9398354 L11.9059479,115.630835 L100.977948,115.630835 L107.745948,100.606835 L103.314948,42.9398354 Z" fill="#226FD4" fill-rule="nonzero" transform="translate(16 54.520859)"/>
    <path d="M26.9874652,40.4938973 L33.1545823,42.4820794 L38.9165426,44.268896 L44.2939678,45.8664774 L49.3062667,47.284528 L53.9679958,48.5339653 L58.2997769,49.6257066 L62.3173796,50.5682432 L66.0365733,51.3737057 L69.4743407,52.0481592 L72.6464515,52.6037342 L75.5674621,53.047709 L78.2531421,53.3885749 L80.715622,53.6348232 L82.9706713,53.7937322 L85.0304205,53.8737932 L86.908213,53.8810715 L88.6173924,53.8216322 L90.1676629,53.7027537 L91.5735812,53.5305012 L92.8436386,53.3097269 L93.9887524,53.0440698 L95.018627,52.7395953 L95.9441797,52.3987294 L96.6792846,52.0627157 L97.3112806,51.7109324 L97.8498723,51.3458056 L98.30719,50.9661223 L98.6880859,50.5730954 L99.0374426,50.1242684 L99.322508,49.6584588 L99.5469212,49.1744535 L99.7118952,48.6698264 L99.8198562,48.1385123 L99.8792954,47.467698 L99.868378,46.7580661 L99.7798257,46.0023386 L99.6087865,45.1968761 L99.3855863,44.4217398 L99.1005209,43.606573 L98.7487381,42.7489495 L98.3265987,41.8452304 L97.7212896,40.6819194 L97.0274283,39.4628083 L96.2413756,38.185471 L94.9967922,36.2906933 L93.6260521,34.3182807 L90.7487111,30.3407033 L89.291845,28.3367515 L87.8810745,26.3546346 L86.5224649,24.3700915 L85.292438,22.4595443 L84.5209419,21.1700765 L83.8428501,19.9364089 L83.2533106,18.7561153 L82.8469408,17.8402656 L82.5109275,16.9680856 L82.2416317,16.1371492 L82.0354142,15.3426042 L81.8849967,14.5213721 L81.8170662,13.7474489 L81.8255575,13.0159822 L81.9068315,12.3209069 L82.1094099,11.4038442 L82.3835579,10.5001251 L82.7292755,9.6048972 L83.1514149,8.71937372 L83.6499761,7.83991546 L84.2298112,6.96409634 L84.8969856,6.09070332 L85.6551383,5.21973638 L86.5103345,4.34998249 L87.4698525,3.47901556 L88.5397575,2.60926167 L89.7273279,1.73950778 L91.0422679,0.868540843 L92.4906427,0" stroke="#1351AD" stroke-width=".5" stroke-dasharray="1.49" transform="rotate(180 71.43338 54.2009655)"/>
    <path fill="#5EAFFF" fill-rule="nonzero" transform="matrix(1 0 0 -1 16 85.121379)" d="M94.2068038 11.6975139L110.747875 7.3742184 104.023971 23.2263018 102.818205 15.3148167z"/>
    <path fill="#226FD4" d="M0 127H200V128H0z" transform="translate(0 43)"/>
    <path d="M42,101.731527 L42,79.2684729 L51.4868705,79.2684729 L51.4868705,82.6551724 L45.332045,82.6551724 L45.332045,88.7980296 L49.8305483,88.7980296 L49.8305483,92.2019704 L45.332045,92.2019704 L45.332045,98.3472906 L51.4868705,98.3472906 L51.4868705,101.731527 L42,101.731527 Z M59.0409609,79.2881773 C60.8985639,79.2881773 62.2638778,79.8054187 63.1320526,80.8448276 C63.8983744,81.7536946 64.2791103,83.0197044 64.2791103,84.6428571 L64.2791103,87.9039409 C64.2791103,89.4926108 63.6849684,90.8349754 62.4966845,91.9334975 L64.9678299,101.731527 L61.3690273,101.731527 L59.3416695,93.2586207 C59.2470918,93.270936 59.147664,93.2783251 59.0409609,93.2783251 L57.1178811,93.2783251 L57.1178811,101.731527 L53.7858361,101.731527 L53.7858361,79.2881773 L59.0409609,79.2881773 Z M61.0343678,84.6970443 C61.0343678,83.3940887 60.3989997,82.7438424 59.1282634,82.7438424 L57.1178811,82.7438424 L57.1178811,89.9261084 L59.1282634,89.9261084 C59.6593536,89.9261084 60.1055663,89.7364532 60.4693267,89.3546798 C60.8452124,88.9729064 61.0343678,88.5123153 61.0343678,87.9753695 L61.0343678,84.6970443 Z M73.0821113,79.2881773 C74.9397143,79.2881773 76.3050282,79.8054187 77.173203,80.8448276 C77.9395248,81.7536946 78.3202607,83.0197044 78.3202607,84.6428571 L78.3202607,87.9039409 C78.3202607,89.4926108 77.7261188,90.8349754 76.5402599,91.9334975 L79.0089803,101.731527 L75.4101777,101.731527 L73.3828199,93.2586207 C73.2882422,93.270936 73.1888144,93.2783251 73.0821113,93.2783251 L71.1590315,93.2783251 L71.1590315,101.731527 L67.8269865,101.731527 L67.8269865,79.2881773 L73.0821113,79.2881773 Z M75.0755182,84.6970443 C75.0755182,83.3940887 74.4401501,82.7438424 73.1694138,82.7438424 L71.1590315,82.7438424 L71.1590315,89.9261084 L73.1694138,89.9261084 C73.700504,89.9261084 74.1467167,89.7364532 74.5104771,89.3546798 C74.8863628,88.9729064 75.0755182,88.5123153 75.0755182,87.9753695 L75.0755182,84.6970443 Z M86.5824713,79 C88.0520632,79 89.2985487,79.5246305 90.3219279,80.5763547 C91.3574325,81.6280788 91.8739722,82.8940887 91.8739722,84.3743842 L91.8739722,96.6256158 C91.8739722,98.1182266 91.3574325,99.3916256 90.3219279,100.44335 C89.2864234,101.480296 88.0399379,102 86.5824713,102 C85.1128794,102 83.8663938,101.475369 82.8454397,100.423645 C81.8220606,99.3743842 81.310371,98.1083744 81.310371,96.6256158 L81.310371,84.3743842 C81.310371,82.8817734 81.8269107,81.6157635 82.8624152,80.5763547 C83.8954947,79.5246305 85.1371301,79 86.5824713,79 Z M88.3988481,84.3029557 C88.3988481,83.7660099 88.2121178,83.3103448 87.836232,82.9408867 C87.4700466,82.5591133 87.0238339,82.3669951 86.4951688,82.3669951 C85.9665037,82.3669951 85.5130158,82.5591133 85.1371301,82.9408867 C84.7612444,83.3103448 84.572089,83.7660099 84.572089,84.3029557 L84.572089,96.591133 C84.572089,97.1280788 84.7612444,97.58867 85.1371301,97.9704433 C85.5130158,98.3399015 85.9665037,98.5246305 86.4951688,98.5246305 C87.0238339,98.5246305 87.4700466,98.3399015 87.836232,97.9704433 C88.2121178,97.58867 88.3988481,97.1280788 88.3988481,96.591133 L88.3988481,84.3029557 Z M100.073131,79.2881773 C101.930734,79.2881773 103.293623,79.8054187 104.164223,80.8448276 C104.928119,81.7536946 105.31128,83.0197044 105.31128,84.6428571 L105.31128,87.9039409 C105.31128,89.4926108 104.717138,90.8349754 103.53128,91.9334975 L106,101.731527 L102.401197,101.731527 L100.37384,93.2586207 C100.279262,93.270936 100.179834,93.2783251 100.073131,93.2783251 L98.1500512,93.2783251 L98.1500512,101.731527 L94.8180061,101.731527 L94.8180061,79.2881773 L100.073131,79.2881773 Z M102.066538,84.6970443 C102.066538,83.3940887 101.43117,82.7438424 100.160433,82.7438424 L98.1500512,82.7438424 L98.1500512,89.9261084 L100.160433,89.9261084 C100.691524,89.9261084 101.137736,89.7364532 101.501497,89.3546798 C101.877382,88.9729064 102.066538,88.5123153 102.066538,87.9753695 L102.066538,84.6970443 Z" fill="#FF6661" fill-rule="nonzero" transform="rotate(-2 1305.73417506 112)"/>
  </g>
</svg>
