<svg xmlns="http://www.w3.org/2000/svg" xmlns:xlink="http://www.w3.org/1999/xlink" viewBox="0 0 200 200" class="design-iconfont">
  <defs>
    <path d="M37.3724359,97.6639759 C37.1019722,99.2005081 35.6395659,100.226859 34.1053355,99.9569041 L2.20543176,94.3356159 C1.93216473,94.2870527 1.72027114,94.0693159 1.67879467,93.7944562 L0.00720954672,82.6007209 C-0.0225539311,82.4030317 0.0408382301,82.2026885 0.178854227,82.0582587 L7.86905603,74.0170554 L1.38816902,61.7878882 C1.24847269,61.5242093 1.30733568,61.1989999 1.53055608,61.0012204 L11.5743705,52.0984596 C11.7569005,51.936497 11.8326249,51.685272 11.7700715,51.4491983 L8.65316014,39.6478793 L15.2471766,31.0954722 C15.4136849,30.8787553 15.4264322,30.5806659 15.2790349,30.3504822 L10.058826,22.2246209 L16.1834203,18.3433793 C16.348461,18.2389982 16.4574291,18.0653715 16.4797881,17.8711552 C16.5021471,17.6769388 16.4354914,17.4830284 16.2985003,17.3437642 L6.68834869,7.57098012 L18.0962182,0.105450906 C18.2334211,0.015583634 18.3996179,-0.0186404588 18.5610892,0.00972229551 L50.6670966,5.66747856 C52.2014255,5.93806446 53.2264887,7.40292189 52.9569927,8.93983413 L37.3724359,97.6639759 L37.3724359,97.6639759 Z" id="i5qvlcdd6__do5jyelyra"/>
  </defs>
  <g fill="none" fill-rule="evenodd">
    <path d="M61.4402173,100.395306 C61.4438187,100.425957 61.4456194,100.454205 61.449821,100.482452 C64.0259927,120.281575 91.6072733,116.75 126.311912,116.5 C161.01655,116.25 179.017365,106.794876 178.947739,87.9982412 C192.008665,81.8486914 200.172344,71.9037539 198.86265,61.8422202 C198.031337,55.4510638 193.515233,50.0876371 186.69246,46.3595627 C190.240398,40.8753326 191.880817,34.9601774 191.107125,29.0143705 C188.530353,9.21524825 160.18106,-3.41080158 127.786242,0.814910358 C107.245894,3.49602271 90.0145951,12.3086545 80.8089229,23.4459988 C72.890136,22.2217384 64.1910549,22.0913189 55.1780554,23.2674984 C22.7838369,27.4944124 -1.38848042,46.9707914 1.18829149,66.7729187 C3.0670001,81.2086142 18.6458762,91.8272856 39.5025429,94.8852321 C45.4081704,98.0687901 53.0112381,100.034699 61.4402173,100.395306 Z" fill="#F2F3F5" transform="translate(0 43)"/>
    <path fill="#052461" d="M0 116H200V117H0z" transform="translate(0 43)"/>
    <g fill="#3491FA" fill-rule="nonzero">
      <path transform="scale(1 -1) rotate(70 98.6360172 32.55303263)" d="M13.2541662 2.18016004L32.4155685 36.2241576 13.8515483 43.883616z"/>
      <path transform="scale(1 -1) rotate(70 119.95984755 25.00186826)" d="M34.3300246 3.89382898L56.5417426 12.7003382 50.6660277 23.4865189z"/>
    </g>
    <path d="M5.68880898,19.9512335 C5.29143789,18.452442 6.1816058,16.9145975 7.67747896,16.5156284 L52.5020229,4.57515338 C52.7387322,4.51202647 52.9906568,4.58958122 53.1511311,4.77498076 C53.3116055,4.96038029 53.3525614,5.22119671 53.2566579,5.44699965 L48.828992,15.8994461 C48.703528,16.1953835 48.8159082,16.5386613 49.0919513,16.7026838 L58.6566916,22.3823059 L53.4750368,28.6302138 C53.36442,28.7636278 53.3123194,28.936164 53.3305694,29.1086315 C53.3488195,29.281099 53.435871,29.4388576 53.5719506,29.5460731 L61.3651076,35.6871848 L56.2157575,45.6451319 C56.1265942,45.8178675 56.1202925,46.0217571 56.1986176,46.1996879 C56.2769428,46.3776187 56.4314718,46.5104565 56.6189186,46.5609912 L67.538513,49.4988607 L56.3365766,58.7972597 C56.1591391,58.9442974 56.0740786,59.1753927 56.1137541,59.4026313 C56.1534296,59.62987 56.3117421,59.8183201 56.5284658,59.8962908 L67.1308292,63.7163626 L62.7490358,77.3196239 C62.6496853,77.628263 62.7954108,77.9627005 63.08888,78.0995606 L73.2234731,82.8244884 C73.7668361,83.0775633 73.6970582,83.873034 73.117514,84.0270796 L28.7355429,95.8504023 C27.2394347,96.2484861 25.7043434,95.3567217 25.3060886,93.8581656 L5.68880898,19.9512335 Z" fill="#FFF" transform="rotate(-7 493.19094785 -114.06429782)"/>
    <g fill-rule="nonzero">
      <path d="M47.0935059,0.0300825026 C47.4226783,-0.0577029803 47.7729938,0.0501413068 47.9960598,0.307854379 C48.2189846,0.565404188 48.2758618,0.927611626 48.1427593,1.24099867 L43.7150642,11.6935141 C43.6383925,11.874363 43.707065,12.0841308 43.8754982,12.1842123 L53.4402384,17.8638345 L53.6917806,18.0132023 L53.505027,18.238385 L48.3233928,24.4862682 C48.2557837,24.5678108 48.223922,24.6733241 48.2350843,24.7788108 C48.2462439,24.8842714 48.2994525,24.9806985 48.3825878,25.0461998 L56.1757449,31.1873114 L56.337915,31.3151037 L56.2430769,31.4985041 L51.0938106,41.4562889 C51.0392874,41.5619165 51.0354326,41.6866378 51.0833324,41.7954517 C51.1311872,41.904163 51.2255307,41.9852635 51.3397732,42.0160628 L62.2593676,44.9539323 L62.7255658,45.0793609 L62.3540913,45.387711 L51.1519956,54.6862421 C51.0436594,54.7760174 50.9916819,54.9172318 51.0159314,55.0561189 C51.0401693,55.1949396 51.1368131,55.3099813 51.2691118,55.3575785 L61.8714752,59.1776502 L62.0987636,59.2595431 L62.0246917,59.4894993 L57.6429133,73.0927143 C57.5821597,73.2814494 57.6712477,73.4859047 57.8504208,73.5694626 L67.9849279,78.2943503 C68.7401894,78.6461183 68.6430015,79.7511074 67.8377723,79.9651411 L23.455729,91.7884831 C21.8260797,92.2220994 20.1540809,91.2508028 19.7203587,89.6187895 L0.103060806,15.7117886 C-0.32963499,14.0797606 0.639730565,12.405095 2.26903029,11.9705394 L47.0935059,0.0300825026 Z M47.3094534,0.50002643 L47.2222773,0.513215927 L2.39780801,12.4536711 C1.03528685,12.8170734 0.224316577,14.218097 0.586362955,15.5836518 L20.2036048,89.4904415 C20.5664117,90.855614 21.9645956,91.6678462 23.3270905,91.3053142 L67.7091957,79.4819558 C68.0627296,79.3879848 68.105468,78.9020652 67.7737381,78.7475598 L57.63912,74.0226204 C57.2313798,73.8324697 57.0290168,73.3680501 57.1669791,72.9394606 L61.4740589,59.5660091 L51.0997367,55.8280166 C50.8361344,55.7331804 50.6347611,55.5208404 50.551615,55.257772 L50.5233826,55.1421172 C50.468281,54.826527 50.5864245,54.5055509 50.8328041,54.3013828 L61.6620589,45.3100091 L51.2097462,42.4988598 C50.9864369,42.4386567 50.7967861,42.2944502 50.6786449,42.0988371 L50.6257086,41.9968976 C50.5169582,41.7498499 50.5257068,41.466792 50.649594,41.226786 L55.7030589,31.4520091 L48.0731343,25.4389319 C47.9156018,25.3148139 47.8053919,25.1419816 47.7583665,24.9492338 L47.7378603,24.8314257 C47.7125226,24.5919773 47.784862,24.3524183 47.9385072,24.1671082 L52.9330589,18.1440091 L43.6201494,12.6140925 C43.2685233,12.4051593 43.1080638,11.987114 43.2179617,11.6023491 L43.2546964,11.4984205 L47.682455,1.04575539 C47.7410667,0.907755257 47.7160323,0.74832986 47.6180083,0.6350806 C47.5201256,0.521994601 47.3665918,0.474729377 47.2222773,0.513215927 L47.3094534,0.50002643 Z" fill="#052461" transform="rotate(-7 525.69980664 -159.90365865)"/>
      <path d="M11.1054902,18.7285857 L28.0835795,18.7784054 C28.6803087,18.7801564 29.163623,19.263457 29.165391,19.8601861 L29.178852,24.4034609 C29.1806275,25.0026872 28.6962978,25.4898954 28.0970715,25.4916708 C28.0949387,25.4916771 28.0928058,25.4916772 28.090673,25.4916709 L11.1125837,25.4418512 C10.5158545,25.4401001 10.0325402,24.9567996 10.0307722,24.3600705 L10.0173112,19.8167957 C10.0155357,19.2175694 10.4998654,18.7303612 11.0990917,18.7285858 C11.1012245,18.7285795 11.1033573,18.7285794 11.1054902,18.7285857 Z" fill="#F2F3F5" transform="rotate(-22.694 182.87349918 -12.39726546)"/>
    </g>
    <path d="M132.825687,101.744083 C132.6957,102.482679 132.276941,103.139454 131.661586,103.569838 C131.046232,104.000222 130.284725,104.168937 129.544688,104.038844 L92.260546,97.4928132 C91.996039,97.4467667 91.7875786,97.2423623 91.7367877,96.9792456 L89.5346521,85.6957502 C89.4913643,85.4748041 89.5666055,85.2473173 89.7331839,85.0955019 L98.3405824,77.2271001 L90.6109034,64.8082815 C90.435302,64.5263068 90.5025124,64.1574024 90.7663329,63.9551599 L102.014727,55.3072825 C102.231473,55.1403395 102.319807,54.855535 102.235463,54.5955874 L98.3706234,42.6975055 L105.695402,34.3038049 C105.895287,34.0740832 105.908057,33.7365017 105.726096,33.4923943 L99.5441815,25.2179613 L106.435978,21.4959003 C106.621499,21.3955531 106.746495,21.2113986 106.771053,21.0022409 C106.79561,20.7930832 106.716658,20.5850801 106.559407,20.4446511 L95.3018703,10.4027116 L108.25607,3.16388623 C108.386492,3.09122716 108.538032,3.06567662 108.685134,3.0915436 L146.180216,9.67407141 C146.92037,9.80394786 147.578488,10.2219878 148.009737,10.8361928 C148.440987,11.4503979 148.610027,12.2104348 148.479658,12.9490419 L132.825687,101.744083 L132.825687,101.744083 Z" fill="#FFF" transform="rotate(6 -384.98772116 303.9141267)"/>
    <g transform="rotate(6 -459.15033918 1156.4699868)">
      <mask id="i5qvlcdd6__8gr1mvp31b" fill="#fff">
        <use xlink:href="#i5qvlcdd6__do5jyelyra"/>
      </mask>
      <path d="M10.0713725,16.7684145 L42.5527349,16.7793164 C43.1516794,16.7802455 43.6371697,17.265736 43.6380985,17.8646805 L43.639951,23.3921295 C43.6408794,23.9913582 43.1552712,24.477292 42.5560423,24.4774929 C42.5557997,24.4774929 42.5555571,24.4774929 42.5553147,24.4767653 L10.0739523,24.4658634 C9.47500778,24.4649343 8.98951746,23.9794437 8.98858868,23.3804993 L8.98673617,17.8530503 C8.98580779,17.2538216 9.471416,16.7678878 10.0706449,16.7676869 C10.0708875,16.7676868 10.0711301,16.7676868 10.0713725,16.7684145 Z" fill="#F2F3F5" fill-rule="nonzero" mask="url(#i5qvlcdd6__8gr1mvp31b)" transform="rotate(12.334 26.313344 20.62259)"/>
    </g>
    <path d="M108.605752,2.8317086 L108.728362,2.84530922 L146.223424,9.42783346 C147.028821,9.56915833 147.745,10.0240786 148.214341,10.6925353 C148.683757,11.3610988 148.867771,12.1884591 148.725862,12.9924458 L133.071903,101.787415 C132.930407,102.591409 132.4746,103.306288 131.804871,103.774703 C131.135249,104.243042 130.306642,104.426623 129.501456,104.285077 L92.2176698,97.7391089 C91.8509454,97.675268 91.5618003,97.3917488 91.491417,97.0271332 L89.2893163,85.7438163 C89.229228,85.4371181 89.333663,85.1213655 89.5645058,84.9109816 L98.0176243,77.182714 L90.3986901,64.9404385 C90.1753459,64.5817999 90.2351051,64.1217491 90.5282577,63.8316607 L90.6139576,63.7569635 L101.862176,55.1092215 C101.995216,55.0067507 102.049379,54.8321195 101.997692,54.672822 L98.1328529,42.7747401 L98.0890622,42.6399284 L98.1822602,42.5331299 L105.506802,34.1397008 C105.6295,33.9986881 105.637333,33.7916241 105.525819,33.6420236 L99.343904,25.3675906 L99.1705825,25.1356014 L99.4253821,24.9979914 L106.317038,21.2760061 C106.430991,21.2143696 106.507698,21.1013599 106.522758,20.973088 C106.537814,20.8448609 106.489398,20.7173076 106.39299,20.631213 L95.1354534,10.5892736 L94.8735652,10.3556643 L95.1799187,10.1844736 L108.134401,2.94549091 C108.31499,2.84488329 108.524783,2.80951096 108.728362,2.84530922 L108.605752,2.8317086 Z M108.641837,3.33776575 C108.551282,3.32184209 108.457995,3.33757084 108.378022,3.38212406 L95.7296243,10.449714 L106.725929,20.2581821 C106.912777,20.4250423 107.01991,20.6608041 107.025258,20.9074388 L107.019347,21.0313935 C106.985292,21.3214371 106.812006,21.5767364 106.554777,21.71587 L99.9176243,25.299714 L105.926536,33.3429832 C106.153557,33.6475394 106.161916,34.0571554 105.959159,34.3683669 L105.883765,34.4681803 L98.6516243,42.754714 L102.473259,54.5184311 C102.577237,54.8388927 102.491997,55.1865807 102.26063,55.4225138 L102.167102,55.5054787 L90.9184314,64.1535686 C90.7567147,64.2775392 90.7155623,64.5034169 90.8231491,64.6761762 L98.552828,77.0949948 L98.6626345,77.2714143 L98.5092605,77.4116202 L89.901583,85.2802766 C89.7995479,85.3732688 89.7535006,85.5124899 89.7800228,85.6478625 L91.9822561,96.9318614 C92.0133569,97.0929756 92.1411327,97.2182652 92.3037776,97.2465794 L129.587972,103.792619 C130.262807,103.91125 130.957216,103.757402 131.518302,103.364973 C132.079282,102.972619 132.460994,102.373948 132.579471,101.700751 L148.233464,12.9055869 C148.352284,12.2324104 148.198217,11.5396968 147.805134,10.9798501 C147.411976,10.4198967 146.811919,10.0387372 146.136988,9.9203056 L108.641837,3.33776575 Z" fill="#052461" fill-rule="nonzero" transform="rotate(6 -384.98772216 303.9141267)"/>
    <path d="M124.811392,48.6048698 C126.617596,48.5268405 128.240991,47.4798417 129.057095,45.8666294 C129.873199,44.2534171 129.754879,42.3252995 128.747649,40.8239781 C127.74042,39.3226567 126.001188,38.4820093 124.198996,38.6254132 C121.481514,38.8416484 119.438092,41.1948798 119.605066,43.9158434 C119.77204,46.6368069 122.087861,48.7225285 124.811392,48.6048698 L124.811392,48.6048698 Z" fill="#F2F3F5" fill-rule="nonzero" transform="rotate(6 -379.41482316 293.9420247)"/>
    <g>
      <path d="M24,48 C37.254834,48 48,37.254834 48,24 C48,10.745166 37.254834,-2.4348735e-15 24,0 C10.745166,2.4348735e-15 -1.623249e-15,10.745166 0,24 C1.623249e-15,37.254834 10.745166,48 24,48 Z" stroke="#052461" stroke-width=".5" fill="#FF6661" transform="translate(79 80)"/>
      <path d="M28.0479629,24 L36.1448876,32.0969247 C36.8778974,32.8180172 37.1678243,33.8768645 36.9044104,34.8707915 C36.6409966,35.8647185 35.8647185,36.6409966 34.8707915,36.9044104 C33.8768645,37.1678243 32.8180172,36.8778974 32.0969247,36.1448876 L24,28.0479629 L15.9030753,36.1448876 C15.1819828,36.8778974 14.1231355,37.1678243 13.1292085,36.9044104 C12.1352815,36.6409966 11.3590034,35.8647185 11.0955896,34.8707915 C10.8321757,33.8768645 11.1221026,32.8180172 11.8551124,32.0969247 L19.9520371,24 L11.8551124,15.9030753 C11.1221026,15.1819828 10.8321757,14.1231355 11.0955896,13.1292085 C11.3590034,12.1352815 12.1352815,11.3590034 13.1292085,11.0955896 C14.1231355,10.8321757 15.1819828,11.1221026 15.9030753,11.8551124 L24,19.9520371 L32.0969247,11.8551124 C32.8180172,11.1221026 33.8768645,10.8321757 34.8707915,11.0955896 C35.8647185,11.3590034 36.6409966,12.1352815 36.9044104,13.1292085 C37.1678243,14.1231355 36.8778974,15.1819828 36.1448876,15.9030753 L28.0479629,24 Z" fill="#FFF" fill-rule="nonzero" transform="translate(79 80)"/>
    </g>
  </g>
</svg>
