<svg xmlns="http://www.w3.org/2000/svg" viewBox="0 0 200 200" class="design-iconfont">
  <g fill="none" fill-rule="evenodd">
    <path fill="#052461" d="M0 132H200V133H0z" transform="translate(0 27)"/>
    <path d="M24.3627417,0.25227536 C21.0539794,-0.71357291 17.5851696,1.17871488 16.6141708,4.47969839 L5.3693342,42.328794 C5.03413866,43.466046 5.41939226,44.6926854 6.34519433,45.4359124 C7.27099641,46.1791393 8.55470172,46.2923275 9.59686238,45.7226218 L20.5550869,41.02029 L57.3465688,51.7474845 C60.6553312,52.7140007 64.1241409,50.8210449 65.0951398,47.5200614 L72.9957223,20.9405316 C73.9667212,17.6395481 72.0715993,14.1809296 68.7628369,13.2150813 L24.3627417,0.25227536 L24.3627417,0.25227536 Z" stroke="#052461" stroke-width=".5" fill="#3491FA" transform="matrix(-1 0 0 1 108.25 27)"/>
    <path d="M26.8633575,31.4712637 C25.9673615,33.6744471 23.4512086,34.7369341 21.2416089,33.8451397 C20.1810127,33.4164552 19.3347223,32.5848832 18.8890933,31.5335383 C18.4434642,30.4821934 18.4350398,29.2972897 18.8656751,28.2397465 C19.7619344,26.0368248 22.2780097,24.9746694 24.4874237,25.8665384 C25.5478546,26.295228 26.3940188,27.1266891 26.839634,28.1778761 C27.2852492,29.2290631 27.2937833,30.4137984 26.8633575,31.4712637 L26.8633575,31.4712637 Z" fill="#D9F0FF" transform="translate(29.75 27)"/>
    <path d="M36.1193205,29.6444345 C38.3289202,30.5362289 40.8450731,29.4737418 41.7410691,27.2705585 C42.1714949,26.2130932 42.1629608,25.0283578 41.7173456,23.9771708 C41.2717305,22.9259838 40.4255663,22.0945228 39.3651353,21.6658331 C37.1557213,20.7739642 34.6396461,21.8361195 33.7433867,24.0390412 C33.3127515,25.0965844 33.3211759,26.2814882 33.7668049,27.3328331 C34.2124339,28.384178 35.0587243,29.21575 36.1193205,29.6444345 L36.1193205,29.6444345 Z" fill="#D9F0FF" transform="translate(29.75 27)"/>
    <path d="M50.0139795,25.7169187 C52.2235792,26.6087131 54.7397321,25.546226 55.6357281,23.3430427 C56.0661539,22.2855774 56.0576198,21.1008421 55.6120046,20.0496551 C55.1663895,18.998468 54.3202252,18.167007 53.2597943,17.7383173 C51.0503803,16.8464484 48.534305,17.9086037 47.6380457,20.1115254 C47.2074104,21.1690686 47.2158349,22.3539724 47.6614639,23.4053173 C48.1070929,24.4566622 48.9533833,25.2882342 50.0139795,25.7169187 L50.0139795,25.7169187 Z" fill="#D9F0FF" transform="translate(29.75 27)"/>
    <path d="M68.25,59.9860207 C68.25,58.6637096 68.7531673,57.3954939 69.649282,56.4604137 C70.5453967,55.5253335 71.7608638,55 73.0282495,55 L135.47175,55 C136.739136,55 137.954603,55.5253335 138.850718,56.4604137 C139.746833,57.3954939 140.25,58.6637096 140.25,59.9860207 L140.25,112.028652 C140.25,117.535321 135.971437,122 130.692837,122 L68.25,122 L68.25,59.9860207 L68.25,59.9860207 Z" fill="#B0DDFF" fill-rule="nonzero" transform="translate(29.75 27)"/>
    <path d="M135.47175,54.75 C136.807707,54.75 138.088234,55.3034526 139.031215,56.2874377 C139.972089,57.2692231 140.5,58.5994616 140.5,59.9860207 L140.5,112.028652 C140.5,117.671312 136.11171,122.25 130.692837,122.25 L68,122.25 L68,122 L68,59.9860207 C68,58.5994616 68.5279109,57.2692231 69.4687845,56.2874377 C70.4117663,55.3034526 71.6922927,54.75 73.0282495,54.75 L135.47175,54.75 Z M135.47175,55.25 L73.0282495,55.25 C71.8294349,55.25 70.679027,55.7472144 69.8297794,56.6333897 C68.9786448,57.5215338 68.5,58.7276309 68.5,59.9860207 L68.5,121.75 L130.692837,121.75 C135.742121,121.75 139.855943,117.548522 139.996298,112.305543 L140,112.028652 L140,59.9860207 C140,58.7276309 139.521355,57.5215338 138.670221,56.6333897 C137.820973,55.7472144 136.670565,55.25 135.47175,55.25 Z" fill="#052461" fill-rule="nonzero" transform="translate(29.75 27)"/>
    <path d="M111,74 L111,122 L102,122 L102,122.623859 C102,127.802477 97.6019941,132 92.1775592,132 L82,132 L82,122 L39,122 L39,83.5570752 C39,78.2791882 43.3180823,74 48.6439407,74 L111,74 Z" fill="#D9F0FF" fill-rule="nonzero" transform="translate(29.75 27)"/>
    <path d="M111.5,73.75 L111.5,122.25 L102.5,122.25 L102.5,122.623859 C102.5,127.852839 98.139426,132.103709 92.7093615,132.246304 L92.4275592,132.25 L82,132.25 L82,122.25 L39,122.25 L39,83.5570752 C39,78.1406082 43.430515,73.75 48.8939407,73.75 L111.5,73.75 Z M111,74.25 L48.8939407,74.25 C43.7056497,74.25 39.5,78.4177683 39.5,83.5570752 L39.5,121.75 L82.5,121.75 L82.5,131.75 L92.4275592,131.75 C97.623903,131.75 101.849399,127.803708 101.996063,122.888105 L102,122.623859 L102,121.75 L111,121.75 L111,74.25 Z" fill="#052461" fill-rule="nonzero" transform="translate(29.75 27)"/>
    <path d="M0.25,100.585708 C0.25,95.2920086 4.54808537,91 9.85077061,91 L72.5785198,91 L76.7657841,121.999474 L63.25,131.987 L63.25,134.42312 C63.25,139.71261 58.9206575,144 53.5809111,144 L1.5622479,144 C0.837513398,144 0.25,143.418089 0.25,142.700266 L0.25,100.585708 Z" fill="#F0F9FF" fill-rule="nonzero" transform="translate(29.75 27)"/>
    <path d="M72.7970213,90.75 L72.8262699,90.9665351 L77.0135342,121.966009 L77.0333371,122.112616 L76.9143588,122.200535 L63.5,132.113 L63.5,134.42312 C63.5,139.758995 59.2077108,144.100586 53.8585193,144.246225 L53.5809111,144.25 L1.5622479,144.25 C0.699975617,144.25 0,143.5567 0,142.700266 L0,100.585708 C0,95.153622 4.41032983,90.75 9.85077061,90.75 L72.7970213,90.75 Z M72.359,91.25 L9.85077061,91.25 C4.68630198,91.25 0.5,95.4299349 0.5,100.585708 L0.5,142.700266 C0.5,143.279479 0.975051179,143.75 1.5622479,143.75 L53.5809111,143.75 C58.7833546,143.75 63,139.573767 63,134.42312 L63,131.860887 L63.1014253,131.785939 L76.498,121.886 L72.359,91.25 Z" fill="#052461" fill-rule="nonzero" transform="translate(29.75 27)"/>
    <path d="M82.25,132 L63.25,132 L63.25,100.436667 C63.25,95.2246667 67.5031704,91 72.7496644,91 C77.9968296,91 82.25,95.2246667 82.25,100.436667 L82.25,122 L82.2833521,121.999474 C82.7005668,127.500798 86.9811952,131.847783 92.2501847,131.996088 L82.25,132 Z" fill="#87C7FF" fill-rule="nonzero" transform="translate(29.75 27)"/>
    <path d="M72.7496644,90.75 C78.1345259,90.75 82.5,95.0862178 82.5,100.436667 L82.5,121.745 L82.5148313,121.745795 L82.5326363,121.980569 C82.9419209,127.377328 87.1383848,131.602109 92.2572186,131.746187 L92.2502825,132.246088 L82.2500978,132.25 L63,132.25 L63,100.436667 C63,95.0863236 67.3653676,90.75 72.7496644,90.75 Z M72.7496644,91.25 C67.6407656,91.25 63.5,95.3632159 63.5,100.436667 L63.5,131.75 L82.2499022,131.75 L89.396,131.747 L89.2590028,131.702314 C85.3977722,130.369139 82.5076219,126.737702 82.0602572,122.314422 L82.055,122.252 L82,122.253971 L82,100.436667 C82,95.3631156 77.8591334,91.25 72.7496644,91.25 Z" fill="#052461" fill-rule="nonzero" transform="translate(29.75 27)"/>
    <path d="M102.25,122 L102.25,83.405576 C102.25,78.2114123 106.279813,74 111.25,74 C116.220187,74 120.25,78.2114123 120.25,83.405576 L120.25,112 C120.25,117.522847 124.727153,122 130.25,122 L102.25,122 Z" fill="#87C7FF" fill-rule="nonzero" transform="translate(29.75 27)"/>
    <path d="M102,122.25 L102,83.405576 C102,78.0757461 106.139216,73.75 111.25,73.75 C116.360784,73.75 120.5,78.0757461 120.5,83.405576 L120.5,112 C120.5,117.384776 124.865224,121.75 130.25,121.75 L130.25,122.25 L102,122.25 Z M111.25,74.25 C106.420409,74.25 102.5,78.3470785 102.5,83.405576 L102.5,121.75 L127.083,121.75 L127.010207,121.727448 C123.02187,120.399743 120.122869,116.687771 120.003808,112.282136 L120,112 L120,83.405576 C120,78.3470785 116.079591,74.25 111.25,74.25 Z" fill="#052461" fill-rule="nonzero" transform="translate(29.75 27)"/>
    <g fill="#F2F3F5" fill-rule="nonzero">
      <path transform="rotate(-123 82.0081779 6.4771801)" d="M9.59937631 2.55640528L21.3176621 23.3762433 9.96470941 28.0604372z"/>
      <path transform="rotate(-123 75.49564486 4.55425172)" d="M1.08397289 2.38129757L14.6677 7.76697817 11.0743666 14.3633403z"/>
    </g>
    <path d="M57.9280924,98.8890441 L71.7059891,98.8890441 C72.3326255,98.8857987 72.8382562,98.3746384 72.8350305,97.7471823 C72.8323139,97.1235127 72.328844,96.621007 71.7059891,96.6166797 L57.9280924,96.6166797 C57.301456,96.621007 56.7963655,97.1310854 56.7990557,97.7585415 C56.8017675,98.3800475 57.3057776,98.8857987 57.9280924,98.8890441 Z M53.732978,96.6166797 C54.355833,96.621007 54.8593029,97.1235127 54.8625549,97.7471823 C54.8652451,98.3746384 54.3596144,98.8857987 53.732978,98.8890441 L36.4815711,98.8890441 C35.8592564,98.8857987 35.3552463,98.3800475 35.3525345,97.7585415 C35.3498443,97.1310854 35.8549348,96.621007 36.4815711,96.6166797 Z M36.4815711,115.924529 L53.732978,115.924529 C54.3596144,115.920202 54.8652451,115.411205 54.8625549,114.783749 C54.8593029,114.16008 54.355833,113.65541 53.732978,113.653246 L36.4815711,113.653246 C35.8549348,113.65541 35.3498443,114.16657 35.3525345,114.792945 C35.3552463,115.417696 35.8592564,115.920202 36.4815711,115.924529 Z M81.6782044,105.1338 L36.4815171,105.1338 C35.855421,105.138127 35.3497903,105.648206 35.353016,106.275662 C35.3562727,106.899332 35.8597426,107.402919 36.4815171,107.406165 L81.6782044,107.406165 C82.3048408,107.402919 82.8099313,106.891759 82.8067056,106.264303 C82.8034489,105.640633 82.299979,105.138127 81.6782044,105.1338 Z M71.7063132,121.601762 C72.331329,121.603926 72.8364195,122.112381 72.8348028,122.737674 C72.8364195,123.362966 72.331329,123.872504 71.7063132,123.874667 L67.0259879,123.874667 C66.4036732,123.87034 65.9007435,123.367293 65.8974867,122.744165 C65.894261,122.116709 66.3993515,121.605007 67.0259879,121.601762 Z M36.4815711,123.874451 L60.7496846,123.874451 C61.376321,123.870124 61.8814115,123.360045 61.8781858,122.732589 C61.874929,122.10892 61.3714591,121.605332 60.7496846,121.602087 L36.4815711,121.602087 C35.8549348,121.605332 35.3498443,122.116492 35.35307,122.743948 C35.3563267,123.367618 35.8597966,123.870124 36.4815711,123.874451 Z M77.4815711,79.9245291 L120.620434,79.9245291 C121.24707,79.9202018 121.752701,79.4112052 121.750104,78.7837491 C121.746759,78.1600795 121.243289,77.6554101 120.620434,77.6532465 L77.4815711,77.6532465 C76.8549348,77.6554101 76.3498443,78.1665704 76.352213,78.7929446 C76.3552463,79.4176961 76.8592564,79.9202018 77.4815711,79.9245291 Z M106.586889,61.9245291 L146.433834,61.9245291 C147.118924,61.9202018 147.671721,61.4112052 147.668791,60.7837491 C147.665224,60.1600795 147.11479,59.6554101 146.433834,59.6532465 L106.586889,59.6532465 C105.901799,59.6554101 105.349593,60.1665704 105.352138,60.7929446 C105.355499,61.4176961 105.906524,61.9202018 106.586889,61.9245291 Z M77.4815711,85.8744509 L101.749685,85.8744509 C102.376321,85.8701237 102.881411,85.3600452 102.878186,84.7325892 C102.874929,84.1089195 102.371459,83.605332 101.749685,83.6020865 L77.4815711,83.6020865 C76.8549348,83.605332 76.3498443,84.1164923 76.35307,84.7439483 C76.3563267,85.3676179 76.8597966,85.8701237 77.4815711,85.8744509 Z M106.586889,67.8744509 L133.118765,67.8744509 C133.803855,67.8701237 134.356061,67.3600452 134.352535,66.7325892 C134.348974,66.1089195 133.79854,65.605332 133.118765,65.6020865 L106.586889,65.6020865 C105.901799,65.605332 105.349593,66.1164923 105.35312,66.7439483 C105.35668,67.3676179 105.907115,67.8701237 106.586889,67.8744509 Z M138.586889,67.8744509 L156.857616,67.8744509 C157.542706,67.8701237 158.094912,67.3600452 158.091402,66.7325892 C158.087825,66.1089195 157.537391,65.605332 156.857616,65.6020865 L138.586889,65.6020865 C137.901799,65.605332 137.349593,66.1164923 137.35307,66.7439483 C137.35668,67.3676179 137.907115,67.8701237 138.586889,67.8744509 Z M53.7331941,138.638545 L36.4817872,138.638545 C35.8551509,138.640709 35.3495202,139.150787 35.3522104,139.778243 C35.3554624,140.401913 35.8589323,140.907664 36.4817872,140.908746 L53.7331941,140.908746 C54.3598305,140.907664 54.864921,140.396504 54.8622307,139.769048 C54.8595189,139.145378 54.3555088,138.640709 53.7331941,138.638545 M77.7910603,130.121317 L68.6475715,130.121317 C68.0214754,130.12348 67.5158447,130.633559 67.5185349,131.261015 C67.5212467,131.884684 68.0252568,132.388272 68.6475715,132.391517 L77.7910603,132.391517 C78.4176966,132.388272 78.9227871,131.879275 78.9200969,131.251819 C78.9173851,130.62815 78.413375,130.12348 77.7910603,130.121317 Z M62.4137282,130.121317 L36.8826184,130.121317 C36.2565223,130.12348 35.7508915,130.633559 35.7535818,131.261015 C35.7562936,131.884684 36.2603037,132.388272 36.8826184,132.391517 L62.4137282,132.391517 C63.0403646,132.388272 63.5454551,131.879275 63.5427649,131.251819 C63.5400531,130.62815 63.036043,130.12348 62.4137282,130.121317 Z" fill="#FFF" transform="translate(0 27)"/>
  </g>
</svg>
