<svg xmlns="http://www.w3.org/2000/svg" xmlns:xlink="http://www.w3.org/1999/xlink" viewBox="0 0 200 200" class="design-iconfont">
  <defs>
    <linearGradient x1="50%" y1="0%" x2="50%" y2="100%" id="e29298kv9__bsebsyf3db">
      <stop stop-color="#5EAFFF" offset="0%"/>
      <stop stop-color="#12D1EE" offset="100%"/>
    </linearGradient>
    <linearGradient x1="21.2630152%" y1="33.776512%" x2="100%" y2="66.4262409%" id="e29298kv9__b7vf2jqd4f">
      <stop stop-color="#18CBD8" offset="0%"/>
      <stop stop-color="#12D1EE" offset="100%"/>
    </linearGradient>
    <linearGradient x1="50%" y1="0%" x2="50%" y2="100%" id="e29298kv9__drd4nfbu1i">
      <stop stop-color="#48C2F7" offset="0%"/>
      <stop stop-color="#0268CB" offset="100%"/>
    </linearGradient>
    <linearGradient x1="50%" y1="0%" x2="50%" y2="100%" id="e29298kv9__biecrpobzj">
      <stop stop-color="#48C2F7" offset="0%"/>
      <stop stop-color="#0268CB" offset="100%"/>
    </linearGradient>
    <filter x="-77.1%" y="-77.1%" width="254.3%" height="254.3%" filterUnits="objectBoundingBox" id="e29298kv9__bokvs3qo5c">
      <feGaussianBlur stdDeviation="27" in="SourceGraphic"/>
    </filter>
    <filter x="-105.7%" y="-105.7%" width="311.4%" height="311.4%" filterUnits="objectBoundingBox" id="e29298kv9__pogcbaop0g">
      <feGaussianBlur stdDeviation="37" in="SourceGraphic"/>
    </filter>
    <path d="M1.39928196,1.4604137 C2.29539667,0.5253335 3.51086383,0 4.77824951,0 L67.2217505,0 C68.4891362,0 69.7046033,0.5253335 70.600718,1.4604137 C71.4968327,2.3954939 72,3.66370956 72,4.98602072 L72,57.0286518 C72,62.5353207 67.7214367,67 62.4428365,67 L0,67 L0,4.98602072 C0,3.66370956 0.50316726,2.3954939 1.39928196,1.4604137 Z" id="e29298kv9__16yozccqsa"/>
    <path d="M72,0 L72,48 L63,48 L63,48.6238592 C63,53.8024772 58.6019941,58 53.1775592,58 L43,58 L43,48 L0,48 L0,9.55707522 C0,4.27918824 4.31808234,0 9.64394073,0 L72,0 Z" id="e29298kv9__wv65zf7i7e"/>
  </defs>
  <g fill="none" fill-rule="evenodd">
    <path fill="#226FD4" d="M0 159H200V160H0z"/>
    <path d="M24.3627417,0.25227536 C21.0539794,-0.71357291 17.5851696,1.17871488 16.6141708,4.47969839 L5.3693342,42.328794 C5.03413866,43.466046 5.41939226,44.6926854 6.34519433,45.4359124 C7.27099641,46.1791393 8.55470172,46.2923275 9.59686238,45.7226218 L20.5550869,41.02029 L57.3465688,51.7474845 C60.6553312,52.7140007 64.1241409,50.8210449 65.0951398,47.5200614 L72.9957223,20.9405316 C73.9667212,17.6395481 72.0715993,14.1809296 68.7628369,13.2150813 L24.3627417,0.25227536 L24.3627417,0.25227536 Z" stroke="#226FD4" stroke-width=".5" fill="#5EAFFF" transform="matrix(-1 0 0 1 108.25 27)"/>
    <path d="M26.8633575,31.4712637 C25.9673615,33.6744471 23.4512086,34.7369341 21.2416089,33.8451397 C20.1810127,33.4164552 19.3347223,32.5848832 18.8890933,31.5335383 C18.4434642,30.4821934 18.4350398,29.2972897 18.8656751,28.2397465 C19.7619344,26.0368248 22.2780097,24.9746694 24.4874237,25.8665384 C25.5478546,26.295228 26.3940188,27.1266891 26.839634,28.1778761 C27.2852492,29.2290631 27.2937833,30.4137984 26.8633575,31.4712637 L26.8633575,31.4712637 Z M36.1193205,29.6444345 C38.3289202,30.5362289 40.8450731,29.4737418 41.7410691,27.2705585 C42.1714949,26.2130932 42.1629608,25.0283578 41.7173456,23.9771708 C41.2717305,22.9259838 40.4255663,22.0945228 39.3651353,21.6658331 C37.1557213,20.7739642 34.6396461,21.8361195 33.7433867,24.0390412 C33.3127515,25.0965844 33.3211759,26.2814882 33.7668049,27.3328331 C34.2124339,28.384178 35.0587243,29.21575 36.1193205,29.6444345 L36.1193205,29.6444345 Z M50.0139795,25.7169187 C52.2235792,26.6087131 54.7397321,25.546226 55.6357281,23.3430427 C56.0661539,22.2855774 56.0576198,21.1008421 55.6120046,20.0496551 C55.1663895,18.998468 54.3202252,18.167007 53.2597943,17.7383173 C51.0503803,16.8464484 48.534305,17.9086037 47.6380457,20.1115254 C47.2074104,21.1690686 47.2158349,22.3539724 47.6614639,23.4053173 C48.1070929,24.4566622 48.9533833,25.2882342 50.0139795,25.7169187 L50.0139795,25.7169187 Z" fill="#87C7FF" transform="translate(29.75 27)"/>
    <path d="M68.25,59.9860207 C68.25,58.6637096 68.7531673,57.3954939 69.649282,56.4604137 C70.5453967,55.5253335 71.7608638,55 73.0282495,55 L135.47175,55 C136.739136,55 137.954603,55.5253335 138.850718,56.4604137 C139.746833,57.3954939 140.25,58.6637096 140.25,59.9860207 L140.25,112.028652 C140.25,117.535321 135.971437,122 130.692837,122 L68.25,122 L68.25,59.9860207 L68.25,59.9860207 Z" fill="#1C1C1C" transform="translate(29.75 27)"/>
    <g transform="translate(98 82)">
      <mask id="e29298kv9__700678a0dd" fill="#fff">
        <use xlink:href="#e29298kv9__16yozccqsa"/>
      </mask>
      <use fill="#1C1C1C" xlink:href="#e29298kv9__16yozccqsa"/>
      <path fill="url(#e29298kv9__bsebsyf3db)" opacity=".38950893" filter="url(#e29298kv9__bokvs3qo5c)" mask="url(#e29298kv9__700678a0dd)" d="M19.5 -34A52.5 52.5 0 1 0 19.5 71A52.5 52.5 0 1 0 19.5 -34Z"/>
    </g>
    <path d="M135.47175,54.75 C136.807707,54.75 138.088234,55.3034526 139.031215,56.2874377 C139.972089,57.2692231 140.5,58.5994616 140.5,59.9860207 L140.5,112.028652 C140.5,117.671312 136.11171,122.25 130.692837,122.25 L68,122.25 L68,122 L68,59.9860207 C68,58.5994616 68.5279109,57.2692231 69.4687845,56.2874377 C70.4117663,55.3034526 71.6922927,54.75 73.0282495,54.75 L135.47175,54.75 Z M135.47175,55.25 L73.0282495,55.25 C71.8294349,55.25 70.679027,55.7472144 69.8297794,56.6333897 C68.9786448,57.5215338 68.5,58.7276309 68.5,59.9860207 L68.5,121.75 L130.692837,121.75 C135.742121,121.75 139.855943,117.548522 139.996298,112.305543 L140,112.028652 L140,59.9860207 C140,58.7276309 139.521355,57.5215338 138.670221,56.6333897 C137.820973,55.7472144 136.670565,55.25 135.47175,55.25 Z" fill="#226FD4" transform="translate(29.75 27)"/>
    <path d="M111,74 L111,122 L102,122 L102,122.623859 C102,127.802477 97.6019941,132 92.1775592,132 L82,132 L82,122 L39,122 L39,83.5570752 C39,78.2791882 43.3180823,74 48.6439407,74 L111,74 Z" fill="#1C1C1C" transform="translate(29.75 27)"/>
    <g transform="translate(68.75 101)">
      <mask id="e29298kv9__3ego6mcnih" fill="#fff">
        <use xlink:href="#e29298kv9__wv65zf7i7e"/>
      </mask>
      <use fill="#1C1C1C" xlink:href="#e29298kv9__wv65zf7i7e"/>
      <path fill="url(#e29298kv9__b7vf2jqd4f)" opacity=".42589751" filter="url(#e29298kv9__pogcbaop0g)" mask="url(#e29298kv9__3ego6mcnih)" d="M-16.25 -92A52.5 52.5 0 1 0 -16.25 13A52.5 52.5 0 1 0 -16.25 -92Z"/>
    </g>
    <path d="M111.5,73.75 L111.5,122.25 L102.5,122.25 L102.5,122.623859 C102.5,127.852839 98.139426,132.103709 92.7093615,132.246304 L92.4275592,132.25 L82,132.25 L82,122.25 L39,122.25 L39,83.5570752 C39,78.1406082 43.430515,73.75 48.8939407,73.75 L111.5,73.75 Z M111,74.25 L48.8939407,74.25 C43.7056497,74.25 39.5,78.4177683 39.5,83.5570752 L39.5,121.75 L82.5,121.75 L82.5,131.75 L92.4275592,131.75 C97.623903,131.75 101.849399,127.803708 101.996063,122.888105 L102,122.623859 L102,121.75 L111,121.75 L111,74.25 Z" fill="#226FD4" transform="translate(29.75 27)"/>
    <path d="M0.25,100.585708 C0.25,95.2920086 4.54808537,91 9.85077061,91 L72.5785198,91 L76.7657841,121.999474 L63.25,131.987 L63.25,134.42312 C63.25,139.71261 58.9206575,144 53.5809111,144 L1.5622479,144 C0.837513398,144 0.25,143.418089 0.25,142.700266 L0.25,100.585708 Z" fill="#1C1C1C" transform="translate(29.75 27)"/>
    <path d="M72.7970213,90.75 L72.8262699,90.9665351 L77.0135342,121.966009 L77.0333371,122.112616 L76.9143588,122.200535 L63.5,132.113 L63.5,134.42312 C63.5,139.758995 59.2077108,144.100586 53.8585193,144.246225 L53.5809111,144.25 L1.5622479,144.25 C0.699975617,144.25 0,143.5567 0,142.700266 L0,100.585708 C0,95.153622 4.41032983,90.75 9.85077061,90.75 L72.7970213,90.75 Z M72.359,91.25 L9.85077061,91.25 C4.68630198,91.25 0.5,95.4299349 0.5,100.585708 L0.5,142.700266 C0.5,143.279479 0.975051179,143.75 1.5622479,143.75 L53.5809111,143.75 C58.7833546,143.75 63,139.573767 63,134.42312 L63,131.860887 L63.1014253,131.785939 L76.498,121.886 L72.359,91.25 Z" fill="#226FD4" transform="translate(29.75 27)"/>
    <path d="M82.25,132 L63.25,132 L63.25,100.436667 C63.25,95.2246667 67.5031704,91 72.7496644,91 C77.9968296,91 82.25,95.2246667 82.25,100.436667 L82.25,122 L82.2833521,121.999474 C82.7005668,127.500798 86.9811952,131.847783 92.2501847,131.996088 L82.25,132 Z" fill="#0C0C0C" transform="translate(29.75 27)"/>
    <path d="M72.7496644,90.75 C78.1345259,90.75 82.5,95.0862178 82.5,100.436667 L82.5,121.745 L82.5148313,121.745795 L82.5326363,121.980569 C82.9419209,127.377328 87.1383848,131.602109 92.2572186,131.746187 L92.2502825,132.246088 L82.2500978,132.25 L63,132.25 L63,100.436667 C63,95.0863236 67.3653676,90.75 72.7496644,90.75 Z M72.7496644,91.25 C67.6407656,91.25 63.5,95.3632159 63.5,100.436667 L63.5,131.75 L82.2499022,131.75 L89.396,131.747 L89.2590028,131.702314 C85.3977722,130.369139 82.5076219,126.737702 82.0602572,122.314422 L82.055,122.252 L82,122.253971 L82,100.436667 C82,95.3631156 77.8591334,91.25 72.7496644,91.25 Z" fill="#226FD4" fill-rule="nonzero" transform="translate(29.75 27)"/>
    <path d="M102.25,122 L102.25,83.405576 C102.25,78.2114123 106.279813,74 111.25,74 C116.220187,74 120.25,78.2114123 120.25,83.405576 L120.25,112 C120.25,117.522847 124.727153,122 130.25,122 L102.25,122 Z" fill="#0C0C0C" transform="translate(29.75 27)"/>
    <path d="M102,122.25 L102,83.405576 C102,78.0757461 106.139216,73.75 111.25,73.75 C116.360784,73.75 120.5,78.0757461 120.5,83.405576 L120.5,112 C120.5,117.384776 124.865224,121.75 130.25,121.75 L130.25,122.25 L102,122.25 Z M111.25,74.25 C106.420409,74.25 102.5,78.3470785 102.5,83.405576 L102.5,121.75 L127.083,121.75 L127.010207,121.727448 C123.02187,120.399743 120.122869,116.687771 120.003808,112.282136 L120,112 L120,83.405576 C120,78.3470785 116.079591,74.25 111.25,74.25 Z" fill="#226FD4" transform="translate(29.75 27)"/>
    <g transform="rotate(-52 115.58974959 -77.45568949)" fill="url(#e29298kv9__drd4nfbu1i)" opacity=".40680804">
      <path d="M24.9943452,10.6417127 L25.7271777,22.9011647 L1.4937009,14.9432933 L24.9943452,10.6417127 Z M9.51469001,5.11666139e-13 L14.581798,5.54512894 L-7.09598364e-13,11.0902602 L9.51469001,5.11666139e-13 Z"/>
    </g>
    <path d="M57.9280924,125.889044 L71.7059891,125.889044 C72.3326255,125.885799 72.8382562,125.374638 72.8350305,124.747182 C72.8323139,124.123513 72.328844,123.621007 71.7059891,123.61668 L57.9280924,123.61668 C57.301456,123.621007 56.7963655,124.131085 56.7990557,124.758541 C56.8017675,125.380047 57.3057776,125.885799 57.9280924,125.889044 Z M53.732978,123.61668 C54.355833,123.621007 54.8593029,124.123513 54.8625549,124.747182 C54.8652451,125.374638 54.3596144,125.885799 53.732978,125.889044 L36.4815711,125.889044 C35.8592564,125.885799 35.3552463,125.380047 35.3525345,124.758541 C35.3498443,124.131085 35.8549348,123.621007 36.4815711,123.61668 Z M36.4815711,142.924529 L53.732978,142.924529 C54.3596144,142.920202 54.8652451,142.411205 54.8625549,141.783749 C54.8593029,141.16008 54.355833,140.65541 53.732978,140.653246 L36.4815711,140.653246 C35.8549348,140.65541 35.3498443,141.16657 35.3525345,141.792945 C35.3552463,142.417696 35.8592564,142.920202 36.4815711,142.924529 Z M81.6782044,132.1338 L36.4815171,132.1338 C35.855421,132.138127 35.3497903,132.648206 35.353016,133.275662 C35.3562727,133.899332 35.8597426,134.402919 36.4815171,134.406165 L81.6782044,134.406165 C82.3048408,134.402919 82.8099313,133.891759 82.8067056,133.264303 C82.8034489,132.640633 82.299979,132.138127 81.6782044,132.1338 Z M71.7063132,148.601762 C72.331329,148.603926 72.8364195,149.112381 72.8348028,149.737674 C72.8364195,150.362966 72.331329,150.872504 71.7063132,150.874667 L67.0259879,150.874667 C66.4036732,150.87034 65.9007435,150.367293 65.8974867,149.744165 C65.894261,149.116709 66.3993515,148.605007 67.0259879,148.601762 Z M36.4815711,150.874451 L60.7496846,150.874451 C61.376321,150.870124 61.8814115,150.360045 61.8781858,149.732589 C61.874929,149.10892 61.3714591,148.605332 60.7496846,148.602087 L36.4815711,148.602087 C35.8549348,148.605332 35.3498443,149.116492 35.35307,149.743948 C35.3563267,150.367618 35.8597966,150.870124 36.4815711,150.874451 Z M77.4815711,106.924529 L120.620434,106.924529 C121.24707,106.920202 121.752701,106.411205 121.750104,105.783749 C121.746759,105.16008 121.243289,104.65541 120.620434,104.653246 L77.4815711,104.653246 C76.8549348,104.65541 76.3498443,105.16657 76.352213,105.792945 C76.3552463,106.417696 76.8592564,106.920202 77.4815711,106.924529 Z M106.586889,88.9245291 L146.433834,88.9245291 C147.118924,88.9202018 147.671721,88.4112052 147.668791,87.7837491 C147.665224,87.1600795 147.11479,86.6554101 146.433834,86.6532465 L106.586889,86.6532465 C105.901799,86.6554101 105.349593,87.1665704 105.352138,87.7929446 C105.355499,88.4176961 105.906524,88.9202018 106.586889,88.9245291 Z M77.4815711,112.874451 L101.749685,112.874451 C102.376321,112.870124 102.881411,112.360045 102.878186,111.732589 C102.874929,111.10892 102.371459,110.605332 101.749685,110.602087 L77.4815711,110.602087 C76.8549348,110.605332 76.3498443,111.116492 76.35307,111.743948 C76.3563267,112.367618 76.8597966,112.870124 77.4815711,112.874451 Z M106.586889,94.8744509 L133.118765,94.8744509 C133.803855,94.8701237 134.356061,94.3600452 134.352535,93.7325892 C134.348974,93.1089195 133.79854,92.605332 133.118765,92.6020865 L106.586889,92.6020865 C105.901799,92.605332 105.349593,93.1164923 105.35312,93.7439483 C105.35668,94.3676179 105.907115,94.8701237 106.586889,94.8744509 Z M138.586889,94.8744509 L156.857616,94.8744509 C157.542706,94.8701237 158.094912,94.3600452 158.091402,93.7325892 C158.087825,93.1089195 157.537391,92.605332 156.857616,92.6020865 L138.586889,92.6020865 C137.901799,92.605332 137.349593,93.1164923 137.35307,93.7439483 C137.35668,94.3676179 137.907115,94.8701237 138.586889,94.8744509 Z M53.7331941,165.638545 L36.4817872,165.638545 C35.8551509,165.640709 35.3495202,166.150787 35.3522104,166.778243 C35.3554624,167.401913 35.8589323,167.907664 36.4817872,167.908746 L53.7331941,167.908746 C54.3598305,167.907664 54.864921,167.396504 54.8622307,166.769048 C54.8595189,166.145378 54.3555088,165.640709 53.7331941,165.638545 M77.7910603,157.121317 L68.6475715,157.121317 C68.0214754,157.12348 67.5158447,157.633559 67.5185349,158.261015 C67.5212467,158.884684 68.0252568,159.388272 68.6475715,159.391517 L77.7910603,159.391517 C78.4176966,159.388272 78.9227871,158.879275 78.9200969,158.251819 C78.9173851,157.62815 78.413375,157.12348 77.7910603,157.121317 Z M62.4137282,157.121317 L36.8826184,157.121317 C36.2565223,157.12348 35.7508915,157.633559 35.7535818,158.261015 C35.7562936,158.884684 36.2603037,159.388272 36.8826184,159.391517 L62.4137282,159.391517 C63.0403646,159.388272 63.5454551,158.879275 63.5427649,158.251819 C63.5400531,157.62815 63.036043,157.12348 62.4137282,157.121317 Z" fill="url(#e29298kv9__biecrpobzj)" opacity=".10279483"/>
  </g>
</svg>
