<svg xmlns="http://www.w3.org/2000/svg" xmlns:xlink="http://www.w3.org/1999/xlink" viewBox="0 0 200 200" class="design-iconfont">
  <defs>
    <linearGradient x1="50%" y1="0%" x2="50%" y2="100%" id="1nqkru65h__pik2pp8hqa">
      <stop stop-color="#48C2F7" offset="0%"/>
      <stop stop-color="#0268CB" offset="100%"/>
    </linearGradient>
    <linearGradient x1="50%" y1=".75939685%" x2="50%" y2="89.9456991%" id="1nqkru65h__65faz9ufkb">
      <stop stop-color="#1C2A2D" offset="0%"/>
      <stop stop-color="#1D2123" offset="100%"/>
    </linearGradient>
    <linearGradient x1="50%" y1="0%" x2="50%" y2="100%" id="1nqkru65h__s84d7x0xsd">
      <stop stop-color="#5EAFFF" offset="0%"/>
      <stop stop-color="#12D1EE" offset="100%"/>
    </linearGradient>
    <linearGradient x1="50%" y1=".75939685%" x2="50%" y2="89.9456991%" id="1nqkru65h__3ozm0zvq6j">
      <stop stop-color="#1C2A2D" offset="0%"/>
      <stop stop-color="#1D2123" offset="100%"/>
    </linearGradient>
    <linearGradient x1="50%" y1=".75939685%" x2="50%" y2="89.9456991%" id="1nqkru65h__2axpyoiaun">
      <stop stop-color="#1C2A2D" offset="0%"/>
      <stop stop-color="#1D2123" offset="100%"/>
    </linearGradient>
    <filter x="-77.1%" y="-77.1%" width="254.3%" height="254.3%" filterUnits="objectBoundingBox" id="1nqkru65h__v6b36exgre">
      <feGaussianBlur stdDeviation="27" in="SourceGraphic"/>
    </filter>
    <filter x="-77.1%" y="-77.1%" width="254.3%" height="254.3%" filterUnits="objectBoundingBox" id="1nqkru65h__un4vwi89ah">
      <feGaussianBlur stdDeviation="27" in="SourceGraphic"/>
    </filter>
    <filter x="-96.4%" y="-96.4%" width="292.9%" height="292.9%" filterUnits="objectBoundingBox" id="1nqkru65h__pv2yu69kul">
      <feGaussianBlur stdDeviation="27" in="SourceGraphic"/>
    </filter>
    <path d="M38.1609403,0 L38.1566908,37.4681213 L47,37.4723718 L47,48.4386512 L38.1566908,48.4344007 L38.1609403,60 L26.1092224,60 L26.1092224,48.574667 L0,48.574667 L0,38.5349957 L0.112504213,38.0590863 L18.8785078,0.586714486 L19.1723319,0 L38.1609403,0 Z M26.1092224,13.3338056 L13.6835443,37.4681213 L26.1092224,37.4681213 L26.1092224,13.3338056 Z" id="1nqkru65h__9f0gx0ijmc"/>
    <path d="M38.1609403,0 L38.1566908,37.4681213 L47,37.4723718 L47,48.4386512 L38.1566908,48.4344007 L38.1609403,60 L26.1092224,60 L26.1092224,48.574667 L0,48.574667 L0,38.5349957 L0.112504213,38.0590863 L18.8785078,0.586714486 L19.1723319,0 L38.1609403,0 Z M26.1092224,13.3338056 L13.6835443,37.4681213 L26.1092224,37.4681213 L26.1092224,13.3338056 Z" id="1nqkru65h__dh9vcr1s8g"/>
    <path d="M0,32.5346565 C0,14.5648495 14.5919647,0 32.5952259,0 C50.598487,0 65.1904517,14.5648495 65.1904517,32.5346565" id="1nqkru65h__krp0loobmk"/>
  </defs>
  <g fill="none" fill-rule="evenodd">
    <path d="M61.4402173,100.395306 C61.4438187,100.425957 61.4456194,100.454205 61.449821,100.482452 C64.0259927,120.281575 91.6072733,116.75 126.311912,116.5 C161.01655,116.25 179.017365,106.794876 178.947739,87.9982412 C192.008665,81.8486914 200.172344,71.9037539 198.86265,61.8422202 C198.031337,55.4510638 193.515233,50.0876371 186.69246,46.3595627 C190.240398,40.8753326 191.880817,34.9601774 191.107125,29.0143705 C188.530353,9.21524825 160.18106,-3.41080158 127.786242,0.814910358 C107.245894,3.49602271 90.0145951,12.3086545 80.8089229,23.4459988 C72.890136,22.2217384 64.1910549,22.0913189 55.1780554,23.2674984 C22.7838369,27.4944124 -1.38848042,46.9707914 1.18829149,66.7729187 C3.0670001,81.2086142 18.6458762,91.8272856 39.5025429,94.8852321 C45.4081704,98.0687901 53.0112381,100.034699 61.4402173,100.395306 Z" fill="url(#1nqkru65h__pik2pp8hqa)" opacity=".15264602" transform="translate(0 49)"/>
    <path fill="#226FD4" fill-rule="nonzero" d="M0 116H200V117H0z" transform="translate(0 49)"/>
    <path d="M38.4109403,0.25 L38.4066908,37.7181213 L47.25,37.7223718 L47.25,48.6886512 L38.4066908,48.6844007 L38.4109403,60.25 L26.3592224,60.25 L26.3592224,48.824667 L0.25,48.824667 L0.25,38.7849957 L0.362504213,38.3090863 L19.1285078,0.836714486 L19.4223319,0.25 L38.4109403,0.25 Z M26.3592224,13.5838056 L13.9335443,37.7181213 L26.3592224,37.7181213 L26.3592224,13.5838056 Z" fill="url(#1nqkru65h__65faz9ufkb)" transform="translate(17.75 104.75)"/>
    <g transform="translate(18 105)">
      <mask id="1nqkru65h__keaqg46h6f" fill="#fff">
        <use xlink:href="#1nqkru65h__9f0gx0ijmc"/>
      </mask>
      <use fill="url(#1nqkru65h__65faz9ufkb)" xlink:href="#1nqkru65h__9f0gx0ijmc"/>
      <path fill="url(#1nqkru65h__s84d7x0xsd)" opacity=".31717355" filter="url(#1nqkru65h__v6b36exgre)" mask="url(#1nqkru65h__keaqg46h6f)" d="M82.5 -59A52.5 52.5 0 1 0 82.5 46A52.5 52.5 0 1 0 82.5 -59Z"/>
    </g>
    <path d="M38.4109403,0 C38.5490226,0 38.660956,0.111946095 38.6609403,0.250028354 L38.656,37.468 L47.2501202,37.4723718 C47.3684267,37.4724287 47.4675072,37.5546559 47.4934015,37.6650673 L47.5,37.7223718 L47.5,48.6886512 C47.5,48.8267693 47.3879979,48.9387175 47.2498798,48.9386511 L38.656,48.934 L38.6609403,60.2499081 C38.6609838,60.3682856 38.5787457,60.4674712 38.468277,60.4933941 L38.4109403,60.5 L26.3592224,60.5 C26.2211512,60.5 26.1092224,60.3880712 26.1092224,60.25 L26.109,49.074 L0.25,49.074667 C0.131653268,49.074667 0.0325131786,48.9924336 0.00660267821,48.8819898 L0,48.824667 L0.00670573706,38.7274814 L0.13896861,38.1971406 L18.9049722,0.724768812 L19.1987963,0.138054325 C19.2411726,0.0534365268 19.3276962,0 19.4223319,0 L38.4109403,0 Z M38.16,0.5 L19.576,0.5 L19.3520434,0.948660161 L0.605798476,38.3666006 L0.5,38.7849957 L0.5,48.574 L26.3592224,48.574667 C26.4775692,48.574667 26.5767092,48.6569005 26.6026197,48.7673443 L26.6092224,48.824667 L26.609,60 L38.16,60 L38.1566908,48.6844925 C38.1566473,48.5660748 38.2389392,48.4668692 38.3494528,48.4409832 L38.4068109,48.4344007 L47,48.438 L47,37.972 L38.4065706,37.9681213 C38.2882546,37.9680644 38.1891694,37.8858244 38.1632838,37.7754024 L38.1566908,37.7180929 L38.16,0.5 Z M26.136952,13.4693685 C26.2569776,13.2362435 26.6092224,13.3215968 26.6092224,13.5838056 L26.6092224,37.7181213 C26.6092224,37.8561925 26.4972936,37.9681213 26.3592224,37.9681213 L13.9335443,37.9681213 C13.7464062,37.9681213 13.6256117,37.7700653 13.7112739,37.6036842 L26.136952,13.4693685 Z M26.109,14.615 L14.342,37.468 L26.109,37.468 L26.109,14.615 Z" fill="#226FD4" fill-rule="nonzero" transform="translate(17.75 104.75)"/>
    <g>
      <path d="M38.4109403,0.25 L38.4066908,37.7181213 L47.25,37.7223718 L47.25,48.6886512 L38.4066908,48.6844007 L38.4109403,60.25 L26.3592224,60.25 L26.3592224,48.824667 L0.25,48.824667 L0.25,38.7849957 L0.362504213,38.3090863 L19.1285078,0.836714486 L19.4223319,0.25 L38.4109403,0.25 Z M26.3592224,13.5838056 L13.9335443,37.7181213 L26.3592224,37.7181213 L26.3592224,13.5838056 Z" fill="url(#1nqkru65h__65faz9ufkb)" transform="translate(134.75 104.75)"/>
      <g transform="translate(135 105)">
        <mask id="1nqkru65h__wt8cq6s4gi" fill="#fff">
          <use xlink:href="#1nqkru65h__dh9vcr1s8g"/>
        </mask>
        <use fill="url(#1nqkru65h__65faz9ufkb)" xlink:href="#1nqkru65h__dh9vcr1s8g"/>
        <path fill="url(#1nqkru65h__s84d7x0xsd)" opacity=".31717355" filter="url(#1nqkru65h__un4vwi89ah)" mask="url(#1nqkru65h__wt8cq6s4gi)" d="M82.5 -59A52.5 52.5 0 1 0 82.5 46A52.5 52.5 0 1 0 82.5 -59Z"/>
      </g>
      <path d="M38.4109403,0 C38.5490226,0 38.660956,0.111946095 38.6609403,0.250028354 L38.656,37.468 L47.2501202,37.4723718 C47.3684267,37.4724287 47.4675072,37.5546559 47.4934015,37.6650673 L47.5,37.7223718 L47.5,48.6886512 C47.5,48.8267693 47.3879979,48.9387175 47.2498798,48.9386511 L38.656,48.934 L38.6609403,60.2499081 C38.6609838,60.3682856 38.5787457,60.4674712 38.468277,60.4933941 L38.4109403,60.5 L26.3592224,60.5 C26.2211512,60.5 26.1092224,60.3880712 26.1092224,60.25 L26.109,49.074 L0.25,49.074667 C0.131653268,49.074667 0.0325131786,48.9924336 0.00660267821,48.8819898 L0,48.824667 L0.00670573706,38.7274814 L0.13896861,38.1971406 L18.9049722,0.724768812 L19.1987963,0.138054325 C19.2411726,0.0534365268 19.3276962,0 19.4223319,0 L38.4109403,0 Z M38.16,0.5 L19.576,0.5 L19.3520434,0.948660161 L0.605798476,38.3666006 L0.5,38.7849957 L0.5,48.574 L26.3592224,48.574667 C26.4775692,48.574667 26.5767092,48.6569005 26.6026197,48.7673443 L26.6092224,48.824667 L26.609,60 L38.16,60 L38.1566908,48.6844925 C38.1566473,48.5660748 38.2389392,48.4668692 38.3494528,48.4409832 L38.4068109,48.4344007 L47,48.438 L47,37.972 L38.4065706,37.9681213 C38.2882546,37.9680644 38.1891694,37.8858244 38.1632838,37.7754024 L38.1566908,37.7180929 L38.16,0.5 Z M26.136952,13.4693685 C26.2569776,13.2362435 26.6092224,13.3215968 26.6092224,13.5838056 L26.6092224,37.7181213 C26.6092224,37.8561925 26.4972936,37.9681213 26.3592224,37.9681213 L13.9335443,37.9681213 C13.7464062,37.9681213 13.6256117,37.7700653 13.7112739,37.6036842 L26.136952,13.4693685 Z M26.109,14.615 L14.342,37.468 L26.109,37.468 L26.109,14.615 Z" fill="#226FD4" fill-rule="nonzero" transform="translate(134.75 104.75)"/>
    </g>
    <g>
      <path d="M15.7010944,52.1238184 C15.7010944,34.1540114 30.2930591,19.5891619 48.2963202,19.5891619 C66.2995813,19.5891619 80.8915461,34.1540114 80.8915461,52.1238184" fill="url(#1nqkru65h__3ozm0zvq6j)" transform="translate(52 21)"/>
      <g transform="translate(67.701094 40.589162)">
        <mask id="1nqkru65h__1z2x4u4jkm" fill="#fff">
          <use xlink:href="#1nqkru65h__krp0loobmk"/>
        </mask>
        <use fill="url(#1nqkru65h__3ozm0zvq6j)" xlink:href="#1nqkru65h__krp0loobmk"/>
        <path fill="url(#1nqkru65h__s84d7x0xsd)" opacity=".55440848" filter="url(#1nqkru65h__pv2yu69kul)" mask="url(#1nqkru65h__1z2x4u4jkm)" d="M56.2989056 -38.5891619A42 42 0 1 0 56.2989056 45.4108381A42 42 0 1 0 56.2989056 -38.5891619Z"/>
      </g>
      <path d="M48.2963202,19.2899493 C66.4650618,19.2899493 81.1912156,33.9887385 81.1912156,52.1238184 L80.5918766,52.1238184 C80.5918766,34.3192844 66.1341009,19.8883745 48.2963202,19.8883745 C30.4585396,19.8883745 16.0007639,34.3192844 16.0007639,52.1238184 L15.4014249,52.1238184 C15.4014249,33.9887385 30.1275787,19.2899493 48.2963202,19.2899493 Z" fill="#226FD4" fill-rule="nonzero" transform="translate(52 21)"/>
      <path d="M14.7543151,51.7637795 C6.78257804,51.7637795 0.299669482,58.2346414 0.299669482,66.1915651 C0.299669482,74.1484888 6.78257804,80.6193507 14.7543151,80.6193507 L81.2456849,80.6193507 C89.217422,80.6193507 95.7003305,74.1484888 95.7003305,66.1915651 C95.7003305,58.2346414 89.217422,51.7637795 81.2456849,51.7637795 L14.7543151,51.7637795 Z" fill="#5EAFFF" fill-rule="nonzero" transform="translate(52 21)"/>
      <path d="M81.2456849,51.4645669 C89.3829024,51.4645669 96,58.0693684 96,66.1915651 C96,74.3137618 89.3829024,80.9185633 81.2456849,80.9185633 L14.7543151,80.9185633 C6.61709757,80.9185633 0,74.3137618 0,66.1915651 C0,58.0693684 6.61709757,51.4645669 14.7543151,51.4645669 L81.2456849,51.4645669 Z M81.2456849,52.0629921 L14.7543151,52.0629921 C6.94805851,52.0629921 0.599338964,58.3999143 0.599338964,66.1915651 C0.599338964,73.9832159 6.94805851,80.3201381 14.7543151,80.3201381 L81.2456849,80.3201381 C89.0519415,80.3201381 95.400661,73.9832159 95.400661,66.1915651 C95.400661,58.3999143 89.0519415,52.0629921 81.2456849,52.0629921 Z" fill="#226FD4" fill-rule="nonzero" transform="translate(52 21)"/>
      <path d="M20.6243114,59.6990616 C16.9909854,59.6990616 14.0315828,62.6539522 14.0315828,66.2817388 C14.0315828,69.9095253 16.9909854,72.8644159 20.6243114,72.8644159 C24.2576374,72.8644159 27.21704,69.9095253 27.21704,66.2817388 C27.21704,62.6539522 24.2576374,59.6990616 20.6243114,59.6990616 Z M48.599339,59.6990616 C44.966013,59.6990616 42.0066104,62.6539522 42.0066104,66.2817388 C42.0066104,69.9095253 44.966013,72.8644159 48.599339,72.8644159 C52.232665,72.8644159 55.1920676,69.9095253 55.1920676,66.2817388 C55.1920676,62.6539522 52.232665,59.6990616 48.599339,59.6990616 Z M77.3676093,59.6990616 C73.7342833,59.6990616 70.7748806,62.6539522 70.7748806,66.2817388 C70.7748806,69.9095253 73.7342833,72.8644159 77.3676093,72.8644159 C81.0009352,72.8644159 83.9603379,69.9095253 83.9603379,66.2817388 C83.9603379,62.6539522 81.0009352,59.6990616 77.3676093,59.6990616 Z" fill="#226FD4" opacity=".40176246" transform="translate(52 21)"/>
      <path d="M48,13.2842196 C44.4152479,13.2842196 41.4954095,10.3698069 41.4954095,6.7917161 C41.4954095,3.21362528 44.4152479,0.299212598 48,0.299212598 C51.5847521,0.299212598 54.5045905,3.21362528 54.5045905,6.7917161 C54.5045905,10.3698069 51.5847521,13.2842196 48,13.2842196 Z" fill="url(#1nqkru65h__2axpyoiaun)" transform="translate(52 21)"/>
      <path d="M48,0 C51.7502326,0 54.80426,3.04835234 54.80426,6.7917161 C54.80426,10.5350799 51.7502326,13.5834322 48,13.5834322 C44.2497674,13.5834322 41.19574,10.5350799 41.19574,6.7917161 C41.19574,3.04835234 44.2497674,0 48,0 Z M48,0.598425197 C44.5807284,0.598425197 41.795079,3.37889823 41.795079,6.7917161 C41.795079,10.204534 44.5807284,12.985007 48,12.985007 C51.4192716,12.985007 54.204921,10.204534 54.204921,6.7917161 C54.204921,3.37889823 51.4192716,0.598425197 48,0.598425197 Z" fill="#226FD4" transform="translate(52 21)"/>
      <path d="M43.4921045,29.8938645 L43.6182884,30.4788763 C37.5042895,31.7936151 32.2269105,35.6639787 29.0996081,41.0490917 L28.5811264,40.7489107 C31.792639,35.2187906 37.2119557,31.2443317 43.4921045,29.8938645 Z" stroke="#1351AD" stroke-width="1.2" transform="translate(52 21)"/>
      <path fill="#226FD4" d="M48 13.4645669H49V19.44881887H48z" transform="translate(52 21)"/>
      <g fill="#87C7FF" fill-rule="nonzero" opacity=".28">
        <path d="M10.697336,3.13009567 L0.10279906,57.6792916 C-0.46568829,60.2560668 1.39481577,62.6948004 3.92716851,62.6948004 L60.0523742,62.6948004 C62.5330463,62.6948004 64.3935503,60.3480944 63.9284243,57.863347 L55.246072,3.31415104 C54.8843074,1.38156968 53.2822067,0.00115442595 51.3700219,0.00115442595 L14.5733862,0.00115442595 C12.7128821,-0.0448594159 11.1107814,1.289542 10.697336,3.13009567 Z" transform="translate(68 98.3052)"/>
      </g>
    </g>
    <g fill-rule="nonzero">
      <path d="M30.3066519,1.4283871 C13.5748545,1.4283871 0,4.94709677 0,9.23225806 C0,13.5522581 13.5748545,17.0709677 30.3066519,17.0709677 C45.2144379,17.0709677 57.6317467,14.283871 60.157301,10.6258065 C60.157301,10.6258065 60.157301,10.6258065 60.157301,10.6258065 C60.4729953,10.1729032 60.6133039,9.72 60.6133039,9.26709677 C60.6133039,4.94709677 47.0384493,1.4283871 30.3066519,1.4283871 Z M30.3066519,10.3470968 C20.6604375,10.3470968 12.8733116,9.19741935 12.8733116,7.76903226 C12.8733116,7.76903226 12.8733116,7.73419355 12.8733116,7.66451613 C12.8733116,7.62967742 12.8733116,7.62967742 12.9083888,7.59483871 C12.9083888,7.59483871 12.9083888,7.56 12.9434659,7.56 C13.6099317,6.23612903 21.1515175,5.19096774 30.3066519,5.19096774 C39.1460921,5.19096774 46.4421379,6.16645161 47.5646065,7.42064516 C47.6698379,7.52516129 47.7050326,7.62967742 47.7050326,7.73419355 C47.7050326,7.73419355 47.7050326,7.76903226 47.7050326,7.76903226 C47.7399922,9.19741935 39.9177892,10.3470968 30.3066519,10.3470968 Z" fill="#226FD4" transform="translate(70 149)"/>
      <path d="M30.3066519,0 C13.5748545,0 0,3.51870968 0,7.80387097 C0,12.123871 13.5748545,15.6425806 30.3066519,15.6425806 C45.2144379,15.6425806 57.6317467,12.8554839 60.157301,9.19741935 C60.157301,9.19741935 60.157301,9.19741935 60.157301,9.19741935 C60.4729953,8.74451613 60.6133039,8.2916129 60.6133039,7.83870968 C60.6133039,3.51870968 47.0384493,0 30.3066519,0 Z M30.3066519,8.91870968 C20.6604375,8.91870968 12.8733116,7.76903226 12.8733116,6.34064516 C12.8733116,6.34064516 12.8733116,6.30580645 12.8733116,6.23612903 C12.8733116,6.20129032 12.8733116,6.20129032 12.9083888,6.16645161 C12.9083888,6.16645161 12.9083888,6.1316129 12.9434659,6.1316129 C13.6099317,4.80774194 21.1515175,3.76258065 30.3066519,3.76258065 C39.1460921,3.76258065 46.4421379,4.73806452 47.5646065,5.99225806 C47.6698379,6.09677419 47.7050326,6.20129032 47.7050326,6.30580645 C47.7050326,6.30580645 47.7050326,6.34064516 47.7050326,6.34064516 C47.7399922,7.76903226 39.9177892,8.91870968 30.3066519,8.91870968 Z" fill="#5EAFFF" transform="translate(70 149)"/>
      <path d="M60.157301,9.19741935 C57.6317467,12.8554839 45.249515,15.6425806 30.3066519,15.6425806 C13.5748545,15.6425806 0,12.123871 0,7.80387097 C0,7.80387097 5.26157152,14.1096774 29.2543376,14.1096774 C49.879698,14.1445161 58.192981,10.2774194 60.157301,9.19741935 Z" fill="#226FD4" transform="translate(70 149)"/>
      <path d="M47.5646065,5.99225806 C46.4070608,4.73806452 39.1110149,3.76258065 30.3066519,3.76258065 C21.1164403,3.76258065 13.6099317,4.80774194 12.9434659,6.1316129 C13.2591602,5.36516129 15.3637888,2.71741935 30.3066519,2.71741935 C44.0568922,2.71741935 46.9682951,5.08645161 47.5646065,5.99225806 Z" fill="#40C776" transform="translate(70 149)"/>
    </g>
    <g>
      <path d="M23.7688062,29.2893814 C23.0936352,32.2892162 21.477184,34.9966134 19.1533342,37.0189043 C18.9827574,37.1656965 18.812641,37.3079013 18.6353884,37.4478126 C18.204918,37.4868042 17.7774401,37.526484 17.353185,37.5670812 C17.0009819,37.599192 16.6533827,37.6335964 16.3080856,37.6659365 L16.2459321,37.672588 L16.2021944,37.2964332 L16.0272439,35.7736943 C14.6522706,33.537408 14.3728101,30.7992761 15.2675901,28.332939 C15.8750829,26.6998766 16.9756601,25.2571852 18.057361,23.825962 C19.5515769,21.8490849 21.0038967,19.8946854 21.0570725,17.4840834 C21.7920951,18.4214887 22.403271,19.4490336 22.8756375,20.5414882 C22.429974,20.7504376 22.0294293,21.0442512 21.6970232,21.4061855 C21.602642,21.5093987 21.5082608,21.6538972 21.5727163,21.7777531 C21.6277336,21.8832599 21.7660827,21.9084898 21.8855555,21.9222516 C22.1733031,21.9520687 22.4635829,21.9818859 22.7513306,22.0119324 C22.9815287,22.0369329 23.2117268,22.0598692 23.4419249,22.0850991 C23.7202344,22.9961277 23.9092271,23.9316982 24.0056801,24.8789661 C24.1608336,26.3521627 24.0807246,27.840956 23.7688062,29.2893814" fill="#3491FA" transform="translate(82.755148 120.34146)"/>
      <path d="M30.4111992,23.2777851 C29.0532606,24.2617511 28.2588469,25.676919 27.6421462,27.2365853 C27.009792,27.4384245 26.4409725,27.8003588 25.9916257,28.2870664 C25.8972445,28.3902797 25.8026331,28.5347782 25.8673188,28.658634 C25.9223361,28.7641409 26.0606852,28.7893708 26.180158,28.8031325 C26.4679056,28.8329497 26.7581854,28.8629962 27.0459331,28.892584 C26.428772,30.7368894 25.8624846,32.6449577 24.7713456,34.2023304 C24.0457611,35.2305634 23.0998771,36.0853982 22.0022925,36.7046774 C21.7028048,36.8746352 21.393879,37.026932 21.076666,37.1611092 C19.9072596,37.2505607 18.7601824,37.3462049 17.6352043,37.4478126 C17.2047338,37.4868042 16.7772559,37.5267134 16.3530008,37.5670812 C16.0007977,37.599192 15.6534288,37.6335964 15.3081316,37.6657071 C15.3055994,37.539787 15.3055994,37.4134082 15.3081316,37.2872587 C15.3808742,33.9268658 16.621642,30.6956041 18.8186527,28.1448616 C18.9220117,28.025593 19.0279028,27.908618 19.1363261,27.7918724 C20.2491038,26.6072141 21.5580102,25.6218719 23.0057261,24.8787368 C25.2869893,23.6970602 27.8437997,23.144296 30.4111992,23.2777851" fill="#F7BA1E" transform="translate(82.755148 120.34146)"/>
      <path d="M14.7512896,35.3904276 L14.4865617,36.1702608 L14.3530468,36.5670582 C14.0008437,36.5993984 13.6532446,36.6335734 13.3079474,36.6659136 L13.2457939,36.6725651 C12.8636651,36.7115567 12.4838382,36.7507778 12.1040113,36.7897694 C12.0050261,36.6750881 11.906041,36.5578837 11.8093578,36.4386151 C6.80738308,30.4033945 7.63747746,21.4759102 13.6670565,16.4588306 C13.363195,18.0437268 13.7177001,19.5621079 14.3001013,21.0692502 C14.2379478,21.0942507 14.1780963,21.1194806 14.1205467,21.1470041 C13.6748832,21.3561829 13.2745687,21.6497671 12.9419324,22.0117015 C12.8475512,22.1149147 12.75317,22.2594132 12.8176255,22.383269 C12.872873,22.4887759 13.0109919,22.5140058 13.1306949,22.5277675 C13.4184425,22.5575847 13.7084921,22.5876312 13.9962398,22.6174484 C14.2264379,22.6424489 14.456636,22.6656145 14.6868341,22.6906151 C14.7950272,22.7023126 14.9032203,22.7135513 15.0114134,22.7250195 C15.0275273,22.7596532 15.0413392,22.7915346 15.057453,22.8261684 C15.7135177,24.2434005 16.4202258,25.6677429 16.8184686,27.1448386 C16.9183745,27.5154888 16.9966419,27.8916436 17.0532706,28.2710095 C17.4126099,30.8694595 16.5652506,33.4894696 14.7512896,35.3904276" fill="#F7BA1E" transform="translate(82.755148 120.34146)"/>
      <path d="M11.363177,29.4349579 L11.3037859,29.3019276 C11.3060879,29.2055952 11.3060879,29.1092629 11.3037859,29.010637 C11.3037859,28.9835722 11.2987215,28.956278 11.2987215,28.9292132 C11.3210507,29.0994003 11.3408478,29.2695874 11.365479,29.4400039 L11.363177,29.4349579 Z M20.8056731,31.1966928 C20.3254799,31.2187116 19.9184896,30.8487496 19.8963906,30.3705284 C19.8846505,30.1152477 19.9866283,29.8677654 20.1749303,29.6941378 C20.1970294,29.6072093 20.2126828,29.5448227 20.2347818,29.4578942 C20.2267249,29.4390865 20.2188982,29.4202787 20.2110714,29.4012416 C19.409982,27.49799 14.2982029,32.8036079 14.0774429,34.5919488 C13.9800691,35.3827914 14.0210443,36.1841847 14.1987573,36.9610361 C12.5429423,33.362106 11.6831524,29.450784 11.6776276,25.4922132 C11.6773974,24.4988433 11.732645,23.5059322 11.8436004,22.5187552 C11.9352193,21.7093342 12.0622886,20.9056473 12.2250387,20.1081532 C13.1124524,15.7791617 15.0178021,11.7217355 17.7845532,8.26913887 C19.366935,8.35721414 20.7536484,8.1170714 20.8876237,5.06127218 C20.9113341,4.51791195 21.3160224,4.04748906 21.4053392,3.51192716 C21.2540991,3.53142299 21.1005569,3.54380858 20.949547,3.55390053 C20.9023564,3.55619416 20.8528638,3.55894651 20.8059033,3.56124014 L20.7881781,3.56192823 C20.3123586,3.58325896 19.9095119,3.21627864 19.8883337,2.74241531 C19.8788956,2.53231908 19.9470342,2.32612201 20.0800887,2.16281577 C20.1452348,2.08276819 20.210611,2.00272061 20.2757571,1.92290239 C20.3749725,1.79950526 20.4764899,1.67840176 20.575475,1.55523399 C20.5869849,1.54353649 20.5978043,1.53115091 20.6077028,1.51807723 C20.7216508,1.3774779 20.8355989,1.23917219 20.949547,1.09857286 C20.7416781,0.77723572 20.4619874,0.50773455 20.1323437,0.311400081 C18.9905611,-0.354669192 17.4155456,0.106808555 16.5907458,1.13572962 C15.7638742,2.16465068 15.6077999,3.60803013 15.8950871,4.89360805 C16.1775402,5.98743875 16.6448424,7.02553432 17.2767362,7.96316903 C17.2148129,8.04229916 17.1505876,8.11867694 17.0886643,8.1975777 C15.9570104,9.64783804 14.9703813,11.204752 14.1437399,12.8463009 C14.3776212,11.0253904 11.5167191,4.44979123 10.410387,3.05710093 C9.08122315,1.38390005 6.35636816,2.11419088 6.12202648,4.23487838 C6.1199547,4.25552102 6.11765272,4.27616367 6.11558094,4.29634759 C6.27971219,4.38901011 6.44062066,4.48717735 6.59807617,4.59084929 C7.13996251,4.95140745 7.28590811,5.68169828 6.92380649,6.22184743 C6.7401084,6.49570649 6.44913799,6.68057282 6.12225668,6.73080325 L6.09808588,6.7342437 C3.89854297,9.86366834 10.9502016,18.0087964 12.7153607,16.1798583 C11.8845757,18.52578 11.363177,20.9691808 11.1649764,23.4488209 C11.0526397,24.9119255 11.0593155,26.3814524 11.1847735,27.8436395 L11.1774071,27.7918036 C10.7851495,24.6075612 4.05714946,19.8735152 2.09240862,20.2677897 C0.960524524,20.4948587 -0.154324909,20.4434815 0.0176330769,21.5808911 C0.0203954542,21.5990107 0.0231578315,21.6173598 0.0259202088,21.6354794 C0.330932701,21.7591059 0.627888259,21.9017695 0.914945299,22.062094 C1.07930675,22.1547566 1.24021522,22.2529238 1.39744053,22.3563664 C1.93955707,22.7171539 2.08527248,23.4476741 1.72317085,23.9875939 C1.53947276,24.2614529 1.24873255,24.4460899 0.921621044,24.4965497 L0.897680441,24.5 C0.880185385,24.5025131 0.865452706,24.5050361 0.848187848,24.5075591 C-0.153173919,27.9402012 7.27232643,33.4802278 11.7865113,31.7173461 L11.7890435,31.7173461 C12.2363184,33.6543141 12.8845563,35.5396755 13.723168,37.3433837 L20.6325642,37.3433837 C20.6574256,37.2667766 20.6795246,37.1878758 20.7018538,37.1114981 C20.0623635,37.1514072 19.4201107,37.113333 18.7900585,36.9979635 C19.3027097,36.3711153 19.8151307,35.7394504 20.3280121,35.1128315 C20.3392918,35.1009047 20.3501111,35.0885191 20.3600096,35.0756748 C20.6199033,34.7547963 20.8825593,34.4366703 21.1426832,34.1157919 L21.1426832,34.1153331 C21.1564951,33.1322846 21.0432376,32.1513004 20.8059033,31.1969222 L20.8056731,31.1966928 Z" fill="#5EAFFF" transform="translate(82.755148 120.34146)"/>
    </g>
  </g>
</svg>
