<svg xmlns="http://www.w3.org/2000/svg" xmlns:xlink="http://www.w3.org/1999/xlink" viewBox="0 0 200 200" class="design-iconfont">
  <defs>
    <linearGradient x1="50%" y1=".75939685%" x2="50%" y2="89.9456991%" id="7cnl33rj7__ek6l7uvwaa">
      <stop stop-color="#1C2A2D" offset="0%"/>
      <stop stop-color="#1D2123" offset="100%"/>
    </linearGradient>
    <linearGradient x1="50%" y1=".75939685%" x2="50%" y2="89.9456991%" id="7cnl33rj7__3s8plt9hpb">
      <stop stop-color="#1C2A2D" offset="0%"/>
      <stop stop-color="#1D2123" offset="100%"/>
    </linearGradient>
    <linearGradient x1="50%" y1="0%" x2="50%" y2="100%" id="7cnl33rj7__8l0iubb3od">
      <stop stop-color="#5EAFFF" offset="0%"/>
      <stop stop-color="#12D1EE" offset="100%"/>
    </linearGradient>
    <linearGradient x1="21.2630152%" y1="33.776512%" x2="100%" y2="66.4262409%" id="7cnl33rj7__vq0938ndqg">
      <stop stop-color="#18CBD8" offset="0%"/>
      <stop stop-color="#12D1EE" offset="100%"/>
    </linearGradient>
    <linearGradient x1="50%" y1="0%" x2="50%" y2="100%" id="7cnl33rj7__u157l1x0hi">
      <stop stop-color="#48C2F7" offset="0%"/>
      <stop stop-color="#0268CB" offset="100%"/>
    </linearGradient>
    <linearGradient x1="50%" y1="0%" x2="50%" y2="100%" id="7cnl33rj7__a1aqn7myrj">
      <stop stop-color="#48C2F7" offset="0%"/>
      <stop stop-color="#0268CB" offset="100%"/>
    </linearGradient>
    <linearGradient x1="50%" y1=".75939685%" x2="50%" y2="89.9456991%" id="7cnl33rj7__wxgrbmsgzk">
      <stop stop-color="#1C2A2D" offset="0%"/>
      <stop stop-color="#1D2123" offset="100%"/>
    </linearGradient>
    <filter x="-77.1%" y="-77.1%" width="254.3%" height="254.3%" filterUnits="objectBoundingBox" id="7cnl33rj7__98rbs1by4e">
      <feGaussianBlur stdDeviation="27" in="SourceGraphic"/>
    </filter>
    <filter x="-105.7%" y="-105.7%" width="311.4%" height="311.4%" filterUnits="objectBoundingBox" id="7cnl33rj7__1wajjuuijh">
      <feGaussianBlur stdDeviation="37" in="SourceGraphic"/>
    </filter>
    <path d="M125.525429,134.50074 L42.1406797,134.50074 C36.2629017,134.50074 31.1821105,130.406805 29.9866303,124.615385 L10.8589458,17.5739645 C9.76308892,11.283284 6.47551816,5.59171598 1.5939737,1.39792899 L0,0 L106.497368,0 C111.877029,1.29807692 116.06121,10.3846154 117.356314,17.3742604 L132.997181,118.524408 C134.192661,127.011834 133.893791,134.101331 125.525429,134.50074 L125.525429,134.50074 Z" id="7cnl33rj7__lyr0u6yitc"/>
  </defs>
  <g fill="none" fill-rule="evenodd">
    <path d="M116.359456,0 L142.099596,0 C146.688923,0 150.480106,3.4 151.078714,7.9 L158.77953,67.789868 C159.061268,69.9809679 157.513425,71.9855992 155.322325,72.2673373 C155.153151,72.2890902 154.982759,72.3 154.812193,72.3 L125.837415,72.3 L125.837415,72.3" stroke="#226FD4" stroke-width=".5" fill="url(#7cnl33rj7__ek6l7uvwaa)" transform="translate(22 61.9)"/>
    <path d="M11.2052832,107.496985 C6.44519102,107.496985 2.59660588,103.677889 2.59660588,98.9542714 L0.267199087,83.3763819 C-0.0366365819,81.1653266 -0.137915138,78.8537688 0.267199087,76.5422111 C1.07742754,71.4165829 3.50811289,68.1 9.48354771,68.1 L87.265479,68.1 L90,99.5572864 C89.8987214,104.280905 86.0501363,107.35 81.2900442,107.35 L11.2052832,107.496985 Z" fill="#3491FA" fill-rule="nonzero" transform="translate(22 61.9)"/>
    <g fill-rule="nonzero">
      <path d="M14.9111097,21.1499805 L45.5111097,20.9499805 L45.5111097,0.749980471 L5.51110967,0.249980471 C-0.38889033,0.249980471 0.11110967,6.04998047 0.41110967,12.0499805 C0.51110967,13.4499805 0.81110967,16.3499805 1.11110967,17.4499805 C2.01110967,20.4499805 3.41110967,21.0499805 6.51110967,21.1499805 L14.9111097,21.1499805 Z" fill="#5EAFFF" transform="translate(13.748347 34.4)"/>
      <path d="M5.51423443,0 L45.5142344,0.5 L45.7611097,0.503085941 L45.7611097,21.1983518 L45.5127436,21.1999751 L14.9127436,21.3999751 L6.50304935,21.3999751 C3.06583112,21.2889725 1.75268879,20.4586031 0.869918714,17.5157598 C0.608448955,16.5570374 0.2988682,13.9875171 0.161421585,12.0624649 C0.147704687,11.7900536 0.147704687,11.7900536 0.133796126,11.5180053 C-0.0899215811,7.14487121 -0.0640202542,5.41183697 0.45037633,3.63263086 C1.1418119,1.24107845 2.73371283,0 5.51423443,0 Z M5.51110967,0.499980471 C2.96002775,0.499980471 1.56126602,1.59050082 0.930704351,3.77150127 C0.438216453,5.47492915 0.412687,7.18308163 0.63314314,11.4924601 C0.64705827,11.7646364 0.64705827,11.7646364 0.660474345,12.0321687 C0.795280964,13.9194614 1.10225959,16.467384 1.35056624,17.3781435 C2.16390442,20.0892708 3.2809732,20.7956525 6.51110967,20.8999858 L14.9094757,20.8999858 L45.2606533,20.7019805 L45.2606533,0.995980471 L5.51110967,0.499980471 Z" fill="#052461" transform="translate(13.748347 34.4)"/>
    </g>
    <path d="M130.774987,134.75037 L47.390238,134.75037 C41.51246,134.75037 36.4316688,130.656435 35.2361885,124.865015 L16.1085041,17.8235947 C15.0126472,11.5329142 11.7250764,5.84134615 6.84353195,1.64755917 L5.24955825,0.249630178 L111.746926,0.249630178 C117.126587,1.5477071 121.310768,10.6342456 122.605872,17.6238905 L138.246739,118.774038 C139.442219,127.261464 139.143349,134.350962 130.774987,134.75037 L130.774987,134.75037 Z" fill="url(#7cnl33rj7__3s8plt9hpb)" transform="translate(13.748347 34.4)"/>
    <g transform="translate(18.997905 34.64963)">
      <mask id="7cnl33rj7__axzabwh8sf" fill="#fff">
        <use xlink:href="#7cnl33rj7__lyr0u6yitc"/>
      </mask>
      <use fill="url(#7cnl33rj7__3s8plt9hpb)" xlink:href="#7cnl33rj7__lyr0u6yitc"/>
      <path fill="url(#7cnl33rj7__8l0iubb3od)" opacity=".29427083" filter="url(#7cnl33rj7__98rbs1by4e)" mask="url(#7cnl33rj7__axzabwh8sf)" d="M81.5020951 -44.64963018A52.5 52.5 0 1 0 81.5020951 60.35036982A52.5 52.5 0 1 0 81.5020951 -44.64963018Z"/>
      <path fill="url(#7cnl33rj7__vq0938ndqg)" opacity=".10200428" filter="url(#7cnl33rj7__1wajjuuijh)" mask="url(#7cnl33rj7__axzabwh8sf)" d="M49.5020951 34.350369799999996A52.5 52.5 0 1 0 49.5020951 139.3503698A52.5 52.5 0 1 0 49.5020951 34.350369799999996Z"/>
    </g>
    <path d="M5.24955825,0 L111.805219,0.00693381839 C116.741348,1.19798915 121.302105,9.2203427 122.851992,17.585658 L138.493352,118.739143 C140.014701,129.540108 138.296163,134.641309 130.786834,135 L130.774987,135 L47.390238,135 C41.3779501,135 36.2084051,130.806949 34.9910312,124.909024 L15.8631575,17.8665313 C14.7817718,11.6589221 11.5396027,6.01078606 6.67952585,1.83542503 L5.08555215,0.437496031 C4.91248075,0.285710885 5.01958647,0 5.24955825,0 Z M7.005617,1.45802581 C11.950938,5.70660388 15.2524416,11.4581056 16.3536614,17.7795851 L35.4800815,124.814438 C36.6482066,130.473338 41.6135248,134.501022 47.390238,134.501022 L130.763141,134.501022 C137.866886,134.161972 139.485787,129.356527 138.000619,118.812271 L122.361001,17.6694711 C120.844833,9.4867501 116.374199,1.62292283 111.746926,0.499260355 L5.91205357,0.499260355 L7.005617,1.45802581 Z" fill="#226FD4" fill-rule="nonzero" transform="translate(13.748347 34.4)"/>
    <path d="M54.1797457,30.4890441 L67.9576424,30.4890441 C68.5842788,30.4857987 69.0899095,29.9746384 69.0866838,29.3471823 C69.0839673,28.7235127 68.5804974,28.221007 67.9576424,28.2166797 L54.1797457,28.2166797 C53.5531093,28.221007 53.0480188,28.7310854 53.050709,29.3585415 C53.0534208,29.9800475 53.5574309,30.4857987 54.1797457,30.4890441 Z M49.9846314,28.2166797 C50.6074863,28.221007 51.1109562,28.7235127 51.1142082,29.3471823 C51.1168984,29.9746384 50.6112677,30.4857987 49.9846314,30.4890441 L32.7332245,30.4890441 C32.1109097,30.4857987 31.6068996,29.9800475 31.6041878,29.3585415 C31.6014976,28.7310854 32.1065881,28.221007 32.7332245,28.2166797 Z M36.7332245,47.5245291 L49.9846314,47.5245291 C50.6112677,47.5202018 51.1168984,47.0112052 51.1142504,46.3837491 C51.1109562,45.7600795 50.6074863,45.2554101 49.9846314,45.2532465 L36.7332245,45.2532465 C36.1065881,45.2554101 35.6014976,45.7665704 35.6041878,46.3929446 C35.6068996,47.0176961 36.1109097,47.5202018 36.7332245,47.5245291 Z M100.36587,36.7338001 L84.1797451,36.7338001 C83.5536489,36.7381274 83.0480182,37.2482059 83.0512439,37.8756619 C83.0545007,38.4993316 83.5579706,39.0029191 84.1797451,39.0061646 L100.36587,39.0061646 C100.992507,39.0029191 101.497597,38.4917588 101.494371,37.8643028 C101.491115,37.2406331 100.987645,36.7381274 100.36587,36.7338001 Z M77.9298578,36.7338001 L34.7331704,36.7338001 C34.1070743,36.7381274 33.6014436,37.2482059 33.6046693,37.8756619 C33.607926,38.4993316 34.1113959,39.0029191 34.7331704,39.0061646 L77.9298578,39.0061646 C78.5564941,39.0029191 79.0615846,38.4917588 79.0583895,37.8643028 C79.0551022,37.2406331 78.5516323,36.7381274 77.9298578,36.7338001 Z M67.9579665,53.201762 C68.5829823,53.2039256 69.0880728,53.7123813 69.0864561,54.3376737 C69.0880728,54.9629661 68.5829823,55.4725037 67.9579665,55.4746673 L63.2776412,55.4746673 C62.6553265,55.47034 62.1523968,54.9672934 62.1491401,54.3441646 C62.1459144,53.7167086 62.6510049,53.2050074 63.2776412,53.201762 Z M38.7332245,55.4744509 L57.0013379,55.4744509 C57.6279743,55.4701237 58.1330648,54.9600452 58.1299291,54.3325892 C58.1265823,53.7089195 57.6231124,53.205332 57.0013379,53.2020865 L38.7332245,53.2020865 C38.1065881,53.205332 37.6014976,53.7164923 37.6047233,54.3439483 C37.60798,54.9676179 38.1114499,55.4701237 38.7332245,55.4744509 Z M60.9848474,70.2385451 L43.7334405,70.2385451 C43.1068042,70.2407088 42.6011735,70.7507872 42.6038637,71.3782433 C42.6071157,72.0019129 43.1105856,72.5076641 43.7334405,72.5087459 L60.9848474,72.5087459 C61.6114838,72.5076641 62.1165743,71.9965038 62.1138841,71.3690478 C62.1111723,70.7453781 61.6071622,70.2407088 60.9848474,70.2385451 M74.0427136,61.7213165 L64.8992248,61.7213165 C64.2731287,61.7234801 63.767498,62.2335586 63.7701882,62.8610146 C63.7729,63.4846843 64.2769101,63.9882718 64.8992248,63.9915173 L74.0427136,63.9915173 C74.6693499,63.9882718 75.1744405,63.4792752 75.1717502,62.8518192 C75.1690384,62.2281495 74.6650283,61.7234801 74.0427136,61.7213165 Z M58.6653816,61.7213165 L41.1342717,61.7213165 C40.5081756,61.7234801 40.0025449,62.2335586 40.0052351,62.8610146 C40.0079469,63.4846843 40.511957,63.9882718 41.1342717,63.9915173 L58.6653816,63.9915173 C59.2920179,63.9882718 59.7971084,63.4792752 59.7945014,62.8518192 C59.7917064,62.2281495 59.2876963,61.7234801 58.6653816,61.7213165 Z" fill="url(#7cnl33rj7__u157l1x0hi)" opacity=".10279483" transform="translate(13.748347 34.4)"/>
    <path d="M31.7516533,14.6 C33.0020827,14.6 34.1575274,13.9329039 34.7827422,12.8500001 C35.407957,11.7670963 35.407957,10.4329037 34.7827422,9.34999994 C34.1575274,8.26709614 33.0020827,7.6 31.7516533,7.6 C29.8186566,7.6 28.2516533,9.16700346 28.2516533,11.1 C28.2516533,13.0329965 29.8186566,14.6 31.7516533,14.6 L31.7516533,14.6 Z M43.7516533,14.6 C45.0020827,14.6 46.1575274,13.9329039 46.7827422,12.8500001 C47.407957,11.7670963 47.407957,10.4329037 46.7827422,9.34999994 C46.1575274,8.26709614 45.0020827,7.6 43.7516533,7.6 C41.8186566,7.6 40.2516533,9.16700346 40.2516533,11.1 C40.2516533,13.0329965 41.8186566,14.6 43.7516533,14.6 Z" fill="url(#7cnl33rj7__a1aqn7myrj)" opacity=".10279483" transform="translate(13.748347 34.4)"/>
    <g>
      <g fill-rule="nonzero">
        <path d="M18.180136,74.55 C12.980136,74.55 8.580136,70.45 7.780136,64.95 L0.380135998,13.45 C-0.619864002,6.55 4.280136,0.25 10.780136,0.25 L88.880136,0.25 C94.080136,0.25 98.480136,4.35 99.280136,9.85 L106.680136,61.35 C107.680136,68.35 102.680136,74.55 96.280136,74.55 L18.180136,74.55 Z" fill="#5EAFFF" transform="translate(63.97932 68.15)"/>
        <path d="M88.880136,0 C94.1934351,0 98.7078814,4.17891316 99.5275945,9.81444286 L106.927623,61.3146447 C107.94247,68.4185733 102.876802,74.8 96.280136,74.8 L18.180136,74.8 C12.8668369,74.8 8.35239057,70.6210868 7.53267754,64.9855571 L0.132720848,13.4858573 C-0.891712018,6.41727049 4.14337714,0 10.780136,0 L88.880136,0 Z M88.880136,0.5 L10.780136,0.5 C4.45997178,0.5 -0.354732225,6.63638746 0.627594459,13.4144429 L8.02753261,64.914015 C8.8124243,70.3101454 13.1226322,74.3 18.180136,74.3 L96.280136,74.3 C102.561821,74.3 107.405852,68.1977789 106.432678,61.3855571 L99.0327394,9.88598496 C98.2478477,4.48985458 93.9376398,0.5 88.880136,0.5 Z" fill="#226FD4" transform="translate(63.97932 68.15)"/>
      </g>
      <path d="M57.0206796,61.25 C70.2755675,61.25 81.0206796,50.5048879 81.0206796,37.25 C81.0206796,23.9951121 70.2755675,13.25 57.0206796,13.25 C43.7657918,13.25 33.0206796,23.9951121 33.0206796,37.25 C33.0206796,50.5048879 43.7657918,61.25 57.0206796,61.25 Z" fill="url(#7cnl33rj7__wxgrbmsgzk)" transform="translate(63.97932 68.15)"/>
      <path d="M23.8,14.2 C25.1,14.2 26.1,15.2 26.1,16.5 L26.1,29.8 C26.1,31.1 25.1,32.1 23.8,32.1 L2.3,32.1 C1,32.1 0,31.1 0,29.8 L0,16.5 C0,15.2 1,14.2 2.3,14.2 L23.8,14.2 Z M13.1,17.5 C11.1670034,17.5 9.6,19.0670034 9.6,21 C9.6,22.1894024 10.1932878,23.2402351 11.1000683,23.872703 L11.1,29.2 L14.8,29.2 L14.8010956,24.0595293 C15.8741582,23.4616297 16.6,22.3155796 16.6,21 C16.6,19.0670034 15.0329966,17.5 13.1,17.5 Z M25.2,13.3 L21.5,13.2 C21.6,10.4 20.6,7.9 18.9,6.1 C17.3,4.5 15.2,3.6 12.9,3.6 C8.3,3.6 4.5,7.9 4.5,13.1 L0.8,13.1 C0.8,6 6.3,0 12.9,0 C16.1,0 19.2,1.3 21.5,3.6 C24,6.1 25.3,9.5 25.2,13.3 Z" transform="translate(108 89.4)" fill="#F7BA1E" fill-rule="nonzero"/>
    </g>
    <path fill="#226FD4" fill-rule="nonzero" d="M0 134.6H200V135.6H0z" transform="translate(0 34.4)"/>
  </g>
</svg>
