<svg xmlns="http://www.w3.org/2000/svg" xmlns:xlink="http://www.w3.org/1999/xlink" viewBox="0 0 200 200" class="design-iconfont">
  <defs>
    <linearGradient x1="50%" y1="0%" x2="50%" y2="100%" id="9y4bqp1pc__9r9p2i98ta">
      <stop stop-color="#48C2F7" offset="0%"/>
      <stop stop-color="#0268CB" offset="100%"/>
    </linearGradient>
    <linearGradient x1="50%" y1=".75939685%" x2="50%" y2="89.9456991%" id="9y4bqp1pc__thl3wy8y0b">
      <stop stop-color="#1C2A2D" offset="0%"/>
      <stop stop-color="#1D2123" offset="100%"/>
    </linearGradient>
    <linearGradient x1="50%" y1="0%" x2="50%" y2="100%" id="9y4bqp1pc__jpntjvm5dc">
      <stop stop-color="#48C2F7" offset="0%"/>
      <stop stop-color="#0268CB" offset="100%"/>
    </linearGradient>
    <linearGradient x1="21.2630152%" y1="33.776512%" x2="100%" y2="66.4262409%" id="9y4bqp1pc__pc4x2n9zze">
      <stop stop-color="#18CBD8" offset="0%"/>
      <stop stop-color="#12D1EE" offset="100%"/>
    </linearGradient>
    <linearGradient x1="50%" y1="0%" x2="50%" y2="100%" id="9y4bqp1pc__zub5vtukvh">
      <stop stop-color="#5EAFFF" offset="0%"/>
      <stop stop-color="#12D1EE" offset="100%"/>
    </linearGradient>
    <linearGradient x1="50%" y1="0%" x2="50%" y2="100%" id="9y4bqp1pc__vk2x1qhz3j">
      <stop stop-color="#48C2F7" offset="0%"/>
      <stop stop-color="#0268CB" offset="100%"/>
    </linearGradient>
    <filter x="-105.7%" y="-105.7%" width="311.4%" height="311.4%" filterUnits="objectBoundingBox" id="9y4bqp1pc__hqiqygulef">
      <feGaussianBlur stdDeviation="37" in="SourceGraphic"/>
    </filter>
    <filter x="-77.1%" y="-77.1%" width="254.3%" height="254.3%" filterUnits="objectBoundingBox" id="9y4bqp1pc__35yqo1vaxi">
      <feGaussianBlur stdDeviation="27" in="SourceGraphic"/>
    </filter>
    <path d="M92.5014889,0 C94.2859619,0 95.7319073,1.44843773 95.7319073,3.23404291 C95.7319073,18.8690481 95.7319073,30.5953021 95.7319073,38.4128047 C95.7319073,43.4656296 95.7319073,51.0448669 95.7319073,61.1505166 C95.7319073,62.9373238 94.2859619,64.3857616 92.5014889,64.3857616 L3.23041842,64.3857616 C1.44654559,64.3857616 0,62.9373238 0,61.1505166 L0,3.23404291 C0,1.44843773 1.44654559,0 3.23041842,0 L92.5014889,0 Z" id="9y4bqp1pc__utro32r8dd"/>
  </defs>
  <g fill="none" fill-rule="evenodd">
    <path fill="#226FD4" d="M0 144.25H200V145.25H0z" transform="translate(0 18.75)"/>
    <path d="M60.4402173,111.069434 C60.4438187,111.100086 60.4456194,111.128333 60.449821,111.156581 C63.0259927,130.955703 91.3758857,143.580551 123.770104,139.354238 C154.623541,135.330466 178.017365,117.469005 177.947739,98.6723699 C191.008665,92.5228201 199.172344,82.5778826 197.86265,72.5163489 C197.031337,66.1251925 192.515233,60.7617658 185.69246,57.0336914 C189.240398,51.5494613 190.880817,45.634306 190.107125,39.6884992 C187.530353,19.8893769 159.18106,7.26332711 126.786242,11.489039 C106.245894,14.1701514 89.0145951,22.9827832 79.8089229,34.1201275 C71.890136,32.8958671 63.1910549,32.7654476 54.1780554,33.9416271 C21.7838369,38.168541 -2.38848042,57.6449201 0.188291487,77.4470474 C2.0670001,91.8827429 17.6458762,102.501414 38.5025429,105.559361 C44.4081704,108.742919 52.0112381,110.708827 60.4402173,111.069434 Z" fill="url(#9y4bqp1pc__9r9p2i98ta)" opacity=".15264602" transform="translate(1.730881 18.75)"/>
    <path fill="#FFF" d="M0 17.5568522L106.536584 17.5568522 106.536584 5.121323 0 5.121323z" transform="translate(34.939187 67.247541)"/>
    <path d="M0.421538996,21.7030503 C101.472053,22.6141838 112.097261,15.8431881 106.8975,3.46475498 C101.698339,-8.91427912 114.132028,15.8570113 114.132028,15.8570113 L111.870976,27.6182056 L82.2570058,28.528738 L16.6198487,27.1638409" fill="#383351" transform="translate(34.939187 67.247541)"/>
    <path stroke="#3D3D3C" stroke-width=".5" stroke-linecap="round" stroke-linejoin="round" d="M0 17.5568522L106.536584 17.5568522 106.536584 5.121323 0 5.121323z" transform="translate(34.939187 67.247541)"/>
    <path d="M43.5210958,59.0406792 C44.4886007,59.0406792 45.2729766,59.8298674 45.2729766,60.8029651 C45.2729766,61.7782265 44.4886007,62.5663329 43.5210958,62.5663329 C42.5535909,62.5663329 41.769215,61.7782265 41.769215,60.8029651 C41.769215,59.8298674 42.5535909,59.0406792 43.5210958,59.0406792" fill="#ECEDEE" transform="translate(1.730881 18.75)"/>
    <path d="M43.5210958,59.0406792 C44.4886007,59.0406792 45.2729766,59.8298674 45.2729766,60.8029651 C45.2729766,61.7782265 44.4886007,62.5663329 43.5210958,62.5663329 C42.5535909,62.5663329 41.769215,61.7782265 41.769215,60.8029651 C41.769215,59.8298674 42.5535909,59.0406792 43.5210958,59.0406792 Z" stroke="#3D3D3C" stroke-width=".5" stroke-linecap="round" stroke-linejoin="round" transform="translate(1.730881 18.75)"/>
    <path d="M48.8221152,59.0406792 C49.7896201,59.0406792 50.573996,59.8298674 50.573996,60.8029651 C50.573996,61.7782265 49.7896201,62.5663329 48.8221152,62.5663329 C47.8546103,62.5663329 47.0702345,61.7782265 47.0702345,60.8029651 C47.0702345,59.8298674 47.8546103,59.0406792 48.8221152,59.0406792" fill="#ECEDEE" transform="translate(1.730881 18.75)"/>
    <path d="M48.8221152,59.0406792 C49.7896201,59.0406792 50.573996,59.8298674 50.573996,60.8029651 C50.573996,61.7782265 49.7896201,62.5663329 48.8221152,62.5663329 C47.8546103,62.5663329 47.0702345,61.7782265 47.0702345,60.8029651 C47.0702345,59.8298674 47.8546103,59.0406792 48.8221152,59.0406792 Z" stroke="#3D3D3C" stroke-width=".5" stroke-linecap="round" stroke-linejoin="round" transform="translate(1.730881 18.75)"/>
    <path d="M54.1231887,59.0406792 C55.0906936,59.0406792 55.8750695,59.8298674 55.8750695,60.8029651 C55.8750695,61.7782265 55.0906936,62.5663329 54.1231887,62.5663329 C53.1556838,62.5663329 52.3713079,61.7782265 52.3713079,60.8029651 C52.3713079,59.8298674 53.1556838,59.0406792 54.1231887,59.0406792" fill="#ECEDEE" transform="translate(1.730881 18.75)"/>
    <path d="M54.1231887,59.0406792 C55.0906936,59.0406792 55.8750695,59.8298674 55.8750695,60.8029651 C55.8750695,61.7782265 55.0906936,62.5663329 54.1231887,62.5663329 C53.1556838,62.5663329 52.3713079,61.7782265 52.3713079,60.8029651 C52.3713079,59.8298674 53.1556838,59.0406792 54.1231887,59.0406792 Z" stroke="#3D3D3C" stroke-width=".5" stroke-linecap="round" stroke-linejoin="round" transform="translate(1.730881 18.75)"/>
    <path d="M105.605097,73.6357389 C105.606713,73.0093647 105.101083,72.5019908 104.476607,72.4998271 L96.5323706,72.4998271 C95.9057343,72.5019908 95.4001035,73.0126101 95.4033293,73.6400662 C95.4060458,74.2631949 95.9095157,74.7684052 96.5323706,74.7705688 L104.476607,74.7705688 C105.101083,74.7684052 105.606713,74.2610312 105.605097,73.6357389" fill="#FFF" transform="translate(1.730881 18.75)"/>
    <path d="M105.605097,73.6357389 C105.606713,73.0093647 105.101083,72.5019908 104.476607,72.4998271 L96.5323706,72.4998271 C95.9057343,72.5019908 95.4001035,73.0126101 95.4033293,73.6400662 C95.4060458,74.2631949 95.9095157,74.7684052 96.5323706,74.7705688 L104.476607,74.7705688 C105.101083,74.7684052 105.606713,74.2610312 105.605097,73.6357389 Z" stroke="#3D3D3C" stroke-width=".5" stroke-linecap="round" stroke-linejoin="round" transform="translate(1.730881 18.75)"/>
    <path d="M91.6065227,72.5000435 L81.1195472,72.5000435 C80.493451,72.5022071 79.9878203,73.0122856 79.9905106,73.6397416 C79.9937626,74.2634113 80.4972325,74.7680806 81.1195472,74.7702443 L91.6065227,74.7702443 C92.233159,74.7680806 92.7382495,74.2580021 92.7355593,73.6305461 C92.7328475,73.0068765 92.2288374,72.5022071 91.6065227,72.5000435" fill="#FFF" transform="translate(1.730881 18.75)"/>
    <path d="M91.6065227,72.5000435 L81.1195472,72.5000435 C80.493451,72.5022071 79.9878203,73.0122856 79.9905106,73.6397416 C79.9937626,74.2634113 80.4972325,74.7680806 81.1195472,74.7702443 L91.6065227,74.7702443 C92.233159,74.7680806 92.7382495,74.2580021 92.7355593,73.6305461 C92.7328475,73.0068765 92.2288374,72.5022071 91.6065227,72.5000435 Z" stroke="#3D3D3C" stroke-width=".5" stroke-linecap="round" stroke-linejoin="round" transform="translate(1.730881 18.75)"/>
    <path d="M44.6877198,74.7704065 L73.9700045,74.7704065 C74.5966409,74.7682429 75.1017314,74.2581644 75.0990412,73.6307084 C75.0963294,73.0070388 74.5923192,72.5023694 73.9700045,72.5002058 L44.6877198,72.5002058 C44.0610835,72.5023694 43.5559929,73.0124479 43.5586832,73.6399039 C43.561395,74.2635735 44.0654051,74.7682429 44.6877198,74.7704065" fill="#FFF" transform="translate(1.730881 18.75)"/>
    <path d="M44.6877198,74.7704065 L73.9700045,74.7704065 C74.5966409,74.7682429 75.1017314,74.2581644 75.0990412,73.6307084 C75.0963294,73.0070388 74.5923192,72.5023694 73.9700045,72.5002058 L44.6877198,72.5002058 C44.0610835,72.5023694 43.5559929,73.0124479 43.5586832,73.6399039 C43.561395,74.2635735 44.0654051,74.7682429 44.6877198,74.7704065 Z" stroke="#3D3D3C" stroke-width=".5" stroke-linecap="round" stroke-linejoin="round" transform="translate(1.730881 18.75)"/>
    <path d="M73.9699505,89.5345007 L44.6876658,89.5345007 C44.0615696,89.538828 43.5559389,90.0489065 43.5586292,90.6763625 C43.561341,91.2989503 44.0653511,91.8036197 44.6876658,91.8068651 L73.9699505,91.8068651 C74.5965869,91.8036197 75.1016774,91.2924594 75.0989871,90.6660852 C75.0962753,90.0413337 74.5922652,89.538828 73.9699505,89.5345007" fill="#FFF" transform="translate(1.730881 18.75)"/>
    <path d="M73.9699505,89.5345007 L44.6876658,89.5345007 C44.0615696,89.538828 43.5559389,90.0489065 43.5586292,90.6763625 C43.561341,91.2989503 44.0653511,91.8036197 44.6876658,91.8068651 L73.9699505,91.8068651 C74.5965869,91.8036197 75.1016774,91.2924594 75.0989871,90.6660852 C75.0962753,90.0413337 74.5922652,89.538828 73.9699505,89.5345007 Z" stroke="#3D3D3C" stroke-width=".5" stroke-linecap="round" stroke-linejoin="round" transform="translate(1.730881 18.75)"/>
    <path d="M114.804438,81.0172721 L99.2849248,81.0172721 C98.6588287,81.0215994 98.1537382,81.5316779 98.1569639,82.1591339 C98.1602206,82.7806399 98.6631503,83.2863911 99.2849248,83.2874729 L114.804438,83.2874729 C115.431075,83.2863911 115.936165,82.7752308 115.93294,82.1477748 C115.929683,81.5241051 115.426213,81.0215994 114.804438,81.0172721" fill="#FFF" transform="translate(1.730881 18.75)"/>
    <path d="M114.804438,81.0172721 L99.2849248,81.0172721 C98.6588287,81.0215994 98.1537382,81.5316779 98.1569639,82.1591339 C98.1602206,82.7806399 98.6631503,83.2863911 99.2849248,83.2874729 L114.804438,83.2874729 C115.431075,83.2863911 115.936165,82.7752308 115.93294,82.1477748 C115.929683,81.5241051 115.426213,81.0215994 114.804438,81.0172721 Z" stroke="#3D3D3C" stroke-width=".5" stroke-linecap="round" stroke-linejoin="round" transform="translate(1.730881 18.75)"/>
    <path d="M88.7036298,81.0172721 L45.3684846,81.0172721 C44.7423884,81.0215994 44.2367577,81.5316779 44.2405181,82.1591339 C44.2432402,82.7806399 44.7467101,83.2863911 45.3684846,83.2874729 L88.7036298,83.2874729 C89.3302661,83.2863911 89.8353566,82.7752308 89.8321309,82.1477748 C89.8288742,81.5241051 89.3254043,81.0215994 88.7036298,81.0172721" fill="#FFF" transform="translate(1.730881 18.75)"/>
    <path d="M88.7036298,81.0172721 L45.3684846,81.0172721 C44.7423884,81.0215994 44.2367577,81.5316779 44.2405181,82.1591339 C44.2432402,82.7806399 44.7467101,83.2863911 45.3684846,83.2874729 L88.7036298,83.2874729 C89.3302661,83.2863911 89.8353566,82.7752308 89.8321309,82.1477748 C89.8288742,81.5241051 89.3254043,81.0215994 88.7036298,81.0172721 Z" stroke="#3D3D3C" stroke-width=".5" stroke-linecap="round" stroke-linejoin="round" transform="translate(1.730881 18.75)"/>
    <path d="M3.23041845,0 L92.5017899,0 C94.2855427,0 95.7322083,1.44855794 95.7322083,3.23410304 L95.7322083,61.151539 C95.7322083,62.9370841 94.2855427,64.3851011 92.5017899,64.3851011 L3.23041845,64.3851011 C1.44612545,64.3851011 0,62.9370841 0,61.151539 L0,3.23410304 C0,1.44855794 1.44612545,0 3.23041845,0" fill="url(#9y4bqp1pc__thl3wy8y0b)" transform="translate(25.598835 86.314236)"/>
    <path d="M3.23041845,0 L92.5017899,0 C94.2855427,0 95.7322083,1.44855794 95.7322083,3.23410304 L95.7322083,9.46204276 L0,9.46204276 L0,3.23410304 C0,1.44855794 1.44612545,0 3.23041845,0 Z" stroke="#3D3D3C" stroke-width=".5" fill="#FFF" stroke-linecap="round" stroke-linejoin="round" transform="translate(25.598835 86.314236)"/>
    <path d="M3.23041845,0 L92.5017899,0 C94.2855427,0 95.7322083,1.44855794 95.7322083,3.23410304 L95.7322083,61.151539 C95.7322083,62.9370841 94.2855427,64.3851011 92.5017899,64.3851011 L3.23041845,64.3851011 C1.44612545,64.3851011 0,62.9370841 0,61.151539 L0,3.23410304 C0,1.44855794 1.44612545,0 3.23041845,0 Z" stroke="#226FD4" stroke-width=".5" stroke-linecap="round" stroke-linejoin="round" transform="translate(25.598835 86.314236)"/>
    <path d="M5.71611201,2.84297076 C6.68361693,2.84297076 7.46799278,3.63215898 7.46799278,4.60742036 C7.46799278,5.5805181 6.68361693,6.36862449 5.71611201,6.36862449 C4.74860708,6.36862449 3.96423123,5.5805181 3.96423123,4.60742036 C3.96423123,3.63215898 4.74860708,2.84297076 5.71611201,2.84297076 M11.0171314,2.84297076 C11.9846364,2.84297076 12.7690122,3.63215898 12.7690122,4.60742036 C12.7690122,5.5805181 11.9846364,6.36862449 11.0171314,6.36862449 C10.0496265,6.36862449 9.26525067,5.5805181 9.26525067,4.60742036 C9.26525067,3.63215898 10.0496265,2.84297076 11.0171314,2.84297076 M16.3181509,2.84297076 C17.2856558,2.84297076 18.0700317,3.63215898 18.0700317,4.60742036 C18.0700317,5.5805181 17.2856558,6.36862449 16.3181509,6.36862449 C15.350646,6.36862449 14.5662701,5.5805181 14.5662701,4.60742036 C14.5662701,3.63215898 15.350646,2.84297076 16.3181509,2.84297076 Z" fill="#FFCD07" transform="translate(25.598835 86.314236)"/>
    <path d="M28.3292572,18.5748077 L42.107154,18.5748077 C42.7337904,18.5715622 43.2394211,18.0604019 43.2361953,17.4329459 C43.2334788,16.8092763 42.7300089,16.3067705 42.107154,16.3024433 L28.3292572,16.3024433 C27.7026209,16.3067705 27.1975304,16.816849 27.2002206,17.444305 C27.2029324,18.065811 27.7069425,18.5715622 28.3292572,18.5748077 Z M24.1341429,16.3024433 C24.7569979,16.3067705 25.2604678,16.8092763 25.2637198,17.4329459 C25.26641,18.0604019 24.7607793,18.5715622 24.1341429,18.5748077 L6.88273604,18.5748077 C6.26042131,18.5715622 5.75641121,18.065811 5.75369941,17.444305 C5.75100917,16.816849 6.25609968,16.3067705 6.88273604,16.3024433 Z M6.88273604,35.6102927 L24.1341429,35.6102927 C24.7607793,35.6059654 25.26641,35.0969687 25.2637198,34.4695127 C25.2604678,33.8458431 24.7569979,33.3411737 24.1341429,33.3390101 L6.88273604,33.3390101 C6.25609968,33.3411737 5.75100917,33.852334 5.75369941,34.4787082 C5.75641121,35.1034596 6.26042131,35.6059654 6.88273604,35.6102927 Z M74.5153818,24.8195637 L58.3292567,24.8195637 C57.7031605,24.823891 57.1975298,25.3339695 57.2007555,25.9614255 C57.2040122,26.5850951 57.7074821,27.0886827 58.3292567,27.0919281 L74.5153818,27.0919281 C75.1420181,27.0886827 75.6471086,26.5775224 75.6438829,25.9500664 C75.6406262,25.3263967 75.1371563,24.823891 74.5153818,24.8195637 Z M52.0793693,24.8195637 L6.88268201,24.8195637 C6.25658586,24.823891 5.75095515,25.3339695 5.75418088,25.9614255 C5.75743759,26.5850951 6.26090749,27.0886827 6.88268201,27.0919281 L52.0793693,27.0919281 C52.7060057,27.0886827 53.2110962,26.5775224 53.2078705,25.9500664 C53.2046138,25.3263967 52.7011439,24.823891 52.0793693,24.8195637 Z M42.1074781,41.2875255 C42.7324939,41.2896892 43.2375844,41.7981449 43.2359677,42.4234373 C43.2375844,43.0487297 42.7324939,43.5582672 42.1074781,43.5604309 L37.4271528,43.5604309 C36.8048381,43.5561036 36.3019084,43.0530569 36.2986516,42.4299282 C36.2954259,41.8024722 36.8005164,41.290771 37.4271528,41.2875255 Z M6.88273604,43.5602145 L31.1508495,43.5602145 C31.7774859,43.5558872 32.2825764,43.0458087 32.2793507,42.4183527 C32.2760939,41.7946831 31.772624,41.2910955 31.1508495,41.2878501 L6.88273604,41.2878501 C6.25609968,41.2910955 5.75100917,41.8022558 5.75423488,42.4297118 C5.75749161,43.0533815 6.26096151,43.5558872 6.88273604,43.5602145 Z M24.134359,58.3243087 L6.88295212,58.3243087 C6.25631576,58.3264723 5.75068505,58.8365508 5.75337529,59.4640068 C5.75662729,60.0876765 6.26009719,60.5934276 6.88295212,60.5945095 L24.134359,60.5945095 C24.7609954,60.5934276 25.2660859,60.0822674 25.2633956,59.4548113 C25.2606838,58.8311417 24.7566737,58.3264723 24.134359,58.3243087 M48.1922252,49.8070801 L39.0487364,49.8070801 C38.4226403,49.8092437 37.9170096,50.3193222 37.9196998,50.9467782 C37.9224116,51.5704478 38.4264217,52.0740354 39.0487364,52.0772808 L48.1922252,52.0772808 C48.8188615,52.0740354 49.323952,51.5650387 49.3212618,50.9375827 C49.31855,50.3139131 48.8145399,49.8092437 48.1922252,49.8070801 Z M32.8148931,49.8070801 L7.2837833,49.8070801 C6.65768715,49.8092437 6.15205644,50.3193222 6.15474668,50.9467782 C6.15745847,51.5704478 6.66146858,52.0740354 7.2837833,52.0772808 L32.8148931,52.0772808 C33.4415295,52.0740354 33.94662,51.5650387 33.9439298,50.9375827 C33.941218,50.3139131 33.4372079,49.8092437 32.8148931,49.8070801 Z" fill="url(#9y4bqp1pc__jpntjvm5dc)" opacity=".10279483" transform="translate(25.598835 86.314236)"/>
    <path d="M164.402403,28.25 C166.186876,28.25 167.632821,29.6984377 167.632821,31.4840429 C167.632821,47.1190481 167.632821,58.8453021 167.632821,66.6628047 C167.632821,71.7156296 167.632821,79.2948669 167.632821,89.4005166 C167.632821,91.1873238 166.186876,92.6357616 164.402403,92.6357616 L75.1313324,92.6357616 C73.3474596,92.6357616 71.900914,91.1873238 71.900914,89.4005166 L71.900914,31.4840429 C71.900914,29.6984377 73.3474596,28.25 75.1313324,28.25 L164.402403,28.25 Z" fill="#2C2C2C" fill-rule="nonzero" transform="translate(1.730881 18.75)"/>
    <g transform="translate(73.631795 47)">
      <mask id="9y4bqp1pc__i6qubhl31g" fill="#fff">
        <use xlink:href="#9y4bqp1pc__utro32r8dd"/>
      </mask>
      <use fill="#1C1C1C" fill-rule="nonzero" xlink:href="#9y4bqp1pc__utro32r8dd"/>
      <path fill="url(#9y4bqp1pc__pc4x2n9zze)" opacity=".26592727" filter="url(#9y4bqp1pc__hqiqygulef)" mask="url(#9y4bqp1pc__i6qubhl31g)" d="M26.8682051 1A52.5 52.5 0 1 0 26.8682051 106A52.5 52.5 0 1 0 26.8682051 1Z"/>
      <path fill="url(#9y4bqp1pc__zub5vtukvh)" opacity=".31717355" filter="url(#9y4bqp1pc__35yqo1vaxi)" mask="url(#9y4bqp1pc__i6qubhl31g)" d="M78.5 -64A52.5 52.5 0 1 0 78.5 41A52.5 52.5 0 1 0 78.5 -64Z"/>
    </g>
    <path d="M75.4995376,28.25 L164.770909,28.25 C166.554662,28.25 168.001327,29.6985579 168.001327,31.484103 L168.001327,37.7120428 L72.2691191,37.7120428 L72.2691191,31.484103 C72.2691191,29.6985579 73.7152446,28.25 75.4995376,28.25 Z" stroke="#226FD4" stroke-width=".5" stroke-linecap="round" stroke-linejoin="round" transform="translate(1.730881 18.75)"/>
    <path d="M164.770608,27.891743 C166.692925,27.891743 168.251026,29.4518822 168.251026,31.3757859 L168.251026,89.2922597 C168.251026,91.2171653 166.693125,92.7775046 164.770608,92.7775046 L75.4995375,92.7775046 C73.5774203,92.7775046 72.0191191,91.2169648 72.0191191,89.2922597 L72.0191191,31.3757859 C72.0191191,29.4520826 73.5776203,27.891743 75.4995375,27.891743 L164.770608,27.891743 Z M164.770608,28.391743 L75.4995375,28.391743 C73.8538947,28.391743 72.5191191,29.7280931 72.5191191,31.3757859 L72.5191191,89.2922597 C72.5191191,90.940983 73.8537235,92.2775046 75.4995375,92.2775046 L164.770608,92.2775046 C166.416808,92.2775046 167.751026,90.9411978 167.751026,89.2922597 L167.751026,31.3757859 C167.751026,29.7278783 166.416636,28.391743 164.770608,28.391743 Z" fill="#226FD4" fill-rule="nonzero" transform="translate(1.730881 18.75)"/>
    <path d="M78.3418485,30.9847679 C79.3094134,30.9847679 80.0939093,31.773295 80.0939093,32.7493376 C80.0939093,33.7223753 79.3094134,34.5109024 78.3418485,34.5109024 C77.3742835,34.5109024 76.5897876,33.7223753 76.5897876,32.7493376 C76.5897876,31.773295 77.3742835,30.9847679 78.3418485,30.9847679 Z M83.6428679,30.9847679 C84.6104328,30.9847679 85.3949287,31.773295 85.3949287,32.7493376 C85.3949287,33.7223753 84.6104328,34.5109024 83.6428679,34.5109024 C82.6753029,34.5109024 81.890807,33.7223753 81.890807,32.7493376 C81.890807,31.773295 82.6753029,30.9847679 83.6428679,30.9847679 Z M88.9438873,30.9847679 C89.9114522,30.9847679 90.6959481,31.773295 90.6959481,32.7493376 C90.6959481,33.7223753 89.9114522,34.5109024 88.9438873,34.5109024 C87.9763223,34.5109024 87.1918264,33.7223753 87.1918264,32.7493376 C87.1918264,31.773295 87.9763223,30.9847679 88.9438873,30.9847679" fill="url(#9y4bqp1pc__vk2x1qhz3j)" opacity=".10279483" transform="translate(1.730881 18.75)"/>
    <path d="M3.28417416,0.25 C1.60414053,0.254808092 0.245828245,1.62090722 0.250010433,3.30434041 L0.250010433,30.6882271 C0.245828245,32.3710593 1.60414053,33.7377594 3.28417416,33.7425675 L42.1512329,33.7425675 C43.7178237,35.7331176 45.5052979,38.0001329 46.8041878,39.6469044 C47.4044141,40.4071839 48.6138703,39.9696476 48.6138703,38.999014 L48.6138703,33.7425675 L62.7407983,33.7425675 C64.4208319,33.7377594 65.7791442,32.3710593 65.7755622,30.6882271 L65.7755622,3.30434041 C65.7797444,1.62090722 64.4208319,0.254808092 62.7407983,0.25 L3.28417416,0.25 Z" fill="#FFD147" transform="translate(112.005058 18.75)"/>
    <path d="M62.7407983,0 C64.5601673,0.00520583259 66.0300859,1.4840813 66.025563,3.30434041 L66.025563,30.6876935 C66.0294377,32.5083195 64.5597529,33.9873628 62.7407983,33.9925675 L48.8630201,33.992 L48.8638703,38.999014 C48.8638703,40.1631899 47.4612644,40.709026 46.6908003,39.8975187 L46.6078979,39.8017279 C44.8468941,37.5690744 43.2914282,35.5955632 41.9547774,33.8971807 L42.0290201,33.992 L3.28345869,33.9925665 C1.52780584,33.987542 0.0972535354,32.6084438 0.00476347733,30.8752364 L1.04178162e-05,30.6882271 L1.04178162e-05,3.30496292 C-0.00451348374,1.48398166 1.46490472,0.00520554743 3.28417416,0 L62.7407983,0 Z M62.7400828,0.499998976 L3.28488963,0.499998976 C1.74251586,0.504413099 0.496172119,1.75869412 0.50001045,3.30434041 L0.50001045,30.6888498 C0.496171707,32.2334871 1.7427304,33.488155 3.28417416,33.4925675 L42.1512329,33.4925675 L42.3476884,33.5879543 C43.6842057,35.2861671 45.2395751,37.259556 47.0004077,39.4919924 C47.4517131,40.0636404 48.3638703,39.7357059 48.3638703,38.999014 L48.3638703,33.7425675 C48.3638703,33.6044963 48.4757991,33.4925675 48.6138703,33.4925675 L62.7400828,33.4925685 C64.2821715,33.4881552 65.5288501,32.233538 65.5255622,30.6882271 L65.5255622,3.30371789 C65.5294002,1.7588243 64.2825868,0.504413472 62.7400828,0.499998976 Z" fill="#226FD4" fill-rule="nonzero" transform="translate(112.005058 18.75)"/>
    <path d="M14.2811633,13.25 C15.9551947,13.25 17.3123065,14.6173011 17.3123065,16.2995323 C17.3123065,17.9841675 15.9551947,19.3502667 14.2811633,19.3502667 C12.6071319,19.3502667 11.2500201,17.9841675 11.2500201,16.2995323 C11.2500201,14.6173011 12.6071319,13.25 14.2811633,13.25 M26.9521222,13.25 C28.6261535,13.25 29.9832654,14.6173011 29.9832654,16.2995323 C29.9832654,17.9841675 28.6261535,19.3502667 26.9521222,19.3502667 C25.2780908,19.3502667 23.920979,17.9841675 23.920979,16.2995323 C23.920979,14.6173011 25.2780908,13.25 26.9521222,13.25 Z M39.6232011,13.25 C41.2972324,13.25 42.6543443,14.6173011 42.6543443,16.2995323 C42.6543443,17.9841675 41.2972324,19.3502667 39.6232011,19.3502667 C37.9491697,19.3502667 36.5920579,17.9841675 36.5920579,16.2995323 C36.5920579,14.6173011 37.9491697,13.25 39.6232011,13.25 M52.2941599,13.25 C53.9681913,13.25 55.3253031,14.6173011 55.3253031,16.2995323 C55.3253031,17.9841675 53.9681913,19.3502667 52.2941599,19.3502667 C50.6201286,19.3502667 49.2630167,17.9841675 49.2630167,16.2995323 C49.2630167,14.6173011 50.6201286,13.25 52.2941599,13.25 Z" fill="#FFE070" transform="translate(112.005058 18.75)"/>
    <g>
      <path d="M3.03416373,0 C1.3541301,0.00360606896 -0.00418218722,1.37090722 0,3.05434041 L0,30.4382271 C-0.00418218722,32.1198572 1.3541301,33.4877594 3.03416373,33.4913655 L41.9012225,33.4913655 C43.4678133,35.4819155 45.2552875,37.7489309 46.5541773,39.3945004 C47.1544037,40.1571839 48.3638599,39.7196476 48.3638599,38.749014 L48.3638599,33.4913655 L62.4907878,33.4913655 C64.1708215,33.4877594 65.5291337,32.1198572 65.5255467,30.4382271 L65.5255467,3.05434041 C65.5291337,1.37090722 64.1708215,0.00360606896 62.4907878,0 L3.03416373,0 Z" fill="#5EAFFF" transform="translate(13.702299 67.152367)"/>
      <path d="M62.4907878,0 L3.03416373,0 C1.3541301,0.00360606896 -0.00418218722,1.37090722 9.67626693e-06,3.05434041 L9.67626693e-06,30.4382271 C-0.00418218722,32.1198572 1.3541301,33.4877594 3.03416373,33.4913655 L41.9012225,33.4913655 C43.4678133,35.4819155 45.2552875,37.7489309 46.5541773,39.3945004 C47.1544037,40.1571839 48.3638599,39.7196476 48.3638599,38.749014 L48.3638599,33.4913655 L62.4907878,33.4913655 C64.1708215,33.4877594 65.5291337,32.1198572 65.5255395,30.4382271 L65.5255395,3.05434041 C65.5291337,1.37090722 64.1708215,0.00360606896 62.4907878,0 Z" stroke="#226FD4" stroke-width=".5" stroke-linecap="round" stroke-linejoin="round" transform="translate(13.702299 67.152367)"/>
      <path d="M13.229843,12.7789047 C14.9039344,12.7789047 16.2609262,14.1447033 16.2609262,15.8290981 C16.2609262,17.5140339 14.9039344,18.8787507 13.229843,18.8787507 C11.5557516,18.8787507 10.1987599,17.5140339 10.1987599,15.8290981 C10.1987599,14.1447033 11.5557516,12.7789047 13.229843,12.7789047 Z M25.9008079,12.7789047 C27.5748993,12.7789047 28.9318911,14.1447033 28.9318911,15.8290981 C28.9318911,17.5140339 27.5748993,18.8787507 25.9008079,18.8787507 C24.2267165,18.8787507 22.8697247,17.5140339 22.8697247,15.8290981 C22.8697247,14.1447033 24.2267165,12.7789047 25.9008079,12.7789047 Z M38.5718808,12.7789047 C40.2459722,12.7789047 41.602964,14.1447033 41.602964,15.8290981 C41.602964,17.4538576 40.3411693,18.7808624 38.749987,18.8735761 L38.5718808,18.8787507 C36.8977894,18.8787507 35.5407976,17.5140339 35.5407976,15.8290981 C35.5407976,14.1447033 36.8977894,12.7789047 38.5718808,12.7789047 Z M51.2428997,12.7789047 C52.9169911,12.7789047 54.2739829,14.1447033 54.2739829,15.8290981 C54.2739829,17.5140339 52.9169911,18.8787507 51.2428997,18.8787507 C49.5688083,18.8787507 48.2118165,17.5140339 48.2118165,15.8290981 C48.2118165,14.1447033 49.5688083,12.7789047 51.2428997,12.7789047 Z" fill="#87C7FF" transform="translate(13.702299 67.152367)"/>
    </g>
    <path d="M171.665792,142.930037 L132.487516,142.930037 L149.423983,118.008134 C150.084112,117.036118 151.181806,116.453016 152.356749,116.451935 L187.303069,116.451935 C188.302986,116.451935 188.894509,117.580274 188.329996,118.410571 L171.665792,142.930037 Z" fill="#5EAFFF" transform="translate(1.730881 18.75)"/>
    <path d="M187.303069,116.201935 C188.50424,116.201935 189.213792,117.555309 188.536763,118.551096 L171.872559,143.070562 C171.826018,143.139042 171.74859,143.180037 171.665792,143.180037 L132.487516,143.180037 C132.286834,143.180037 132.167946,142.955499 132.280744,142.789518 L149.217168,117.867679 C149.924012,116.826878 151.099229,116.203092 152.356749,116.201935 L187.303069,116.201935 Z M152.35698,116.701934 C151.265259,116.70294 150.244706,117.244632 149.630755,118.148652 L132.958516,142.679935 L171.532516,142.679935 L188.123254,118.270009 C188.553729,117.636857 188.144689,116.787419 187.414881,116.707956 L187.303069,116.701934 L152.35698,116.701934 Z" fill="#226FD4" fill-rule="nonzero" transform="translate(1.730881 18.75)"/>
    <path d="M160.433227,127.649211 L161.073909,126.833519 C161.943637,125.724652 163.214196,125.034451 164.384818,125.034451 C166.80331,125.034451 167.557974,127.82068 165.760717,130.110894 L165.120035,130.926587 C164.250307,132.034912 162.979748,132.725655 161.809126,132.725655 C159.390634,132.725655 158.635429,129.941048 160.433227,127.649211 Z" fill="#3491FA" transform="translate(1.730881 18.75)"/>
    <path d="M161.809126,132.725655 L161.809126,132.725655 C159.390634,132.725655 158.635429,129.941048 160.433227,127.649211 L161.073909,126.833519 C161.943637,125.724652 163.214196,125.034451 164.384818,125.034451 C166.80331,125.034451 167.557974,127.82068 165.760717,130.110894 L165.120035,130.926587 C164.250307,132.034912 162.979748,132.725655 161.809126,132.725655 Z" stroke="#226FD4" stroke-width=".5" stroke-linecap="round" stroke-linejoin="round" transform="translate(1.730881 18.75)"/>
    <path d="M171.31547,144.308709 L112.428401,144.308709 L112.55913,143.88734 C112.971306,142.553996 114.20189,141.645266 115.595615,141.643103 L172.144682,141.643103 L171.31547,144.308709 Z" fill="#3491FA" transform="translate(1.730881 18.75)"/>
    <path d="M171.31547,144.308709 L112.428401,144.308709 L112.55913,143.88734 C112.971306,142.553996 114.20189,141.645266 115.595615,141.643103 L172.144682,141.643103 L171.31547,144.308709 Z" fill="#5EAFFF" transform="translate(1.730881 18.75)"/>
    <g>
      <path d="M16.9257518,34 C7.58524432,34 0,26.3814815 0,17 C0,7.61851852 7.58524432,0 16.9257518,0 C26.0781954,0 33.4753758,7.24074074 33.8515036,16.3074074" stroke="#5EAFFF" stroke-width="1.26" stroke-linecap="round" stroke-linejoin="round" transform="translate(105 66)"/>
      <path d="M36.6724622,15.1111111 L33.8515036,22.6666667 L31.030545,15.1111111 L33.8515036,17.062963 L36.6724622,15.1111111 M36.6097743,13.8518519 C36.3590224,13.8518519 36.1082705,13.9148148 35.9202066,14.1037037 L33.7888156,15.5518519 L31.6574247,14.1037037 C31.4693607,13.9148148 31.2186089,13.8518519 31.030545,13.8518519 C30.7797931,13.8518519 30.4663532,13.9148148 30.2782893,14.1037037 C29.8394735,14.4185185 29.6514096,15.0481481 29.9021615,15.5518519 L32.7231201,23.1074074 C32.911184,23.6111111 33.3499998,23.9259259 33.9141916,23.9259259 C34.4783833,23.9259259 34.9171991,23.6111111 35.105263,23.1074074 L37.9262216,15.5518519 C38.1142855,15.0481481 37.9262216,14.4814815 37.5500938,14.1037037 C37.173966,13.9148148 36.9232141,13.8518519 36.6097743,13.8518519 L36.6097743,13.8518519 Z" fill="#5EAFFF" fill-rule="nonzero" transform="translate(105 66)"/>
      <path d="M17.1765037,25.1851852 C17.1138157,25.1851852 16.9884398,25.1851852 16.9257518,25.1851852 C12.412218,25.1851852 8.77631575,21.5333333 8.77631575,17" stroke="#5EAFFF" stroke-width="1.26" stroke-linecap="round" stroke-linejoin="round" transform="translate(105 66)"/>
      <path d="M23.9468044,21.0925926 C23.5706766,21.7851852 23.0064848,22.4148148 22.4422931,22.9814815" stroke="#5EAFFF" stroke-width="1.26" stroke-linecap="round" stroke-linejoin="round" transform="translate(105 66)"/>
      <path d="M16.9257518,8.81481481 C21.4392856,8.81481481 25.0751878,12.4666667 25.0751878,17 C25.0751878,17.3777778 25.0751878,17.7555556 25.0124999,18.1333333" stroke="#5EAFFF" stroke-width="1.26" stroke-linecap="round" stroke-linejoin="round" transform="translate(105 66)"/>
      <path d="M28.836466,29.0259259 C26.830451,31.0407407 24.5109961,32.4259259 22.0034773,33.2444444" stroke="#5EAFFF" stroke-width="1.26" stroke-linecap="round" stroke-linejoin="round" transform="translate(105 66)"/>
    </g>
  </g>
</svg>
