<svg xmlns="http://www.w3.org/2000/svg" viewBox="0 0 200 200" class="design-iconfont">
  <g fill="none" fill-rule="evenodd">
    <path fill="#052461" d="M0 141H200V142H0z" transform="translate(0 28)"/>
    <path d="M39.2958316,49.5656333 C49.1324198,44.545192 56.9639974,34.479146 56.7477191,23.4422752 C47.5518135,31.1642983 35.9190602,35.3862237 23.9079397,35.3613 C19.2761784,35.3346988 14.1267399,34.8232843 10.5269764,37.7369568 C8.28674524,39.5496743 7.11256008,42.4211683 6.76488426,45.2809195 C6.41744822,48.1406706 6.80756446,51.0327746 7.19720116,53.8870138 L6.95526674,54.5642665 C17.9741924,55.3201246 29.4592435,54.585835 39.2958316,49.5656333" fill="#F2F3F5" transform="translate(137 114.000121)"/>
    <path d="M27.4699863,0.190123514 C27.4256277,0.380885427 27.381269,0.57164734 27.3333138,0.764086807 C26.7242816,3.32619185 25.9078429,5.83437549 24.8923897,8.26419337 C24.8168602,8.45327773 24.7374942,8.64379999 24.6566895,8.83048784 C22.147669,14.6585519 18.5776378,19.9701687 14.1285862,24.4957315 C12.3566384,26.2950285 10.450176,27.9567661 8.42574363,29.4668048 C5.6299505,31.5522447 2.43253185,33.5909528 0.545011818,36.395105 C0.344798502,36.6853219 0.162568417,36.9880006 0,37.3009844 L6.14738803,54.2169648 C6.18071695,54.2485987 6.21020945,54.2816704 6.24353837,54.3133043 L6.4578985,54.9999034 C6.5677161,54.9292065 6.68017125,54.8537165 6.79022863,54.7832592 C6.85400916,54.7425186 6.91635103,54.6979436 6.98037133,54.657203 C7.02257199,54.6289242 7.06453286,54.6004058 7.10433575,54.5771597 C7.11848256,54.5678133 7.13238959,54.5582273 7.14269998,54.5503188 C7.18226309,54.5270727 7.21655111,54.5016697 7.25251758,54.4798615 C7.88217047,54.059035 8.50966538,53.6331758 9.13548186,53.2020443 C9.13931828,53.2006064 9.13931828,53.2006064 9.14195582,53.1955737 C13.9015179,49.8991791 18.4277775,46.1766857 22.2447784,41.8857409 C22.3596313,41.7568088 22.4783207,41.6261992 22.5902963,41.4895984 C24.2999022,39.5460316 25.8478988,37.465864 27.2187006,35.2701848 C27.9653644,34.065461 28.6508852,32.8238311 29.2719062,31.5496086 C30.8702558,28.2548915 31.940378,24.7293909 32.4424699,21.1022784 C33.4428171,13.8715391 32.1180524,6.40138891 27.8039949,0.627965241 C27.693458,0.480340444 27.5843597,0.336310407 27.4699863,0.190123514" fill="#F2F3F5" transform="translate(137 114.000121)"/>
    <path d="M56.5175816,23.41565 C56.6645646,23.1424483 57.1187012,23.3188312 56.9707591,23.5937105 C54.5775506,28.0365937 51.4417545,32.0378009 47.6986047,35.4235852 C45.483635,37.4499945 43.0617396,39.2312707 40.4752886,40.7396067 C42.1521641,43.0446298 45.2347182,43.8727826 47.8568331,42.6833701 C48.1421671,42.5532398 48.3308711,43.0021055 48.045777,43.1317565 C45.1322536,44.4471988 41.6943392,43.4591192 39.9247892,40.7980385 L40.0521224,40.9831143 C38.9613176,41.6024371 37.8420464,42.1736087 36.6974224,42.6945858 C34.9161234,43.4895069 33.0185327,44.1200278 31.0636355,44.2743628 C29.1526174,44.4251031 27.374915,44.0167384 25.6219095,43.278854 C23.9523463,42.575719 22.2873388,41.6626501 20.4492127,41.5155046 C18.3475723,41.3475095 16.4984165,42.4357631 15.1093916,43.9331003 C12.1323275,47.1422621 11.256664,51.9232924 7.62093406,54.576225 C7.3682097,54.760756 7.06657096,54.3787529 7.31953509,54.1942219 C9.40942642,52.6690852 10.6030335,50.3320121 11.7860904,48.099906 C12.8518966,46.0894768 14.0116952,44.0740149 15.8028251,42.6147821 C17.2668999,41.4222805 19.0716971,40.8042215 20.9599365,41.0846127 C22.7513061,41.3506249 24.3650015,42.237572 26.0199384,42.9172212 C26.1395306,42.9691834 26.2599192,43.0189059 26.3810415,43.0663794 C27.0386011,39.9334989 28.8245464,37.1483978 31.4034467,35.2420259 C31.6554517,35.0567759 31.9570904,35.4387791 31.7043661,35.6242687 C29.1569813,37.5002539 27.4106896,40.2667809 26.8134065,43.3724136 L26.8421352,43.2350602 C28.3722006,43.7554962 30.003744,43.9254174 31.6153611,43.7272404 C33.5669014,43.4717728 35.4330813,42.7698361 37.2004734,41.9262658 C38.1395827,41.4779906 39.0613076,40.9935101 39.9637445,40.4749872 C39.9974046,40.4388073 40.0407042,40.4134064 40.0861493,40.4023859 C43.9367986,38.174334 47.4328468,35.3243826 50.426185,32.0231174 C49.4898704,31.0536483 49.0849646,29.6886618 49.3424879,28.3642441 C49.4043502,28.0591688 49.8884588,28.1142885 49.8261169,28.4215206 C49.5832234,29.6396648 49.969743,30.89831 50.8540385,31.770878 L50.7498242,31.6622181 C52.9838774,29.1432387 54.927844,26.3700914 56.5175816,23.41565 Z" fill="#FFF" transform="translate(137 114.000121)"/>
    <path d="M27.2688379,0.306210286 C27.2218417,-0.000120541369 27.6906046,-0.133069345 27.7380803,0.175600685 C28.5034467,5.16320989 28.4099339,10.2450018 27.4608988,15.2007375 C26.9131046,18.1510284 26.0523807,21.0305524 24.8960456,23.791128 C27.6232312,24.6232229 30.5834263,23.4294009 31.9603274,20.9018106 C32.1099479,20.626452 32.5307555,20.8711353 32.3813748,21.1464939 C30.8472853,23.9499272 27.5071996,25.2299013 24.4912917,24.1696868 L24.7051162,24.239651 C24.2071205,25.3910114 23.6573786,26.5210243 23.0571649,27.6261441 C22.1136447,29.3324567 20.9783033,30.977898 19.510392,32.2775234 C18.0753301,33.5481512 16.4098431,34.2915475 14.5657226,34.7571887 C12.8091205,35.2005424 10.9295131,35.4735044 9.37360383,36.4620633 C7.59398319,37.5927351 6.77322848,39.5741666 6.56606165,41.6056851 C6.12247526,45.959658 8.30324186,50.3038053 6.99837854,54.6100877 C6.90750328,54.9094113 6.43658238,54.7859913 6.52745764,54.4859487 C7.27771808,52.0110764 6.8228622,49.4266839 6.42291512,46.9324 C6.06277093,44.6861545 5.77455966,42.3790378 6.32580567,40.1359077 C6.77634557,38.3028199 7.84502911,36.7230429 9.52130611,35.8106929 C11.1119829,34.9450748 12.9350031,34.682178 14.6657093,34.2294779 C16.5309302,33.7810916 18.2422145,32.8416611 19.6211688,31.5087242 C21.0255393,30.1304933 22.0927842,28.4469475 22.9957822,26.7099597 C23.4751864,25.787689 23.9189539,24.8470015 24.3268699,23.8907627 C24.3322294,23.8418768 24.3508717,23.7958086 24.379728,23.7595438 C26.1136578,19.6630605 27.1886784,15.282674 27.5901873,10.8444323 C26.2589525,10.6338345 25.1131992,9.78760009 24.5209761,8.57478061 C24.3867013,8.29391005 24.80631,8.04706989 24.9415439,8.32985765 C25.4815204,9.44854686 26.548046,10.2209409 27.7800172,10.3853412 L27.6312234,10.3612039 C27.8975912,7.00564117 27.7792927,3.62171328 27.2690777,0.306210286 Z" fill="#FFF" transform="translate(137 114.000121)"/>
    <g>
      <path d="M28,0 L15.1026253,0 C6.74940334,0 0,6.67528736 0,14.9367816 L0,23 L28,23 L28,0 Z" fill="#3491FA" transform="translate(27 28)"/>
      <path d="M28,0 L28,23.4826698 L0,23.4826698 L0,15.1755269 C0,6.78232269 6.74070286,0 15.0830086,0 L28,0 Z M27.5015804,0.5 L15.0830086,0.5 C7.01609292,0.5 0.498144842,7.05819253 0.498144842,15.1755269 L0.498144842,22.982 L27.5015804,22.982 L27.5015804,0.5 Z" fill="#052461" fill-rule="nonzero" transform="translate(27 28)"/>
      <path d="M128.25,13 C130.59721,13 132.5,14.9027898 132.5,17.25 L132.5,137.25 C132.5,139.59721 130.59721,141.5 128.25,141.5 L10.25,141.5 C7.90278981,141.5 6,139.59721 6,137.25 L6,17.25 C6,14.9027898 7.90278981,13 10.25,13 L128.25,13 Z" fill="#052461" fill-rule="nonzero" transform="translate(27 28)"/>
      <path d="M128.25,13.5 L10.25,13.5 C8.17893219,13.5 6.5,15.1789322 6.5,17.25 L6.5,137.25 C6.5,139.321068 8.17893219,141 10.25,141 L128.25,141 C130.321068,141 132,139.321068 132,137.25 L132,17.25 C132,15.1789322 130.321068,13.5 128.25,13.5 Z" fill="#FFF" fill-rule="nonzero" transform="translate(27 28)"/>
      <path fill="#F2F3F5" d="M13.5104712 134.801405L102.779668 134.801405 102.779668 42.2103044 13.5104712 42.2103044z" transform="translate(27 28)"/>
    </g>
    <g>
      <path d="M119.294939,105.75 L119.294939,113.830519 C119.294939,116.310283 118.310507,118.532345 116.723109,120.138089 C115.123592,121.756091 112.911658,122.748503 110.475986,122.748503 L26.489991,122.748503 L26.7994487,105.75 L119.294939,105.75 Z" stroke="#052461" stroke-width=".5" fill="#3491FA" transform="translate(41.955061 28)"/>
      <path d="M12.7809773,13.1423888 L12.7809773,108.441218 C12.7809773,116.16815 19.0397033,122.442155 26.7478185,122.442155 C42.2299302,122.442155 40.7146597,105.469321 40.7146597,105.469321 L95.9232112,105.403279 L95.9232112,13.8028103 C95.9232112,-0.792505855 82.3516579,0.330210773 82.3516579,0.330210773 L0,0.330210773 C7.04930192,0.330210773 12.7809773,6.07587822 12.7809773,13.1423888 Z" fill="#FFF" transform="translate(41.955061 28)"/>
      <path d="M43.9730313,37.8890441 L57.750928,37.8890441 C58.3775644,37.8857987 58.8831951,37.3746384 58.8799694,36.7471823 C58.8772529,36.1235127 58.373783,35.621007 57.750928,35.6166797 L43.9730313,35.6166797 C43.3463949,35.621007 42.8413044,36.1310854 42.8439946,36.7585415 C42.8467064,37.3800475 43.3507165,37.8857987 43.9730313,37.8890441 Z M39.777917,35.6166797 C40.4007719,35.621007 40.9042418,36.1235127 40.9074938,36.7471823 C40.910184,37.3746384 40.4045533,37.8857987 39.777917,37.8890441 L22.5265101,37.8890441 C21.9041953,37.8857987 21.4001852,37.3800475 21.3974734,36.7585415 C21.3947832,36.1310854 21.8998737,35.621007 22.5265101,35.6166797 Z M22.5265101,54.9245291 L39.777917,54.9245291 C40.4045533,54.9202018 40.910184,54.4112052 40.9074938,53.7837491 C40.9042418,53.1600795 40.4007719,52.6554101 39.777917,52.6532465 L22.5265101,52.6532465 C21.8998737,52.6554101 21.3947832,53.1665704 21.3974734,53.7929446 C21.4001852,54.4176961 21.9041953,54.9202018 22.5265101,54.9245291 Z M90.1591558,44.1338001 L73.9730307,44.1338001 C73.3469345,44.1381274 72.8413038,44.6482059 72.8445296,45.2756619 C72.8477863,45.8993316 73.3512562,46.4029191 73.9730307,46.4061646 L90.1591558,46.4061646 C90.7857921,46.4029191 91.2908827,45.8917588 91.2876569,45.2643028 C91.2844002,44.6406331 90.7809303,44.1381274 90.1591558,44.1338001 Z M67.7231434,44.1338001 L22.526456,44.1338001 C21.9003599,44.1381274 21.3947292,44.6482059 21.3979549,45.2756619 C21.4012116,45.8993316 21.9046815,46.4029191 22.526456,46.4061646 L67.7231434,46.4061646 C68.3497797,46.4029191 68.8548702,45.8917588 68.8516445,45.2643028 C68.8483878,44.6406331 68.3449179,44.1381274 67.7231434,44.1338001 Z M57.7512521,60.601762 C58.3762679,60.6039256 58.8813584,61.1123813 58.8797417,61.7376737 C58.8813584,62.3629661 58.3762679,62.8725037 57.7512521,62.8746673 L53.0709268,62.8746673 C52.4486121,62.87034 51.9456824,62.3672934 51.9424257,61.7441646 C51.9392,61.1167086 52.4442905,60.6050074 53.0709268,60.601762 Z M22.5265101,62.8744509 L46.7946235,62.8744509 C47.4212599,62.8701237 47.9263504,62.3600452 47.9231247,61.7325892 C47.9198679,61.1089195 47.416398,60.605332 46.7946235,60.6020865 L22.5265101,60.6020865 C21.8998737,60.605332 21.3947832,61.1164923 21.3980089,61.7439483 C21.4012656,62.3676179 21.9047355,62.8701237 22.5265101,62.8744509 Z M39.778133,77.6385451 L22.5267261,77.6385451 C21.9000898,77.6407088 21.3944591,78.1507872 21.3971493,78.7782433 C21.4004013,79.4019129 21.9038712,79.9076641 22.5267261,79.9087459 L39.778133,79.9087459 C40.4047694,79.9076641 40.9098599,79.3965038 40.9071697,78.7690478 C40.9044579,78.1453781 40.4004478,77.6407088 39.778133,77.6385451 M63.8359992,69.1213165 L54.6925105,69.1213165 C54.0664143,69.1234801 53.5607836,69.6335586 53.5634738,70.2610146 C53.5661856,70.8846843 54.0701957,71.3882718 54.6925105,71.3915173 L63.8359992,71.3915173 C64.4626356,71.3882718 64.9677261,70.8792752 64.9650358,70.2518192 C64.962324,69.6281495 64.4583139,69.1234801 63.8359992,69.1213165 Z M48.4586672,69.1213165 L22.9275573,69.1213165 C22.3014612,69.1234801 21.7958305,69.6335586 21.7985207,70.2610146 C21.8012325,70.8846843 22.3052426,71.3882718 22.9275573,71.3915173 L48.4586672,71.3915173 C49.0853035,71.3882718 49.590394,70.8792752 49.5877038,70.2518192 C49.584992,69.6281495 49.0809819,69.1234801 48.4586672,69.1213165 Z" fill="#F2F3F5" transform="translate(41.955061 28)"/>
      <path d="M82.2277049,0.0217925264 C82.260926,0.0190310805 82.3222999,0.015072949 82.4098305,0.0111751932 C83.0855134,-0.0189131361 83.947271,0.0082201926 84.9267432,0.136025619 C86.3698293,0.324325241 87.7922218,0.700891512 89.1251824,1.31029071 C93.4470934,3.28616993 96.0449389,7.28107931 96.0449389,13.7846258 L96.0449389,105.909808 L95.7956877,105.910107 L40.9521308,105.976278 L40.9557921,106.036903 C41.068135,108.358755 40.8187077,111.124512 39.9210293,113.819434 L39.745048,114.323776 C37.7686379,119.73778 33.6162739,123 26.7445837,123 C18.9123922,123 12.5533475,116.594809 12.5533475,108.706394 L12.5533475,13.1222269 C12.5533475,6.17290613 6.9435859,0.522435971 0.044938918,0.522435971 L0.044938918,0.0209389007 L82.2277049,0.0217925264 Z M84.8624697,0.633346891 C83.9136738,0.50954422 83.0803492,0.483306134 82.4319275,0.51218051 C82.3508718,0.515789942 82.2958409,0.519338999 82.2482788,0.522435971 L3.61350022,0.521473691 L3.87461166,0.599868924 C9.09168644,2.22082386 12.9162978,7.06418024 13.0488889,12.8133806 L13.052447,13.1222269 L13.052447,108.706394 C13.052447,116.318114 19.18831,122.498503 26.7445837,122.498503 C33.3953429,122.498503 37.368779,119.376854 39.2764768,114.151074 C40.290723,111.372737 40.5736859,108.467051 40.4572814,106.061255 C40.4498486,105.907638 40.4424826,105.801623 40.437709,105.747896 L40.4134781,105.475178 L40.6859716,105.47485 L95.5458394,105.408583 L95.5458394,13.7846258 C95.5458394,7.61319437 93.1680255,3.82533766 89.1807962,1.89033449 L88.9184856,1.7667601 C87.6342197,1.17962302 86.2591966,0.815597376 84.8624697,0.633346891 Z" fill="#052461" fill-rule="nonzero" transform="translate(41.955061 28)"/>
      <path d="M23.627836,27.3508197 L77.8669284,27.3508197 C78.9714979,27.3508197 79.8669284,26.4553892 79.8669284,25.3508197 L79.8669284,21.9540984 C79.8669284,20.8495289 78.9714979,19.9540984 77.8669284,19.9540984 L23.627836,19.9540984 C22.5232665,19.9540984 21.627836,20.8495289 21.627836,21.9540984 L21.627836,25.3508197 C21.627836,26.4553892 22.5232665,27.3508197 23.627836,27.3508197 Z" fill="#3491FA" transform="translate(41.955061 28)"/>
      <path d="M24,48 C37.254834,48 48,37.254834 48,24 C48,10.745166 37.254834,-2.4348735e-15 24,0 C10.745166,2.4348735e-15 -1.623249e-15,10.745166 0,24 C1.623249e-15,37.254834 10.745166,48 24,48 Z" stroke="#052461" stroke-width=".5" fill="#40C776" transform="translate(107.582897 75.468384)"/>
      <path d="M38.0750734,14.8786798 C39.3083099,16.0502529 39.3083099,17.9497479 38.0750734,19.1213208 L22.2856013,34.1213197 C21.0523664,35.292893 19.0528979,35.292893 17.8196634,34.1213211 L9.92492627,26.6213221 C8.69169137,25.4497495 8.69169137,23.5502537 9.9249259,22.3786808 C11.1581603,21.2071076 13.1576286,21.2071072 14.3908633,22.3786801 L20.0526323,27.75736 L33.6091371,14.8786797 C34.842372,13.7071068 36.84184,13.7071068 38.0750734,14.8786798 Z" fill="#FFF" fill-rule="nonzero" transform="translate(107.582897 75.468384)"/>
    </g>
  </g>
</svg>
