<svg xmlns="http://www.w3.org/2000/svg" viewBox="0 0 200 200" class="design-iconfont">
  <g fill="none" fill-rule="evenodd">
    <path d="M61.4402173,100.395306 C61.4438187,100.425957 61.4456194,100.454205 61.449821,100.482452 C64.0259927,120.281575 91.6072733,116.75 126.311912,116.5 C161.01655,116.25 179.017365,106.794876 178.947739,87.9982412 C192.008665,81.8486914 200.172344,71.9037539 198.86265,61.8422202 C198.031337,55.4510638 193.515233,50.0876371 186.69246,46.3595627 C190.240398,40.8753326 191.880817,34.9601774 191.107125,29.0143705 C188.530353,9.21524825 160.18106,-3.41080158 127.786242,0.814910358 C107.245894,3.49602271 90.0145951,12.3086545 80.8089229,23.4459988 C72.890136,22.2217384 64.1910549,22.0913189 55.1780554,23.2674984 C22.7838369,27.4944124 -1.38848042,46.9707914 1.18829149,66.7729187 C3.0670001,81.2086142 18.6458762,91.8272856 39.5025429,94.8852321 C45.4081704,98.0687901 53.0112381,100.034699 61.4402173,100.395306 Z" fill="#F2F3F5" transform="translate(0 43)"/>
    <path fill="#052461" d="M0 116H200V117H0z" transform="translate(0 43)"/>
    <g fill-rule="nonzero">
      <path d="M38.4109403,0 L38.4066908,37.4681213 L47.25,37.4723718 L47.25,48.4386512 L38.4066908,48.4344007 L38.4109403,60 L26.3592224,60 L26.3592224,48.574667 L0.25,48.574667 L0.25,38.5349957 L0.362504213,38.0590863 L19.1285078,0.586714486 L19.4223319,0 L38.4109403,0 Z M26.3592224,13.3338056 L13.9335443,37.4681213 L26.3592224,37.4681213 L26.3592224,13.3338056 Z" fill="#FFF" transform="translate(17.75 98)"/>
      <path d="M38.4109403,1 C38.5490226,1 38.660956,1.11194609 38.6609403,1.25002835 L38.656,38.468 L47.2501202,38.4723718 C47.3684267,38.4724287 47.4675072,38.5546559 47.4934015,38.6650673 L47.5,38.7223718 L47.5,49.6886512 C47.5,49.8267693 47.3879979,49.9387175 47.2498798,49.9386511 L38.656,49.934 L38.6609403,61.2499081 C38.6609838,61.3682856 38.5787457,61.4674712 38.468277,61.4933941 L38.4109403,61.5 L26.3592224,61.5 C26.2211512,61.5 26.1092224,61.3880712 26.1092224,61.25 L26.109,50.074 L0.25,50.074667 C0.131653268,50.074667 0.0325131786,49.9924336 0.00660267821,49.8819898 L0,49.824667 L0.00670573706,39.7274814 L0.13896861,39.1971406 L18.9049722,1.72476881 L19.1987963,1.13805433 C19.2411726,1.05343653 19.3276962,1 19.4223319,1 L38.4109403,1 Z M38.16,1.5 L19.576,1.5 L19.3520434,1.94866016 L0.605798476,39.3666006 L0.5,39.7849957 L0.5,49.574 L26.3592224,49.574667 C26.4775692,49.574667 26.5767092,49.6569005 26.6026197,49.7673443 L26.6092224,49.824667 L26.609,61 L38.16,61 L38.1566908,49.6844925 C38.1566473,49.5660748 38.2389392,49.4668692 38.3494528,49.4409832 L38.4068109,49.4344007 L47,49.438 L47,38.972 L38.4065706,38.9681213 C38.2882546,38.9680644 38.1891694,38.8858244 38.1632838,38.7754024 L38.1566908,38.7180929 L38.16,1.5 Z M26.136952,14.4693685 C26.2569776,14.2362435 26.6092224,14.3215968 26.6092224,14.5838056 L26.6092224,38.7181213 C26.6092224,38.8561925 26.4972936,38.9681213 26.3592224,38.9681213 L13.9335443,38.9681213 C13.7464062,38.9681213 13.6256117,38.7700653 13.7112739,38.6036842 L26.136952,14.4693685 Z M26.109,15.615 L14.342,38.468 L26.109,38.468 L26.109,15.615 Z" fill="#0C296E" transform="translate(17.75 98)"/>
      <path d="M147.150487,0.750653853 C148.550023,0.753374031 149.628214,0.764534504 150.396393,0.783451706 C150.628778,0.789174428 150.860534,0.796867683 151.053353,0.804815471 C151.1688,0.809752163 151.1688,0.809752163 151.245574,0.813644826 C151.275938,0.815332795 151.275938,0.815332795 151.297312,0.816827063 L151.309,0.819 L151.834805,0.846939164 C153.066302,0.9220257 154.155718,1.04642734 155.17762,1.2318113 L155.611663,1.3150292 C158.376893,1.93546568 161.163709,3.29594713 163.130966,5.00836921 C165.539663,7.06035537 167.328783,9.62541621 168.230168,12.3557188 C170.341825,18.8254311 169.162449,24.8934659 164.842284,29.256981 L164.779,29.317 L164.987945,29.5476419 C166.031988,30.7343517 166.866822,32.0126577 167.491107,33.385412 L167.672074,33.8000746 L167.869081,34.2966466 C170.042329,39.6761187 170.043528,45.1015389 167.874705,50.3989874 C166.335724,54.3206318 163.346787,57.5508843 159.633378,59.2812373 C157.724442,60.1460922 155.759662,60.6945266 153.577857,60.9830664 C152.163481,61.170115 150.974146,61.2419994 149.160706,61.2494845 L148.531898,61.2494845 C147.910801,61.2474505 147.196697,61.2394809 146.293481,61.2250416 C145.251827,61.2083892 144.730492,61.201994 144.210703,61.1999638 L143.840844,61.1992649 C135.090467,61.1992649 128,53.9207883 128,44.9607895 L128,42.034857 C128,41.8967858 128.111929,41.784857 128.25,41.784857 L139.633445,41.784857 C139.771517,41.784857 139.883445,41.8967858 139.883445,42.034857 L139.883445,43.3114785 C139.883445,44.0696817 140.006424,44.7724349 140.245546,45.3542826 C141.08113,47.6040478 144.230279,48.8258336 148.326233,48.582568 C151.179504,48.4179477 152.867524,47.9625404 154.148029,46.9817323 C155.884942,45.6546041 156.586268,42.5846001 155.816446,39.5950731 C155.242407,37.3294095 153.676448,35.994858 150.946239,35.4970889 C149.708401,35.2130424 148.101318,35.0741791 146.062429,35.0741791 L141.906214,35.0741791 C141.768143,35.0741791 141.656214,34.9622502 141.656214,34.8241791 L141.656214,23.7604914 C141.656214,23.6224202 141.768143,23.5104914 141.906214,23.5104914 L146.062429,23.5104914 C148.111797,23.5104914 149.715174,23.3701216 151.024091,23.071825 C152.402707,22.8297477 153.420641,22.4330531 154.112009,21.8746197 C156.297802,20.0983145 156.327642,16.6596705 154.066954,14.7031494 C152.654154,13.4616014 148.875572,12.8412368 145.649694,13.3888221 C141.933551,14.0196286 139.883445,15.8461468 139.883445,18.5718139 L139.883445,19.8484354 C139.883445,19.9865066 139.771517,20.0984354 139.633445,20.0984354 L128.25,20.0984354 C128.111929,20.0984354 128,19.9865066 128,19.8484354 L128,16.8565305 C128,7.46448193 135.992527,0.75000011 146.454709,0.75000011 L147.150487,0.750653853 Z" fill="#052461" transform="translate(17.75 98)"/>
      <path d="M151.248924,1.31466564 C151.243156,1.31429086 151.237047,1.31394896 151.218721,1.31292323 C151.146002,1.30923562 151.146002,1.30923562 151.032761,1.30439126 C150.842658,1.29655542 150.61366,1.28895372 150.384084,1.28330016 C149.620272,1.26449051 148.54559,1.25336636 147.149767,1.25065327 L146.454474,1.25 C136.251256,1.25 128.5,7.76179139 128.5,16.8565305 L128.5,19.598 L139.383,19.598 L139.383445,18.5718139 C139.383445,15.6445978 141.518928,13.6669566 145.266793,12.9498619 L145.566017,12.8958736 C148.926309,12.3254719 152.852217,12.9700244 154.395584,14.3263218 C156.888755,16.4840354 156.855733,20.2891916 154.426764,22.2631153 C153.660243,22.8822527 152.565819,23.308756 151.122936,23.5617948 C149.785109,23.8670139 148.146233,24.0104914 146.062429,24.0104914 L142.156,24.01 L142.156,34.574 L146.062429,34.5741791 C147.987758,34.5741791 149.541531,34.6965531 150.769385,34.9473207 L151.046971,35.007472 C153.950571,35.5365761 155.676672,37.0076047 156.30089,39.4713291 C157.11628,42.6378051 156.367609,45.9150582 154.451831,47.3788523 C153.076393,48.432375 151.299043,48.9118824 148.355455,49.0817132 C144.065739,49.336487 140.707254,48.0334847 139.779977,45.5364104 C139.517638,44.8985001 139.383445,44.1316669 139.383445,43.3114785 L139.383,42.284 L128.5,42.284 L128.5,44.9607895 C128.5,53.5402883 135.201008,60.5248988 143.528291,60.6960511 L143.841317,60.6992653 L144.212152,60.6999662 C144.734952,60.7020076 145.257951,60.7084233 146.301473,60.7251055 C147.202746,60.7395137 147.914861,60.7474611 148.532668,60.7494858 L149.159642,60.7494858 C150.951946,60.7420855 152.120342,60.6714665 153.512303,60.4873822 C155.646455,60.2051446 157.563798,59.6699514 159.424615,58.8269125 C163.017985,57.1524792 165.916671,54.0197646 167.410622,50.2129398 C169.531233,45.0331828 169.530064,39.7429403 167.404903,34.482486 L167.209063,33.9887533 C166.535376,32.37839 165.565833,30.8944433 164.30552,29.5382538 L164.251926,29.4827723 C164.156459,29.3839414 164.15865,29.2265876 164.256832,29.1304529 L164.489722,28.9024608 C168.669463,24.6807374 169.810618,18.8093518 167.75511,12.511664 C166.883688,9.87212439 165.147766,7.38333371 162.804704,5.38724338 C160.900002,3.72929152 158.188688,2.40566893 155.507392,1.8040071 C154.24824,1.54945085 152.887849,1.39475607 151.274092,1.31716759 L151.22,1.307 C151.231295,1.31063221 151.234611,1.31152109 151.237352,1.31211972 L151.254,1.315 L151.248924,1.31466564 Z" fill="#FFF" transform="translate(17.75 98)"/>
    </g>
    <g fill="#F2F3F5" fill-rule="nonzero">
      <path transform="scale(-1 1) rotate(-71 13.24501845 75.98931161)" d="M13.2541662 2.18016004L32.4155685 36.2241576 13.8515483 43.883616z"/>
      <path transform="scale(-1 1) rotate(-71 13.24501845 98.33305485)" d="M34.3300246 3.89382898L56.5417426 12.7003382 50.6660277 23.4865189z"/>
    </g>
    <g fill-rule="nonzero">
      <path fill="#226FD4" transform="matrix(1 0 0 1 98.61045834 133.68397484)" d="M3.93908837 23.9538358L25.6483991 23.9529839 25.9877816 23.9297551 26.3069644 23.8651431 26.6099878 23.7591476 26.8968518 23.6147968 27.1584653 23.4391565 27.3958386 23.2291988 27.6059413 22.9919891 27.7817027 22.7315654 27.9261531 22.4448994 28.0322218 22.1420849 28.0968784 21.8221129 28.1201232 21.4829645 28.0948856 21.1276681 28.0181343 20.781458 27.8939094 20.4503903 27.7222107 20.1374931 16.5101652 2.87572899 16.2657421 2.55879717 15.9869747 2.29536317 15.6728532 2.08038021 15.3294378 1.91687614 14.9718793 1.80888784 14.5951274 1.75439678 14.214333 1.75945856 13.8365665 1.82407291 13.4567773 1.95227749 3.89332703 6.07995675 3.89332703 6.07995675 1.49787531 21.0954026 1.46756011 21.433542 1.48168821 21.7595671 1.53823941 22.075497 1.63519357 22.3813315 1.76851083 22.6669773 1.9371811 22.9334437 2.13918436 23.1777028 2.36947057 23.392689 2.63005977 23.5804212 2.91287178 23.7328246 3.2179067 23.8468711 3.54920476 23.9235701z"/>
      <path d="M14.6222599,1.56337519 L15.0272206,1.62414365 L15.4119795,1.74265736 L15.7814647,1.921175 L16.1191696,2.1551797 L16.418232,2.44104728 L16.6716983,2.77072899 L27.8918245,20.0451383 L28.0750398,20.3830938 L28.2070087,20.7402029 L28.2878658,21.1145189 L28.3131519,21.4966937 L28.2865483,21.8608773 L28.2148746,22.2064308 L28.0990191,22.5322976 L27.9421922,22.8400877 L27.7509312,23.1205163 L27.5242141,23.3743277 L27.2665393,23.5999621 L26.9840844,23.7877697 L26.6741686,23.9418923 L26.3456853,24.0548696 L26.0013592,24.1228583 L25.6487884,24.1465242 L3.93937313,24.1465242 L3.9244102,24.145944 L3.50589699,24.1112628 L3.15050887,24.0272936 L2.82147638,23.902347 L2.51738199,23.7366158 L2.23787868,23.5333447 L1.99054784,23.3002606 L1.77417926,23.0362104 L1.59367798,22.7481297 L1.45125798,22.4391708 L1.34828485,22.10901 L1.28888062,21.7674221 L1.27532885,21.4158013 L1.30727003,21.0644893 L3.70214388,6.04920978 L3.71886214,5.94439037 L3.81634374,5.90231987 L13.3944479,1.76936694 L13.8034589,1.63379505 L14.2112353,1.56644798 L14.6222599,1.56337519 Z M14.597153,1.94759333 L14.2463674,1.94989229 L13.8978266,2.00710867 L13.5328105,2.12962889 L4.06633377,6.21386375 L1.69044128,21.1121272 L1.66072841,21.424667 L1.67202901,21.7250337 L1.72258638,22.0166404 L1.81046214,22.2991681 L1.93197153,22.5632088 L2.0862983,22.8098961 L2.27127705,23.036072 L2.48266732,23.2355366 L2.72199011,23.4099606 L2.98081784,23.5514858 L3.26177326,23.6582862 L3.56444939,23.7305974 L3.95433607,23.7608783 L25.6356009,23.7608783 L25.9498398,23.7409228 L26.2435591,23.6833178 L26.5235237,23.5871185 L26.7895363,23.4549581 L27.0308357,23.2950159 L27.2515791,23.1016797 L27.4461646,22.8844925 L27.6095296,22.645208 L27.7441712,22.381607 L27.8431992,22.1043837 L27.9044716,21.8094534 L27.9277376,21.4971867 L27.9065777,21.1699956 L27.8375429,20.8498224 L27.7248079,20.5438044 L27.5604452,20.2431904 L16.3566976,2.99381126 L16.1325442,2.69929527 L15.8773385,2.45486206 L15.5892687,2.25486868 L15.2730397,2.10186383 L14.9436802,2.00012489 L14.597153,1.94759333 Z" fill="#052461" transform="matrix(1 0 0 1 98.610557 133.68392012)"/>
    </g>
    <g fill-rule="nonzero">
      <path fill="#FFF" transform="rotate(7 -654.16601635 561.64777264)" d="M14.9205676 10.308923L16.0784826 9.75065691 17.2875288 9.21575972 18.5501013 8.70700275 19.8670872 8.22325619 21.2417687 7.76616152 22.950972 7.2579593 24.7262966 6.79478485 26.5700133 6.37840328 28.484269 6.00957354 30.3928227 5.70272256 32.3497901 5.44714949 34.3564306 5.24474307 36.4157784 5.09513241 38.4648824 5.00397027 40.5457039 4.97021254 42.6571072 4.99297665 44.8004761 5.07515755 46.5129488 5.18447971 48.2041089 5.32909083 49.8742048 5.51100327 51.5239995 5.72808104 53.1753515 5.98275882 54.7949054 6.2709433 56.3824131 6.59062207 57.9400213 6.94255407 59.4982995 7.33321592 61.0129105 7.75270724 62.4877754 8.19952732 63.9209957 8.67492961 65.3539988 9.19019157 66.7336122 9.73036472 68.0624976 10.2920596 69.3420386 10.8781711 70.6156667 11.5079027 71.827957 12.1563676 72.979797 12.8224359 74.0743446 13.5067429 75.1181642 14.2125716 76.0967434 14.9304612 77.0110937 15.6602879 77.8641249 16.4006748 78.6591193 17.1532632 79.4342716 17.961388 80.1372469 18.7752721 80.7714516 19.5975632 81.3400437 20.4288964 81.8450459 21.2690247 82.2707236 22.0902519 82.6323151 22.9162492 82.9312038 23.7499118 83.1696607 24.5930046 83.3489453 25.4474164 83.4499293 26.1663668 83.5055273 26.8918868 83.514089 27.6272422 83.4766257 28.3723094 83.3902275 29.1284655 83.2564022 29.8996117 83.0007388 31.0063597 82.6877273 32.155866 82.3111754 33.3478662 81.8705683 34.5865086 81.392759 35.7898657 80.8552438 37.0168634 80.2561241 38.2687551 79.59249 39.546918 78.8936765 40.7895484 78.1370928 42.0382195 77.3188178 43.2944321 76.437592 44.5562975 75.5229611 45.7803707 74.5505974 46.9941383 73.51823 48.1958352 72.4250958 49.3875975 71.2988233 50.5354068 70.1147312 51.655558 68.8729434 52.7490573 67.5723246 53.8150222 66.2854302 54.7924935 64.9475658 55.7312558 63.5555735 56.6306737 62.1095772 57.4917534 60.9354188 58.1347355 59.7274645 58.74508 58.4857143 59.3227869 57.2080215 59.8670972 55.8933747 60.3781346 54.5756815 60.8394977 53.2221884 61.2602972 51.8327712 61.639527 50.4062947 61.9763045 48.9398487 62.2720068 47.4840188 62.5122792 45.9892494 62.7031796 44.4564278 62.8435781 42.8813847 62.9329631 41.2639959 62.9703285 39.9321072 62.9503226 38.6339337 62.8873835 37.370611 62.7823936 36.1380936 62.6358474 34.9365056 62.4487513 33.7649599 62.2222349 32.3474617 61.8909654 30.9743071 61.5113779 29.6412025 61.0819545 28.347509 60.6058374 27.091967 60.0811379 25.8480522 59.5008848 24.6426426 58.8832411 23.4754899 58.2261942 22.3436844 57.5311214 21.2471017 56.7970164 20.1718502 56.0194493 19.1331866 55.2139181 18.1309869 54.3794167 17.1632284 53.5161923 16.229787 52.6232387 15.2266319 51.5978594 14.2667532 50.5488052 13.350275 49.4770823 12.4770732 48.3816845 11.6350304 47.2559223 10.8388885 46.119442 10.0856135 44.9726146 9.3749572 43.8134278 8.69620445 42.6299136 8.062819 41.4480029 7.47302635 40.2699555 6.92746558 39.0926291 6.41089844 37.8923525 5.9406727 36.7099021 5.51565292 35.5443955 5.13356826 34.3940675 4.78148858 33.2206656 4.47660029 32.0803065 4.21448579 30.9704661 3.99615643 29.8910209 3.81086603 28.7881309 3.67058304 27.7338711 3.57278843 26.7244641 3.51634677 25.7590271 3.51408898 24.8084151 3.57673024 23.8845957 3.70074018 22.9839151 3.88700605 22.1052434 4.13503149 21.244556 4.44178249 20.4022236 4.8052364 19.5784936 5.22514503 18.7713536 5.70239563 17.9796737 6.24090944 17.2019532 6.85742002 16.4157193 7.53341931 15.6457045 8.27117818 14.8936738 9.07158386 14.1584976 9.94082844 13.4404401 10.8228418 12.7759752 11.7605468 12.1302364 12.7539434 11.5032235 13.8063137 10.896578z"/>
      <path d="M40.5483852,4.72035858 L42.6666855,4.74317594 L44.8164033,4.82568115 L46.5342484,4.93540446 L48.2311795,5.08057653 L49.9068182,5.26315542 L51.5621048,5.48101788 L53.2191486,5.73664084 L54.8442575,6.02587871 L56.4375101,6.34678475 L58.0008151,6.70007422 L59.5650281,7.09230162 L61.0853961,7.51346198 L62.5664838,7.96225636 L64.0055855,8.43969111 L65.445146,8.95741519 L66.8309448,9.50010596 L68.1666105,10.0647859 L69.4528438,10.6540838 L70.7335839,11.2874746 L71.9531053,11.9399627 L73.1123265,12.6104707 L74.2143831,13.2996616 L75.2660404,14.0110121 L76.2527015,14.7350875 L77.1749644,15.4715012 L78.0359931,16.219138 L78.8395382,16.9802212 L79.6234685,17.7979887 L80.335208,18.6226072 L80.9778032,19.4564442 L81.5543127,20.3001147 L82.0670003,21.1539917 L82.4997407,21.9900122 L82.8676472,22.8318925 L83.1717667,23.6818877 L83.4143322,24.5416799 L83.596515,25.4126585 L83.6991983,26.1472805 L83.7555102,26.8889919 L83.7637734,27.6398125 L83.7250095,28.4007054 L83.6365458,29.1712275 L83.4999873,29.9558966 L83.2419558,31.0720591 L82.9261153,32.2311884 L82.5467169,33.4316683 L82.1029219,34.6787835 L81.6217499,35.8901964 L81.08075,37.1248 L80.478,38.3839709 L79.8103962,39.669477 L79.10749,40.9191161 L78.3465711,42.1746858 L77.5237843,43.4375866 L76.6378604,44.7059545 L75.7180723,45.9366924 L74.7402288,47.1570648 L73.7024656,48.3648397 L72.6035385,49.5627079 L71.4706283,50.7170348 L70.2799498,51.8431977 L69.0314149,52.9424296 L67.7235395,54.0141208 L66.4290273,54.9971549 L65.0832421,55.9412523 L63.6834847,56.8454886 L62.2296544,57.7110439 L61.048162,58.3578856 L59.8329193,58.9717657 L58.5836961,59.5528016 L57.2985999,60.1001269 L55.9759893,60.6141054 L54.6499018,61.078242 L53.2880157,61.5014908 L51.8902145,61.8828538 L50.4557113,62.2213876 L48.9805583,62.5186857 L47.5156895,62.7602807 L46.0120525,62.9521531 L44.4705926,63.0931922 L42.8871586,63.1829122 L41.2602411,63.220316 L39.9200006,63.2000451 L38.6132284,63.1365403 L37.3410938,63.0306607 L36.0996301,62.8828866 L34.8890474,62.6942211 L33.7080677,62.4656912 L32.2808511,62.1319439 L30.8976549,61.7493526 L29.554857,61.3165858 L28.2511114,60.8365207 L26.9862815,60.3077162 L25.7340482,59.7233935 L24.520003,59.1011089 L23.3446598,58.439244 L22.2046094,57.7388827 L21.1006056,56.9996128 L20.0186398,56.2170166 L18.9732157,55.4060519 L17.9645736,54.5659978 L16.9904128,53.6968592 L16.0510841,52.7980839 L15.0421897,51.7666386 L14.0767515,50.7112998 L13.1547867,49.6329324 L12.2768787,48.5314408 L11.4302736,47.3993768 L10.6299324,46.2567071 L9.87247838,45.1032959 L9.15809065,43.9378177 L8.47585134,42.7480164 L7.83927048,41.5599388 L7.24619641,40.3750818 L6.69782929,39.1914742 L6.17859302,37.9847492 L5.70580193,36.795567 L5.27839808,35.623216 L4.89411489,34.4659312 L4.53997156,33.2852536 L4.23329365,32.1377847 L3.96944762,31.0200434 L3.74961152,29.9324572 L3.56305018,28.8211217 L3.42174802,27.7579948 L3.32321445,26.7390704 L3.26634735,25.7596366 L3.26466161,24.7915179 L3.32906659,23.8505119 L3.45617481,22.9320864 L3.64678148,22.0360333 L3.90012319,21.1590255 L4.2130574,20.3013191 L4.58345411,19.4631288 L5.01103973,18.6422997 L5.49685884,17.8373705 L6.04417854,17.0477062 L6.66954638,16.2508001 L7.35495722,15.470645 L8.10206311,14.7095697 L8.91236524,13.9657713 L9.79040055,13.2407774 L10.6810505,12.5700899 L11.6271086,11.9188419 L12.6290885,11.2866491 L13.6896896,10.6754629 L14.8039436,10.0878079 L15.9773359,9.52204767 L17.1940911,8.98389312 L18.4639037,8.47234849 L19.788206,7.98604253 L21.1705182,7.52654548 L22.8878605,7.01607225 L24.6712239,6.55094199 L26.5227143,6.13293415 L28.4445843,5.76275909 L30.3604484,5.45484334 L32.3247002,5.1984274 L34.3383159,4.99541594 L36.404667,4.84539518 L38.460841,4.75401867 L40.5483852,4.72035858 Z M13.9311683,11.1131839 L12.8873813,11.7146494 L11.9023379,12.3361532 L10.9732695,12.9756694 L10.1000468,13.6331978 L9.2406987,14.3426332 L8.44964004,15.0687648 L7.72129271,15.8106552 L7.05415068,16.5699978 L6.446446,17.3442878 L5.9165007,18.108759 L5.44692709,18.8867498 L5.03396126,19.6794295 L4.67669055,20.4877855 L4.37525582,21.3137975 L4.13157119,22.1571035 L3.9484036,23.0180303 L3.82615738,23.9015243 L3.76408816,24.807837 L3.76592051,25.7444522 L3.82162321,26.7003719 L3.91839867,27.7009117 L4.05741071,28.746726 L4.24119437,29.841475 L4.4577922,30.9130194 L4.71811707,32.0157498 L5.02094171,33.1488333 L5.37082286,34.3152784 L5.75052345,35.4587621 L6.17297788,36.6175369 L6.64053449,37.7935389 L7.15429528,38.9875343 L7.69657463,40.1580511 L8.28317187,41.3299316 L8.91307076,42.5055551 L9.58809208,43.682778 L10.2945694,44.835381 L11.0436451,45.9760189 L11.8352246,47.1061975 L12.6725613,48.2258659 L13.5402765,49.3146192 L14.4511952,50.3800575 L15.4053345,51.4230457 L16.4026023,52.4426033 L17.3296415,53.3296427 L18.2909576,54.1873145 L19.2863968,55.0163823 L20.3183461,55.8168844 L21.3861764,56.5892866 L22.4745143,57.3181031 L23.5981294,58.0083578 L24.7566464,58.6607639 L25.9537375,59.274338 L27.1883644,59.8504861 L28.4338543,60.3712376 L29.7178544,60.8440113 L31.0409174,61.2704309 L32.4043536,61.6475406 L33.8124179,61.9767965 L34.9749689,62.2017436 L36.1676105,62.3876118 L37.391316,62.5332682 L38.6460401,62.6376925 L39.9358618,62.7003666 L41.2582218,62.7204109 L42.8672197,62.6833805 L44.4336245,62.594636 L45.9575784,62.4552095 L47.443309,62.2656318 L48.8904319,62.0269553 L50.3488511,61.7330092 L51.7669436,61.3983649 L53.1479678,61.0215844 L54.4930666,60.6035583 L55.8027959,60.1451364 L57.1100394,59.637114 L58.3802592,59.0961327 L59.614721,58.5219614 L60.8153414,57.9154764 L61.9816658,57.2769699 L63.419897,56.4207086 L64.8039685,55.5266259 L66.134215,54.5934263 L67.4138528,53.6216814 L68.7077245,52.5614491 L69.9429259,51.4739616 L71.1203803,50.3603279 L72.2408599,49.2186245 L73.3285984,48.0329402 L74.355486,46.837848 L75.3226924,45.6307452 L76.2326253,44.4131745 L77.1093392,43.1579972 L77.9232791,41.9086832 L78.67577,40.6670209 L79.3706139,39.4317337 L80.0306177,38.16085 L80.6262526,36.9165642 L81.1604052,35.6976222 L81.6350265,34.502738 L82.0727871,33.2725753 L82.4465101,32.0901981 L82.7571535,30.9501063 L83.0100837,29.8568811 L83.1418435,29.100101 L83.226941,28.3597705 L83.2641058,27.6301684 L83.256258,26.9110045 L83.2023594,26.2011562 L83.1042737,25.4987726 L82.9290976,24.6610602 L82.6958714,23.8343 L82.4032978,23.0165203 L82.048769,22.2053162 L81.6307768,21.3978378 L81.133692,20.5700468 L80.5734903,19.7502595 L79.9480497,18.9387029 L79.2538524,18.1344615 L78.4872509,17.3348314 L77.7002541,16.589493 L76.8551354,15.8556931 L75.9488669,15.1320522 L74.9781254,14.4196844 L73.9418148,13.7187395 L72.8546485,13.0388722 L71.7100396,12.3768272 L70.5048612,11.7320215 L69.2379254,11.1054763 L67.9651648,10.5223498 L66.6424648,9.96317257 L65.2694088,9.42546153 L63.8422871,8.91223202 L62.4152896,8.43880404 L60.9461817,7.993653 L59.4375055,7.57572722 L57.8849241,7.18642285 L56.3330608,6.83571811 L54.7511081,6.51709274 L53.1372459,6.22985344 L51.4913858,5.97596035 L49.8471339,5.75954903 L48.182809,5.57819754 L46.4970214,5.43398757 L44.7908976,5.32498972 L42.6544256,5.242978 L40.5497451,5.22031153 L38.4759935,5.25373896 L36.4338929,5.34449099 L34.3815203,5.49349662 L32.3821642,5.69506018 L30.4325071,5.94956847 L28.5315677,6.25507413 L26.6250858,6.62227761 L24.7894078,7.03670336 L23.0222222,7.49760679 L21.3206496,8.00340664 L19.9532845,8.4579419 L18.6435388,8.93890081 L17.3886753,9.44440042 L16.187055,9.9758659 L15.02914,10.534132 L13.9311683,11.1131839 Z" fill="#052461" transform="rotate(7 -654.16588735 561.64778164)"/>
      <path fill="#FFF" transform="rotate(7 -653.15721335 552.73438664)" d="M8.01331198 15.4174626L8.67236111 14.7467912 9.39029891 14.0850992 10.1693676 13.4341395 11.0145612 12.7932969 11.927755 12.1613258 12.839564 11.584314 13.8077545 11.0206487 14.8335701 10.4722061 15.9200072 9.93861697 17.0681867 9.42075785 18.4593792 8.85064135 19.9261347 8.3097714 21.4706954 7.79990101 23.0960577 7.32066105 24.7151637 6.89799503 26.398581 6.51204924 28.1474309 6.16370018 29.9649543 5.85457781 31.7717368 5.59852338 33.6304579 5.38578638 35.54336 5.21811978 37.5105653 5.09652314 39.4646651 5.02524191 41.4583308 5.00387528 43.4928059 5.03429929 45.5679681 5.11551439 47.6407467 5.25181174 49.6674797 5.43436547 51.6471684 5.66329863 53.5838078 5.93811907 55.5278069 6.26479229 57.4119198 6.63232466 59.2387759 7.03734846 61.0084975 7.48086323 62.7838259 7.97847592 64.4869357 8.50730632 66.1208232 9.06698529 67.6863651 9.65639027 69.2537632 10.3023844 70.7358562 10.9720769 72.1373934 11.6628535 73.4614935 12.3753445 74.5500177 13.0103221 75.5747411 13.6541738 76.5376614 14.3066534 77.4408986 14.9685144 78.2883254 15.6382651 79.1301277 16.3614681 79.9032778 17.0870406 80.6100179 17.8167355 81.2552198 18.5489381 81.8400046 19.2845249 82.3851439 20.0523898 82.8631393 20.8183799 83.2783531 21.5850018 83.6330273 22.3540083 83.9291597 23.1251534 84.1729271 23.9240558 84.3530363 24.7247125 84.4684885 25.5272465 84.5228918 26.3362864 84.5132498 27.1522012 84.437218 27.9641191 84.2998106 28.7633057 84.1000289 29.5498838 83.8382398 30.3268523 83.5115693 31.0955796 83.1353045 31.8318613 82.7021487 32.5589177 82.2092277 33.2781172 81.6536675 33.9908287 81.0323494 34.6964217 80.3734226 35.3680925 79.6553624 36.028785 78.8752949 36.6798678 78.0311001 37.3205873 77.1179064 37.9525584 76.2050986 38.5296933 75.2379068 39.0932355 74.2120912 39.6416781 73.1256542 40.1752672 71.9764758 40.6932494 70.5852834 41.2633659 69.1195267 41.8041128 67.574966 42.3139832 65.9486048 42.7933462 64.3304977 43.2158892 62.6470803 43.601835 60.8982305 43.950184 59.0807071 44.2593064 57.2729258 44.5154839 55.4142046 44.7282209 53.5023014 44.8957644 51.5350961 45.0173611 49.5809963 45.0886423 47.5873305 45.1100089 45.5528554 45.0795849 43.4766944 44.9984929 41.4040381 44.863195 39.3781816 44.6795187 37.3974942 44.4507086 35.4618536 44.1757651 33.5178544 43.8490919 31.6337415 43.4815596 29.8068854 43.0765358 28.0371638 42.633021 26.2608367 42.1355313 24.5577269 41.6067009 22.9248381 41.0468989 21.3592963 40.4574939 19.7918982 39.8114998 18.3098052 39.1418073 16.908268 38.4510308 15.5841678 37.7385397 14.4956437 37.1035621 13.4709202 36.4597104 12.5079999 35.8072308 11.6047627 35.1453698 10.7573359 34.4756191 9.91553365 33.7524161 9.14238357 33.0268436 8.43464461 32.2972718 7.7904415 31.5649461 7.20465793 30.8294824 6.66051743 30.0614944 6.182522 29.2955043 5.76730829 28.5288824 5.41275636 27.7608755 5.11650164 26.9887309 4.87173545 26.1899514 4.69274736 25.3901712 4.576174 24.5867607 4.52289183 23.7785974 4.53241156 22.961683 4.60844336 22.1497651 4.74597303 21.3515781 4.94563241 20.5640004 5.2074215 19.7870319 5.53409202 19.0183046 5.90935802 18.2821459 6.34251389 17.5550896 6.83543488 16.83589 7.39099508 16.1231785z"/>
      <path d="M41.462069,4.7539032 L43.5025826,4.7844905 L45.5843717,4.86605309 L47.6631742,5.00281972 L49.6961986,5.18602046 L51.6822929,5.41577837 L53.6252373,5.69157576 L55.575672,6.01941718 L57.4660322,6.38825118 L59.2995497,6.79484781 L61.0759704,7.24014054 L62.8579614,7.73972094 L64.5679506,8.27079711 L66.2089089,8.83301749 L67.7816275,9.42525161 L69.3567058,10.0745625 L70.8463788,10.7478342 L72.2558557,11.4427019 L73.5874621,12.1594002 L74.683022,12.7986388 L75.7149795,13.4472119 L76.6854279,14.1049975 L77.5959137,14.7723758 L78.4512385,15.4486356 L79.3012063,16.1791714 L80.0828565,16.913111 L80.7975866,17.6514538 L81.4509143,18.3933627 L82.043856,19.1398023 L82.5972366,19.9200391 L83.0829671,20.699318 L83.5053712,21.4802985 L83.8664105,22.2643853 L84.1682762,23.0521922 L84.416832,23.8691889 L84.6004888,24.6891141 L84.7179252,25.5104733 L84.7728744,26.3392405 L84.7621608,27.1755104 L84.6836028,28.006481 L84.5421172,28.8248487 L84.3369424,29.6297086 L84.0683267,30.4246276 L83.734185,31.2093437 L83.3500778,31.9598161 L82.9083635,32.7002521 L82.4064008,33.4318141 L81.8412936,34.156045 L81.210811,34.8714972 L80.5426974,35.5520654 L79.8155575,36.2207161 L79.0264358,36.879007 L78.1733661,37.5261606 L77.251508,38.1638652 L76.3309575,38.7457014 L75.3557782,39.3137039 L74.3223007,39.8660748 L73.2283858,40.4031843 L72.0712754,40.9245782 L70.6718127,41.4979137 L69.197894,42.0415124 L67.6456462,42.5537837 L66.0117702,43.0352348 L64.3863641,43.4595671 L62.6959178,43.8470183 L60.9401483,44.1966447 L59.1157837,44.5068334 L57.3013536,44.7638623 L55.4360289,44.9772664 L53.5177249,45.1452882 L51.5442095,45.2671949 L49.5836754,45.3386279 L47.5835924,45.359981 L45.5430982,45.3293944 L43.4604097,45.2479619 L41.3814642,45.1121738 L39.3494923,44.9278671 L37.3623364,44.6982241 L35.420424,44.4223084 L33.4699893,44.094467 L31.5796291,43.725633 L29.7461117,43.3190363 L27.9697415,42.8737578 L26.1867012,42.3742863 L24.4766517,41.8431894 L22.8367525,41.2808667 L21.2640338,40.6886325 L19.6889555,40.0393217 L18.1992826,39.3660499 L16.7898056,38.6711822 L15.4581993,37.9544839 L14.3626393,37.3152454 L13.3306819,36.6666722 L12.3602335,36.0088867 L11.4497477,35.3415084 L10.5944228,34.6652485 L9.74445499,33.9347128 L8.96294232,33.200915 L8.24693528,32.4623936 L7.59488915,31.7207 L7.00067049,30.974013 L6.44842477,30.1938451 L5.96269424,29.4145662 L5.54032825,28.6336682 L5.17934671,27.8504295 L4.87747193,27.0619756 L4.6277703,26.24455 L4.44533821,25.4260698 L4.32671558,24.6032075 L4.27290881,23.7756842 L4.28350058,22.9383738 L4.36207374,22.1073149 L4.50363891,21.2901438 L4.70871893,20.4841755 L4.97733461,19.6892565 L5.31136174,18.9047651 L5.69458471,18.1541911 L6.136299,17.4137551 L6.63826172,16.6821931 L7.20348637,15.9578289 L7.82580327,15.252113 L7.834997,15.2422376 L8.50293213,14.5629602 L9.23000069,13.8932542 L10.0183217,13.2349282 L10.8722952,12.5877235 L11.7940692,11.9500721 L12.7137815,11.3682613 L13.6898832,10.8001803 L14.7233607,10.2478094 L15.8172215,9.71072417 L16.9733872,9.18942894 L18.3728844,8.61608078 L19.8477674,8.07237178 L21.3999919,7.56010728 L23.0329116,7.07876731 L24.6592973,6.65431705 L26.3497435,6.2668658 L28.1055131,5.9172394 L29.9298752,5.6070511 L31.743309,5.35014489 L33.608629,5.13674117 L35.5279364,4.96859598 L37.5014519,4.84668927 L39.4619859,4.77525623 L41.462069,4.7539032 Z M7.58816824,16.2768754 L7.04164978,16.9772244 L6.55728721,17.6830443 L6.13208831,18.3956854 L5.76417891,19.11608 L5.44433498,19.8668567 L5.18796654,20.6254346 L4.99234265,21.3940282 L4.85735435,22.1730742 L4.78239459,22.9645961 L4.77235025,23.7621505 L4.82358315,24.5508621 L4.93671251,25.3355726 L5.11076517,26.1167067 L5.3499113,26.8991767 L5.6397364,27.6560897 L5.98713606,28.4098204 L6.39461466,29.1631535 L6.86450488,29.9169637 L7.40021028,30.6737284 L7.97815082,31.3998243 L8.61408586,32.1232004 L9.31346222,32.8445469 L10.0784467,33.5627866 L10.912351,34.2794805 L11.7525292,34.943714 L12.6482383,35.600269 L13.6039246,36.2480271 L14.6216122,36.8876178 L15.7026301,37.5183882 L17.0187906,38.2267881 L18.4127478,38.9139854 L19.8871606,39.5803612 L21.4473819,40.2235261 L23.0059133,40.8104104 L24.6318624,41.3679459 L26.328259,41.8947944 L28.0979376,42.3905203 L29.8609978,42.8324623 L31.6816066,43.2361844 L33.559284,43.6025486 L35.4970113,43.9282496 L37.4261835,44.2023602 L39.4007555,44.43054 L41.4203229,44.613726 L43.4864517,44.7486833 L45.5565935,44.8296128 L47.5846514,44.8600233 L49.5718829,44.8388084 L51.5196725,44.7678373 L53.480477,44.6467188 L55.3857769,44.4798424 L57.2378492,44.2679568 L59.0387893,44.0128456 L60.849393,43.7050006 L62.5912139,43.358157 L64.2673323,42.9740005 L65.8779246,42.5535456 L67.4965987,42.0765836 L69.0329973,41.569565 L70.4904838,41.032037 L71.8737442,40.4653323 L73.0154447,39.9508705 L74.0942198,39.4212096 L75.1120479,38.8772273 L76.071497,38.3183863 L76.9756404,37.746985 L77.8799592,37.1214481 L78.7150998,36.4879367 L79.4860876,35.8448121 L80.1949609,35.193017 L80.8447233,34.5312053 L81.4564943,33.8371318 L82.0030128,33.1367828 L82.4873753,32.4309629 L82.9126889,31.7180972 L83.2814824,30.9978042 L83.6013264,30.2470274 L83.8577224,29.4883408 L84.0534258,28.7209437 L84.188307,27.9408099 L84.2632672,27.149247 L84.2734551,26.3530595 L84.221036,25.5628449 L84.1091314,24.7795794 L83.9338106,23.9970169 L83.6957765,23.2147763 L83.4060092,22.4587115 L83.0585253,21.7040637 L82.6510467,20.9507306 L82.1812926,20.1971123 L81.6443101,19.4401001 L81.0676512,18.7142197 L80.4304392,17.990665 L79.7321991,17.2693373 L78.9672146,16.5510975 L78.1333104,15.8344036 L77.2931322,15.1701702 L76.3974231,14.5136152 L75.4417368,13.8658571 L74.4240491,13.2262664 L73.3430312,12.595496 L72.0268708,11.887096 L70.6329135,11.1998987 L69.1585007,10.533523 L67.5982794,9.89035801 L66.0398084,9.30349443 L64.4128002,8.74606124 L62.7163529,8.21919856 L60.9477237,7.72336382 L59.1846635,7.28142188 L57.3640547,6.87769971 L55.4863773,6.51133554 L53.5486832,6.18563927 L51.6184495,5.91164358 L49.6450523,5.68335743 L47.6243432,5.50127297 L45.5581914,5.36532312 L43.4890678,5.28427131 L41.46101,5.2538609 L39.4737785,5.27507572 L37.5259888,5.34604688 L35.5651889,5.46716493 L33.6588857,5.63416481 L31.8068159,5.84605003 L30.006872,6.10103853 L28.1962683,6.40888355 L26.4544474,6.75572716 L24.7783098,7.13988871 L23.1667612,7.56045473 L21.5490627,8.03730058 L20.0126295,8.54433191 L18.5541787,9.08197019 L17.1709723,9.64865059 L16.0302166,10.1630136 L14.9514415,10.6926745 L13.933537,11.2367014 L12.9732497,11.7955676 L12.0700209,12.3668991 L11.1656071,12.9925081 L10.3296658,13.6259844 L9.5597279,14.2689301 L8.85067609,14.9220161 L8.19162695,15.5926874 L7.58816824,16.2768754 Z" fill="#052461" transform="rotate(7 -653.15721335 552.73438664)"/>
      <path stroke="#052461" stroke-width=".36" fill="#3491FA" transform="rotate(7 -656.30979335 561.04033564)" d="M36.6924056 44.1449386L40.4964492 24.8823212 40.5911669 24.5105069 40.7192605 24.1619889 40.8813638 23.8336455 41.0762293 23.5236006 41.3031003 23.2339765 41.5536946 22.9718777 41.830139 22.7380576 42.1330675 22.5293946 42.4541977 22.3529932 42.7927731 22.2109756 43.1497957 22.1032187 43.5263902 22.030599 43.8342315 22.0110637 44.1274515 22.0298494 44.407809 22.084711 44.6786784 22.1782779 45.0165867 22.3539133 45.3148016 22.5790649 45.5758184 22.8574849 45.7378945 23.0922501 45.8668617 23.3473142 45.9638448 23.6235537 46.0272078 23.9242133 46.0482181 24.2361608 45.9300827 44.6888496 45.9300827 44.6888496 44.1328507 44.7147179 42.6713332 44.6912489 41.5000485 44.6291 39.5912337 44.458646z"/>
    </g>
    <g fill-rule="nonzero">
      <path fill="#3491FA" d="M2.32139033 17.7625034L24.3318062 20.8067413 24.6711895 20.8299566 24.9964317 20.8097694 25.3115733 20.7471889 25.6156041 20.6432245 25.8984234 20.5049418 26.1620515 20.3303221 26.4024479 20.1234027 26.6125423 19.8892306 26.7943547 19.6247776 26.9408147 19.3391279 27.0488921 19.0312723 27.1185869 18.699192 27.1428286 18.3600461 27.1428286 10.3679122 27.120607 9.91470838 27.061013 9.4756356 26.9630363 9.04867518 26.8266769 8.63180838 26.6539551 8.2280633 26.4489111 7.84450548 26.2105348 7.48214427 25.9388262 7.13694222 25.6378256 6.81798361 25.3085431 6.52728715 24.9509786 6.26485285 24.5631121 6.02967134 14.9411938 0.792088281 14.5098942 0.584159564 14.0755645 0.422661532 13.6371945 0.303556733 13.1917541 0.22785453 12.7392431 0.192526836 12.2927926 0.197573649 11.8513924 0.242994971 11.4130224 0.3287908 10.9827329 0.453951775 10.5696147 0.615449808 10.1706374 0.81429426 9.78479096 1.05250386 9.42318622 1.32301306 9.08683321 1.62884996 8.77573193 1.97203328 8.48685216 2.35357238 0.61639368 13.9269251 0.444681931 14.2206497 0.318423293 14.5214397 0.235597626 14.8313141 0.194184793 15.1492634 0.193174724 15.4641845 0.232567419 15.7780963 0.311352809 16.0849426 0.428520826 16.3766484 0.584071468 16.6572512 0.774974529 16.9146387 1.00325015 17.1478015 1.27091846 17.3587583 1.60121106 17.5475091 1.9496849 17.6817544z" transform="rotate(-7 1195.6951045 -548.90974967)"/>
      <path d="M12.7542835,-7.85147456e-14 L13.2241302,0.0374730363 L13.6878593,0.117203863 L14.1429092,0.241663509 L14.5938061,0.410216986 L15.0335735,0.622488278 L24.6632937,5.86455681 L25.0653022,6.10918898 L25.4364135,6.38253764 L25.7783407,6.68546582 L26.0906404,7.01752676 L26.3719368,7.37603616 L26.619284,7.75348589 L26.8315702,8.15212903 L27.0102854,8.57178804 L27.1513213,9.00549652 L27.2524347,9.44967134 L27.3135511,9.90525407 L27.3360043,10.3679122 L27.335513,18.37381 L27.3076464,18.7388448 L27.2311685,19.0952217 L27.1127241,19.4272131 L26.9535559,19.734158 L26.756351,20.0181691 L26.528492,20.2697443 L26.2687508,20.4913044 L25.983298,20.678417 L25.678126,20.8259434 L25.349211,20.9366011 L25.0084027,21.0025113 L24.6580019,21.0226192 L24.3053318,20.9980322 L2.29491591,17.9537943 L2.28036878,17.9512121 L1.88022153,17.8619504 L1.50534095,17.7151621 L1.15132015,17.5104098 L0.865193404,17.2828768 L0.619799789,17.0296564 L0.415105837,16.7508556 L0.249256699,16.4486058 L0.124242406,16.1329536 L0.0408940394,15.8021337 L1.52562616e-12,15.4635653 L0.0026260953,15.124329 L0.0489693586,14.781463 L0.140294612,14.4467176 L0.27789915,14.1232115 L0.456638886,13.8183543 L8.33282305,2.23702593 L8.63258926,1.8423563 L8.95685179,1.48599185 L9.3074469,1.16839822 L9.68328775,0.888197953 L10.0844476,0.641468377 L10.499261,0.435599238 L10.9287627,0.268528596 L11.3759072,0.139275607 L11.8316121,0.0508969632 L12.2906083,0.00447294688 L12.7542835,-7.85147456e-14 Z M12.7414274,0.385627538 L12.3125728,0.389671657 L11.8885075,0.432510164 L11.4669926,0.51421398 L11.0530865,0.633802345 L10.6558045,0.78827569 L10.2721406,0.978600164 L9.90053028,1.2071187 L9.55316764,1.46587117 L9.22997587,1.75852694 L8.92976103,2.08857973 L8.64660695,2.46214315 L0.78317646,14.0243633 L0.622810612,14.2953719 L0.505051561,14.5712909 L0.427156324,14.8562484 L0.387359517,15.1498825 L0.384848103,15.4401471 L0.419677822,15.7300853 L0.490616936,16.0129852 L0.597486457,16.283044 L0.739246208,16.5422335 L0.913031273,16.7795634 L1.12284846,16.99615 L1.36678857,17.1911053 L1.67067443,17.3673131 L1.99070645,17.4930457 L2.35828816,17.5727011 L24.3449938,20.6140788 L24.6592185,20.6372147 L24.958794,20.6203572 L25.2490514,20.56447 L25.5307295,20.4697494 L25.7917241,20.3439596 L26.0360074,20.1839806 L26.2586392,19.9944643 L26.4533411,19.7798502 L26.6224454,19.5366924 L26.7585384,19.2751785 L26.8598326,18.9916195 L26.9259025,18.6854281 L26.9498845,18.3600461 L26.9498845,10.3773665 L26.9291853,9.94067264 L26.8727279,9.51881426 L26.7794278,9.10869552 L26.6490619,8.70774266 L26.4835823,8.3190829 L26.287509,7.95061359 L26.0587206,7.60155973 L25.7983111,7.26946001 L25.5099552,6.96273312 L25.1942195,6.68295102 L24.850797,6.42996738 L24.4707323,6.19927134 L14.8572819,0.966030858 L14.4425496,0.765157587 L14.0248997,0.609014402 L13.6048184,0.493938227 L13.1767137,0.420381366 L12.7414274,0.385627538 Z" fill="#052461" transform="rotate(-7 1195.6951045 -548.90974967)"/>
      <path fill="#FFF" d="M15.295223 9.24317372A1.93175717 1.93113048 0 1 0 15.295223 13.10543468A1.93175717 1.93113048 0 1 0 15.295223 9.24317372Z" transform="rotate(-7 1195.6951045 -548.90974967)"/>
      <path d="M15.295223,9.05006072 C16.468791,9.05006072 17.4201559,10.0011169 17.4201559,11.1743042 C17.4201559,12.3474915 16.468791,13.2985478 15.295223,13.2985478 C14.1216549,13.2985478 13.1702901,12.3474915 13.1702901,11.1743042 C13.1702901,10.0011169 14.1216549,9.05006072 15.295223,9.05006072 Z M15.295223,9.43628681 C14.335031,9.43628681 13.5566415,10.2144237 13.5566415,11.1743042 C13.5566415,12.1341848 14.335031,12.9123217 15.295223,12.9123217 C16.255415,12.9123217 17.0338044,12.1341848 17.0338044,11.1743042 C17.0338044,10.2144237 16.255415,9.43628681 15.295223,9.43628681 Z" fill="#052461" transform="rotate(-7 1195.6951045 -548.90974967)"/>
    </g>
    <g fill-rule="nonzero">
      <path d="M30.3519633,30.7929683 L31.3949981,30.7986687 L32.4394696,30.8627991 L33.3819363,30.9711081 L34.2310183,31.1193205 L35.0714803,31.3188371 L35.8401078,31.5497063 L36.5426478,31.8133533 L37.2265108,32.1183287 L37.8701466,32.4489563 L38.4706818,32.805236 L39.3384408,33.3895347 L40.1630992,34.0194372 L41.7879922,35.4616574 L40.2047631,36.9380804 L32.3202245,44.2774421 L30.8864109,45.6142035 L29.5373617,44.1833843 L22.1887074,36.3138784 L20.7146665,34.7319966 L22.4214507,33.405211 L23.3394938,32.8679412 L24.2690303,32.362024 L25.2273006,31.9031358 L26.2574052,31.4998272 L26.9671286,31.2775087 L27.7371928,31.0908181 L28.571908,30.9397555 L29.4152433,30.8428474 L30.3519633,30.7929683 Z M30.7484889,15.0710579 L31.9826031,15.1138115 L33.433657,15.2021689 L34.8631606,15.3617822 L36.275424,15.5912263 L37.6690105,15.8919264 L39.04823,16.2653075 L40.407336,16.7056692 L41.7377082,17.2130115 L43.04222,17.7859092 L44.3208715,18.4272127 L45.5750993,19.1354967 L46.7876632,19.9022106 L47.9643099,20.7316297 L49.1050394,21.6237541 L50.2098518,22.5814339 L51.283057,23.6046692 L52.7039405,25.0198121 L51.2528866,26.4064527 L46.5520465,30.9027024 L45.2446613,32.1511065 L43.9545163,30.8998522 L43.0781372,30.0960852 L42.170151,29.3564485 L41.2305577,28.6809422 L40.2564838,28.0667161 L39.2436195,27.5094946 L38.2106415,27.0206789 L37.1532398,26.5988437 L36.0714144,26.242564 L34.9680388,25.9532649 L33.8531696,25.7337966 L32.7224969,25.5870094 L31.574584,25.510053 L30.4324178,25.5072027 L29.3003084,25.5770336 L28.1753824,25.7166952 L27.0590765,25.9290379 L25.9571376,26.2112114 L24.8753122,26.5589404 L23.8107271,26.9750751 L22.7619456,27.4596155 L21.7476445,28.0054359 L20.7620772,28.6139617 L19.8038069,29.289468 L18.8728337,30.0305297 L17.4979242,31.1905764 L16.2824869,29.853815 L11.9092116,25.042614 L10.5587257,23.5590654 L12.0643738,22.246531 L13.1390157,21.3515564 L14.2409546,20.519287 L15.3701907,19.7454475 L16.5281604,19.0286128 L17.7163006,18.3687828 L18.9374846,17.7645324 L20.1773456,17.2215622 L21.4373201,16.739872 L22.7174083,16.3180369 L24.0204834,15.9560567 L25.3393621,15.6567818 L26.6682977,15.4216372 L28.0087267,15.2491978 L29.3635226,15.1423139 L30.734122,15.0981352 L30.7484889,15.0710579 Z M30.8073931,0.272624592 L32.5041205,0.29827673 L34.1922278,0.39090945 L35.8616581,0.544822278 L37.5152849,0.76286545 L39.1531082,1.04218873 L40.7751279,1.38421724 L42.3856541,1.78895097 L43.9746299,2.25353969 L45.5391821,2.77655828 L47.0836207,3.35943186 L48.6079457,4.00358554 L50.1064103,4.70331886 L51.5747045,5.46005693 L53.0157016,6.27237463 L54.4294016,7.1431222 L55.8172413,8.07087453 L57.1648538,9.04850601 L58.4779858,10.080292 L59.7580739,11.1662325 L61.0036816,12.3077526 L62.2176822,13.5062775 L63.6098319,14.9313963 L62.1630881,16.2995103 L57.439261,20.7701079 L56.0801551,22.0555651 L54.7684598,20.7359051 L53.6033066,19.6114864 L52.3993628,18.5540482 L51.1566285,17.5607404 L49.8722303,16.631563 L48.5447315,15.7608154 L47.1856255,14.9598987 L45.7934757,14.2245374 L44.3697189,13.5575818 L42.9143549,12.9561817 L41.4345672,12.4260375 L39.9303559,11.9671493 L38.4002842,11.5766667 L36.8544089,11.2602903 L35.2912934,11.0180202 L33.7095009,10.8498561 L32.1090315,10.7557983 L30.5042521,10.7386969 L28.9152762,10.7971267 L27.3392305,10.9310879 L25.776115,11.1405804 L24.2230563,11.4227539 L22.6915479,11.7776085 L21.1787164,12.203719 L19.6859986,12.7025105 L18.2191411,13.2697078 L16.7795807,13.9053108 L15.3673173,14.6121697 L13.9794776,15.3874343 L12.6333018,16.2254042 L11.3230432,17.1303546 L10.0458284,18.1022856 L8.80165745,19.1440474 L7.40088757,20.3696496 L6.13516628,18.9929848 L1.7374672,14.2060109 L0.389854745,12.7409888 L1.87826253,11.4170534 L3.17702763,10.3054608 L4.50452647,9.25229799 L5.85932236,8.25756509 L7.24428869,7.31983693 L8.65942543,6.43768841 L10.111916,5.60684417 L11.5845203,4.83728003 L13.0815482,4.12614576 L14.6015631,3.47344136 L16.1460017,2.87774171 L17.7134273,2.34189705 L19.2966564,1.8673325 L20.8971258,1.45404806 L22.5162721,1.1006186 L24.1540953,0.808469251 L25.799102,0.579025128 L27.4556022,0.41371135 L29.1250325,0.311102799 L30.8073931,0.272624592 Z" fill="#FFD147" transform="translate(74 54)"/>
      <path d="M30.3534766,30.5203162 L31.4119668,30.526533 L32.4710791,30.5919531 L33.4295387,30.7025749 L34.2949459,30.8541465 L35.1510826,31.0578738 L35.9373012,31.2946781 L36.6552795,31.5646575 L37.352826,31.8761923 L38.0111418,32.214935 L38.6249607,32.5796177 L39.5060393,33.1734746 L40.3462791,33.8162133 L41.9711722,35.2584335 L42.1945429,35.4566926 L41.9761566,35.6603464 L40.3927468,37.1369378 L32.5083645,44.4761539 L31.0745509,45.8129153 L30.8738833,46 L30.6857694,45.800484 L29.3358209,44.3687062 L21.9869685,36.4989879 L20.5129276,34.9171061 L20.3104749,34.699842 L20.5452228,34.5173584 L22.2818701,33.1703562 L23.2073598,32.6288822 L24.1496122,32.1164656 L25.1264564,31.6495072 L26.1746926,31.2398181 L26.901918,31.0126425 L27.6878953,30.8225862 L28.5403013,30.6689092 L29.4005203,30.5705829 L30.3372403,30.5207037 L30.3534766,30.5203162 Z M30.3666863,31.0652328 L29.44685,31.1136937 L28.6212056,31.2079874 L27.8024034,31.3556842 L27.0498411,31.5375178 L26.3582493,31.7534558 L25.3467186,32.1486942 L24.4011642,32.601083 L23.4790744,33.102796 L22.5908945,33.6198492 L21.1182319,34.7636378 L22.3902482,36.1285564 L29.7380032,43.9971038 L30.8977176,45.228184 L32.1322409,44.0785847 L40.0165988,36.7393914 L41.3806053,35.4660003 L39.9955007,34.2354972 L39.1841619,33.615153 L38.3296866,33.0392572 L37.7438315,32.6910927 L37.1138791,32.3670246 L36.4454545,32.0683816 L35.7605055,31.8106696 L35.0075527,31.584011 L34.1834159,31.3878537 L33.3503268,31.2419541 L32.4225009,31.1349349 L31.3934848,31.0713208 L30.35045,31.0656204 L30.3666863,31.0652328 Z M30.5857127,14.7925965 L30.7580755,14.7985677 L31.999432,14.8416672 L33.46438,14.9312225 L34.9075551,15.0927084 L36.3338061,15.324796 L37.7413277,15.6288833 L39.1335145,16.0061179 L40.505902,16.4511602 L41.848907,16.9636815 L43.1661631,17.5425687 L44.4567722,18.1902422 L45.7227529,18.9055545 L46.9467845,19.6799287 L48.1343869,20.5174854 L49.2858025,21.4184103 L50.4002205,22.3848235 L51.4777015,23.4122254 L52.898585,24.8273683 L53.095846,25.0238324 L52.8945342,25.2162078 L51.4435701,26.6027625 L46.7425654,31.0991696 L45.4351802,32.3475736 L45.2431736,32.5309181 L45.0526091,32.346098 L43.7680207,31.1000845 L42.9037999,30.306829 L42.0089451,29.5772465 L41.0831924,28.9110665 L40.1232574,28.3051772 L39.1253503,27.7556 L38.1081513,27.273657 L37.066692,26.8576207 L36.0012235,26.5061736 L34.9145728,26.2207094 L33.8175263,26.004149 L32.7039762,25.8590455 L31.573893,25.7827083 L30.4494642,25.7793337 L29.3344192,25.8475805 L28.2271109,25.9844759 L27.1277315,26.1930455 L26.0418076,26.4705993 L24.9760153,26.8126242 L23.9266993,27.2222545 L22.8929285,27.6992973 L21.892803,28.2369372 L20.9212018,28.8362412 L19.9757353,29.5021516 L19.0508168,30.238251 L17.6759073,31.3982977 L17.4726477,31.5697931 L17.2939211,31.3732261 L16.0784574,30.0364357 L11.7053159,25.2253819 L10.3548301,23.7418332 L10.1680803,23.5366831 L10.3773834,23.354225 L11.8877378,22.0376804 L12.9726036,21.1345952 L14.0848189,20.29493 L15.2247601,19.5141145 L16.3939735,18.7906826 L17.5936897,18.1247787 L18.8265482,17.5150874 L20.0785662,16.9671347 L21.350724,16.481111 L22.643338,16.0554746 L23.959233,15.6902613 L25.2911289,15.3883594 L26.6329724,15.1512437 L27.9869505,14.9773992 L29.3546022,14.8698014 L30.5657998,14.8302861 L30.5857127,14.7925965 Z M30.9109064,15.3483329 L30.9027866,15.3654987 L30.7430424,15.3706477 L29.3852988,15.4141125 L28.0440519,15.5195913 L26.7165309,15.6900595 L25.4006126,15.9225772 L24.0945537,16.218619 L22.8040043,16.5767979 L21.5360995,16.9942995 L20.288282,17.4710072 L19.0600956,18.0085365 L17.8504876,18.606713 L16.6735911,19.2599458 L15.5263264,19.9698045 L14.4073667,20.7362482 L13.3156516,21.560407 L12.245716,22.4513713 L10.9485779,23.5814605 L12.1132411,24.8599933 L16.4864901,29.6711653 L17.5231883,30.8112131 L18.7009053,29.8178461 L19.6446823,29.0671884 L20.6169187,28.3824604 L21.6166616,27.7657541 L22.6459734,27.212436 L23.7100241,26.7213913 L24.7906422,26.2995525 L25.8884827,25.9472038 L27.0073481,25.6612572 L28.1412716,25.4461482 L29.2832619,25.3049025 L30.4331087,25.2345474 L31.5931047,25.2380169 L32.7581402,25.316657 L33.9066357,25.4663522 L35.0382298,25.6896553 L36.1579622,25.9837871 L37.2557299,26.3458656 L38.3289106,26.7745735 L39.3768459,27.2710335 L40.4038491,27.8365918 L41.3917635,28.4601443 L42.3444883,29.1457047 L43.2646328,29.8958529 L44.1465685,30.7048606 L45.246019,31.770963 L46.3613629,30.7063926 L51.0622928,26.210057 L52.3119117,25.0156323 L51.0926882,23.8012796 L50.0290886,22.7867777 L48.9349623,21.8378984 L47.8051886,20.9539116 L46.6400097,20.1321528 L45.4391986,19.3724672 L44.1969285,18.6705531 L42.9310213,18.0352392 L41.6391421,17.4675204 L40.3220515,16.9648588 L38.9759127,16.5283505 L37.6106284,16.1583567 L36.2310295,15.8603001 L34.8324376,15.6327286 L33.4168281,15.4743132 L31.9730165,15.3863017 L30.9109064,15.3483329 Z M30.8115788,0 L32.5192915,0.0260364243 L34.2176464,0.119422434 L35.8978504,0.27454172 L37.5618254,0.494148971 L39.2102202,0.775487503 L40.842583,1.11990521 L42.4633119,1.52741138 L44.0623494,1.99515152 L45.6368564,2.521711 L47.1912757,3.10857503 L48.7249389,3.75688039 L50.2330545,4.46135176 L51.7104236,5.22298402 L53.1606053,6.04071624 L54.5829162,6.91699106 L55.9794014,7.85076574 L57.3354231,8.83474754 L58.6565309,9.87304626 L59.9444918,10.9659289 L61.1974728,12.1144626 L62.4149699,13.3165027 L63.8071197,14.7416214 L64,14.9390696 L63.7993873,15.128779 L62.3527214,16.4968193 L57.6288333,20.9674747 L56.2697273,22.2529319 L56.0742075,22.4378566 L55.8845335,22.2470309 L54.5768971,20.9313703 L53.4211965,19.8156549 L52.2270038,18.7663884 L50.9947632,17.7810628 L49.7207166,16.8590191 L48.4044338,15.9952491 L47.0565173,15.2005801 L45.6761791,14.4711006 L44.264091,13.8092858 L42.8210506,13.2126362 L41.3538252,12.6866558 L39.8619184,12.2312125 L38.3447838,11.8437028 L36.8120068,11.5296804 L35.2620237,11.289125 L33.6932567,11.1220355 L32.106081,11.0284388 L30.514427,11.0111661 L28.9387258,11.0687882 L27.3760065,11.2012909 L25.8256007,11.4087782 L24.2855326,11.6882682 L22.7665749,12.0399031 L21.2664022,12.4621184 L19.7857598,12.9565605 L18.3308388,13.5188181 L16.9033205,14.1487531 L15.5021039,14.8497659 L14.1254882,15.6184073 L12.7902657,16.4491914 L11.4902472,17.3467154 L10.2230227,18.3106699 L8.98337554,19.3485595 L7.58260567,20.5741617 L7.3799795,20.7514492 L7.19790655,20.5534172 L5.93211192,19.1766726 L1.53453097,14.3898272 L0.18691851,12.9248051 L0,12.7216014 L0.206455078,12.5379601 L1.69880424,11.2105857 L3.00545001,10.0924984 L4.34109598,9.0331164 L5.70445912,8.03234131 L7.09812933,7.0889566 L8.5222047,6.20146819 L9.98388444,5.36559711 L11.4658808,4.59135024 L12.9724272,3.87591344 L14.502019,3.21930753 L16.0565044,2.61995455 L17.6339757,2.08088852 L19.2274597,1.60346416 L20.8380965,1.18775822 L22.46766,0.832263527 L24.1158505,0.538467153 L25.7716076,0.307737375 L27.438616,0.141576632 L29.1187012,0.0385189611 L30.8010618,0 L30.8115788,0 Z M30.8086933,0.544190198 L29.1420187,0.583237517 L27.4830966,0.684999104 L25.8373468,0.849027226 L24.2027074,1.07682432 L22.5753014,1.36690844 L20.9663225,1.71791639 L19.376108,2.12834103 L17.8029245,2.59968421 L16.2455458,3.13187555 L14.7106841,3.72367368 L13.2001877,4.37207554 L11.7125519,5.07852708 L10.2491368,5.84306439 L8.80558479,6.66856874 L7.39915193,7.5450607 L6.02275285,8.47674668 L4.67610409,9.46526038 L3.35648593,10.5119285 L2.0616622,11.6200821 L0.778923967,12.7591894 L1.94052156,14.022323 L6.33814731,18.8092172 L7.42057737,19.9867607 L8.62446316,18.9356631 L9.87862448,17.8859247 L11.1660794,16.9065673 L12.4872913,15.9944311 L13.844691,15.1498381 L15.2435775,14.3687274 L16.667883,13.6562005 L18.1193799,13.0156578 L19.5983128,12.4441111 L21.1036894,11.9414243 L22.6290716,11.5120941 L24.1735706,11.1545561 L25.7393391,10.8703774 L27.315781,10.6594264 L28.9051013,10.5246575 L30.5072027,10.4660564 L32.1252758,10.483619 L33.7387706,10.5787513 L35.3336954,10.7486301 L36.9099093,10.9932543 L38.4687217,11.3126035 L40.0110979,11.7065309 L41.5278715,12.1695829 L43.0199827,12.7044777 L44.4870156,13.3110186 L45.9225839,13.983856 L47.3259232,14.725465 L48.6962452,15.5333594 L50.0340956,16.4112407 L51.3289876,17.3484003 L52.5814729,18.3498797 L53.7948692,19.4160212 L54.9640813,20.5444393 L56.0850039,21.6728669 L57.2496276,20.572799 L61.9735326,16.1021276 L63.2190387,14.9229892 L62.023891,13.6995675 L60.8172638,12.5080563 L59.5795287,11.3734782 L58.3074164,10.2940505 L57.0026937,9.26861479 L55.6637268,8.29700567 L54.2844979,7.3747806 L52.8799824,6.50944755 L51.4480603,5.70202403 L49.9894171,4.95002402 L48.5002907,4.25444237 L46.9859465,3.61427913 L45.4514627,3.03494645 L43.8969721,2.51507928 L42.3181989,2.053263 L40.7180158,1.65091846 L39.1065677,1.31090521 L37.4790926,1.03314601 L35.8362395,0.816309294 L34.1770568,0.663149755 L32.4999347,0.570901321 L30.8086933,0.544190198 Z" fill="#052461" transform="translate(74 54)"/>
      <path fill="#FFF" d="M31.2868367 25.4184156L28.0446439 27.0889772 28.4677407 3.54449937 38.4252401 8.74657911 36.2570624 16.2779254 40.997917 15.8311116 29.405373 36.2632471z" transform="translate(74 54)"/>
      <path d="M28.2009723,3.09699759 L28.5957419,3.30323639 L38.5532412,8.50531614 L38.7507497,8.60850018 L38.6894372,8.82147431 L36.6316434,15.9678079 L40.9719374,15.5596768 L41.4952235,15.5103584 L41.2373444,15.9648765 L29.6448004,36.3970121 L28.8648717,37.7716549 L29.13459,36.2169879 L30.9208985,25.9132166 L28.171263,27.3309572 L27.7616931,27.5419908 L27.7699211,27.0841159 L28.193018,3.5396381 L28.2009723,3.09699759 Z M28.733758,3.99165558 L28.3260047,26.6363009 L31.1602175,25.1764356 L31.6515468,24.9232749 L31.5576196,25.4646747 L29.9449283,34.7549128 L40.5003543,16.1510329 L36.283042,16.5493601 L35.8822878,16.5871302 L35.9928653,16.2030302 L38.098896,8.884199 L28.733758,3.99165558 Z" fill="#052461" transform="translate(74 54)"/>
    </g>
  </g>
</svg>
