<svg xmlns="http://www.w3.org/2000/svg" xmlns:xlink="http://www.w3.org/1999/xlink" viewBox="0 0 200 200" class="design-iconfont">
  <defs>
    <linearGradient x1="50%" y1=".75939685%" x2="50%" y2="89.9456991%" id="615ixlm91__2esd1084pa">
      <stop stop-color="#1C2A2D" offset="0%"/>
      <stop stop-color="#1D2123" offset="100%"/>
    </linearGradient>
    <linearGradient x1="50%" y1=".75939685%" x2="50%" y2="89.9456991%" id="615ixlm91__gpst9qfn4c">
      <stop stop-color="#1C2A2D" offset="0%"/>
      <stop stop-color="#1D2123" offset="100%"/>
    </linearGradient>
    <linearGradient x1="50%" y1="0%" x2="50%" y2="100%" id="615ixlm91__vhws2bkigf">
      <stop stop-color="#5EAFFF" offset="0%"/>
      <stop stop-color="#12D1EE" offset="100%"/>
    </linearGradient>
    <linearGradient x1="50%" y1="0%" x2="50%" y2="100%" id="615ixlm91__aqcib3e7xj">
      <stop stop-color="#48C2F7" offset="0%"/>
      <stop stop-color="#0268CB" offset="100%"/>
    </linearGradient>
    <linearGradient x1="50%" y1="0%" x2="50%" y2="100%" id="615ixlm91__97vezorngk">
      <stop stop-color="#48C2F7" offset="0%"/>
      <stop stop-color="#0268CB" offset="100%"/>
    </linearGradient>
    <linearGradient x1="50%" y1="0%" x2="50%" y2="100%" id="615ixlm91__ijhym2kesl">
      <stop stop-color="#48C2F7" offset="0%"/>
      <stop stop-color="#0268CB" offset="100%"/>
    </linearGradient>
    <linearGradient x1="50%" y1="0%" x2="50%" y2="100%" id="615ixlm91__3sq382ji6m">
      <stop stop-color="#48C2F7" offset="0%"/>
      <stop stop-color="#0268CB" offset="100%"/>
    </linearGradient>
    <linearGradient x1="50%" y1="0%" x2="50%" y2="100%" id="615ixlm91__nvty2ubien">
      <stop stop-color="#48C2F7" offset="0%"/>
      <stop stop-color="#0268CB" offset="100%"/>
    </linearGradient>
    <linearGradient x1="50%" y1=".75939685%" x2="50%" y2="89.9456991%" id="615ixlm91__f67hksd1no">
      <stop stop-color="#1C2A2D" offset="0%"/>
      <stop stop-color="#1D2123" offset="100%"/>
    </linearGradient>
    <linearGradient x1="50%" y1=".75939685%" x2="50%" y2="89.9456991%" id="615ixlm91__g70yyr80up">
      <stop stop-color="#1C2A2D" offset="0%"/>
      <stop stop-color="#1D2123" offset="100%"/>
    </linearGradient>
    <linearGradient x1="50%" y1=".75939685%" x2="50%" y2="89.9456991%" id="615ixlm91__b6830f0kvq">
      <stop stop-color="#1C2A2D" offset="0%"/>
      <stop stop-color="#1D2123" offset="100%"/>
    </linearGradient>
    <linearGradient x1="50%" y1=".75939685%" x2="50%" y2="89.9456991%" id="615ixlm91__8crsupgdvr">
      <stop stop-color="#1C2A2D" offset="0%"/>
      <stop stop-color="#1D2123" offset="100%"/>
    </linearGradient>
    <filter x="-77.1%" y="-77.1%" width="254.3%" height="254.3%" filterUnits="objectBoundingBox" id="615ixlm91__89efdqvupg">
      <feGaussianBlur stdDeviation="27" in="SourceGraphic"/>
    </filter>
    <filter x="-77.1%" y="-77.1%" width="254.3%" height="254.3%" filterUnits="objectBoundingBox" id="615ixlm91__egoofngh7i">
      <feGaussianBlur stdDeviation="27" in="SourceGraphic"/>
    </filter>
    <path d="M149.936748,0.5 L6.56325209,0.5 C3.22002317,0.5 0.5,3.48300885 0.5,7.17364942 L0.5,93.3263506 C0.5,97.0167408 3.22025143,100 6.56325209,100 L149.936748,100 C153.279977,100 156,97.0169911 156,93.3263506 L156,7.17364942 C156,3.48300885 153.279977,0.5 149.936748,0.5 Z" id="615ixlm91__eb9v2b0ijb"/>
    <path d="M149.436748,0 L6.06325209,0 C2.72002317,0 0,2.98300885 0,6.67364942 L0,92.8263506 C0,96.5167408 2.72025143,99.5 6.06325209,99.5 L149.436748,99.5 C152.779977,99.5 155.5,96.5169911 155.5,92.8263506 L155.5,6.67364942 C155.5,2.98300885 152.779977,0 149.436748,0 Z" id="615ixlm91__pgk80zl98e"/>
  </defs>
  <g fill="none" fill-rule="evenodd">
    <path d="M7.90986768,0 C3.66728931,0 0.228,3.2300548 0.228,7.21452931 L0.228,115.285471 C0.228,119.269945 3.66728931,122.5 7.90986768,122.5 L138.546132,122.5 C142.788711,122.5 146.228,119.269945 146.228,115.285471 L146.228,7.21452931 C146.228,3.2300548 142.788711,0 138.546132,0 L7.90986768,0 Z" fill="url(#615ixlm91__2esd1084pa)" transform="translate(14.772 47)"/>
    <path d="M138.546132,0 C142.911544,0 146.456,3.31642789 146.456,7.41481492 L146.456,115.039487 C146.456,119.137874 142.911544,122.454302 138.546132,122.454302 L7.90986768,122.454302 C3.54445622,122.454302 0,119.137874 0,115.039487 L0,7.41481492 C0,3.31642789 3.54445622,0 7.90986768,0 L138.546132,0 Z M7.90986768,0.454301953 C3.7901224,0.454301953 0.456,3.57392759 0.456,7.41481492 L0.456,115.039487 C0.456,118.880374 3.7901224,122 7.90986768,122 L138.546132,122 C142.665878,122 146,118.880374 146,115.039487 L146,7.41481492 C146,3.57392759 142.665878,0.454301953 138.546132,0.454301953 L7.90986768,0.454301953 Z" fill="#226FD4" fill-rule="nonzero" transform="translate(14.772 47)"/>
    <g transform="translate(25 58)">
      <path d="M6.56325209,0.25 C3.07653924,0.25 0.25,3.34982343 0.25,7.17364942 L0.25,93.3263506 C0.25,97.1499262 3.0767675,100.25 6.56325209,100.25 L149.936748,100.25 C153.423461,100.25 156.25,97.1501766 156.25,93.3263506 L156.25,7.17364942 C156.25,3.34982343 153.423461,0.25 149.936748,0.25 L6.56325209,0.25 Z" fill="#FFF" fill-rule="nonzero"/>
      <path d="M149.936748,0 C153.566945,0 156.5,3.21663801 156.5,7.17364942 L156.5,93.3263506 C156.5,97.283362 153.566945,100.5 149.936748,100.5 L6.56325209,100.5 C2.93328356,100.5 0,97.2831117 0,93.3263506 L0,7.17364942 C0,3.21663801 2.9330553,0 6.56325209,0 L149.936748,0 Z" fill="#226FD4" fill-rule="nonzero"/>
      <mask id="615ixlm91__kosf6h90ed" fill="#fff">
        <use xlink:href="#615ixlm91__eb9v2b0ijb"/>
      </mask>
      <use fill="url(#615ixlm91__gpst9qfn4c)" xlink:href="#615ixlm91__eb9v2b0ijb"/>
      <g mask="url(#615ixlm91__kosf6h90ed)">
        <g transform="translate(.5 .5)">
          <mask id="615ixlm91__yqsdq6g2eh" fill="#fff">
            <use xlink:href="#615ixlm91__pgk80zl98e"/>
          </mask>
          <use fill="url(#615ixlm91__gpst9qfn4c)" xlink:href="#615ixlm91__pgk80zl98e"/>
          <path fill="url(#615ixlm91__vhws2bkigf)" opacity=".24562872" filter="url(#615ixlm91__89efdqvupg)" mask="url(#615ixlm91__yqsdq6g2eh)" d="M110 -34.5A52.5 52.5 0 1 0 110 70.5A52.5 52.5 0 1 0 110 -34.5Z"/>
          <path fill="url(#615ixlm91__vhws2bkigf)" opacity=".31717355" filter="url(#615ixlm91__egoofngh7i)" mask="url(#615ixlm91__yqsdq6g2eh)" d="M-20 25.5A52.5 52.5 0 1 0 -20 130.5A52.5 52.5 0 1 0 -20 25.5Z"/>
        </g>
      </g>
      <path d="M43.1780924,39.1390441 L56.9559891,39.1390441 C57.5826255,39.1357987 58.0882562,38.6246384 58.0850305,37.9971823 C58.0823139,37.3735127 57.578844,36.871007 56.9559891,36.8666797 L43.1780924,36.8666797 C42.551456,36.871007 42.0463655,37.3810854 42.0490557,38.0085415 C42.0517675,38.6300475 42.5557776,39.1357987 43.1780924,39.1390441 Z M38.982978,36.8666797 C39.605833,36.871007 40.1093029,37.3735127 40.1125549,37.9971823 C40.1152451,38.6246384 39.6096144,39.1357987 38.982978,39.1390441 L21.7315711,39.1390441 C21.1092564,39.1357987 20.6052463,38.6300475 20.6025345,38.0085415 C20.5998443,37.3810854 21.1049348,36.871007 21.7315711,36.8666797 Z M21.7315711,56.1745291 L38.982978,56.1745291 C39.6096144,56.1702018 40.1152451,55.6612052 40.1125549,55.0337491 C40.1093029,54.4100795 39.605833,53.9054101 38.982978,53.9032465 L21.7315711,53.9032465 C21.1049348,53.9054101 20.5998443,54.4165704 20.6025345,55.0429446 C20.6052463,55.6676961 21.1092564,56.1702018 21.7315711,56.1745291 Z M89.3642169,45.3838001 L73.1780918,45.3838001 C72.5519956,45.3881274 72.0463649,45.8982059 72.0495906,46.5256619 C72.0528474,47.1493316 72.5563173,47.6529191 73.1780918,47.6561646 L89.3642169,47.6561646 C89.9908532,47.6529191 90.4959437,47.1417588 90.492718,46.5143028 C90.4894613,45.8906331 89.9859914,45.3881274 89.3642169,45.3838001 Z M66.9282044,45.3838001 L21.7315171,45.3838001 C21.105421,45.3881274 20.5997903,45.8982059 20.603016,46.5256619 C20.6062727,47.1493316 21.1097426,47.6529191 21.7315171,47.6561646 L66.9282044,47.6561646 C67.5548408,47.6529191 68.0599313,47.1417588 68.0567056,46.5143028 C68.0534489,45.8906331 67.549979,45.3881274 66.9282044,45.3838001 Z M56.9563132,61.851762 C57.581329,61.8539256 58.0864195,62.3623813 58.0848028,62.9876737 C58.0864195,63.6129661 57.581329,64.1225037 56.9563132,64.1246673 L52.2759879,64.1246673 C51.6536732,64.12034 51.1507435,63.6172934 51.1474867,62.9941646 C51.144261,62.3667086 51.6493515,61.8550074 52.2759879,61.851762 Z M21.7315711,64.1244509 L45.9996846,64.1244509 C46.626321,64.1201237 47.1314115,63.6100452 47.1281858,62.9825892 C47.124929,62.3589195 46.6214591,61.855332 45.9996846,61.8520865 L21.7315711,61.8520865 C21.1049348,61.855332 20.5998443,62.3664923 20.60307,62.9939483 C20.6063267,63.6176179 21.1097966,64.1201237 21.7315711,64.1244509 Z M38.9831941,78.8885451 L21.7317872,78.8885451 C21.1051509,78.8907088 20.5995202,79.4007872 20.6022104,80.0282433 C20.6054624,80.6519129 21.1089323,81.1576641 21.7317872,81.1587459 L38.9831941,81.1587459 C39.6098305,81.1576641 40.114921,80.6465038 40.1122307,80.0190478 C40.1095189,79.3953781 39.6055088,78.8907088 38.9831941,78.8885451 M63.0410603,70.3713165 L53.8975715,70.3713165 C53.2714754,70.3734801 52.7658447,70.8835586 52.7685349,71.5110146 C52.7712467,72.1346843 53.2752568,72.6382718 53.8975715,72.6415173 L63.0410603,72.6415173 C63.6676966,72.6382718 64.1727871,72.1292752 64.1700969,71.5018192 C64.1673851,70.8781495 63.663375,70.3734801 63.0410603,70.3713165 Z M47.6637282,70.3713165 L22.1326184,70.3713165 C21.5065223,70.3734801 21.0008915,70.8835586 21.0035818,71.5110146 C21.0062936,72.1346843 21.5103037,72.6382718 22.1326184,72.6415173 L47.6637282,72.6415173 C48.2903646,72.6382718 48.7954551,72.1292752 48.7927649,71.5018192 C48.7900531,70.8781495 48.286043,70.3734801 47.6637282,70.3713165 Z" fill="url(#615ixlm91__aqcib3e7xj)" opacity=".10279483" mask="url(#615ixlm91__kosf6h90ed)"/>
      <path d="M-0.708295749,-78.75 C-4.59732162,-78.75 -7.75,-75.6501766 -7.75,-71.8263506 L-7.75,14.3263506 C-7.75,18.1499262 -4.59706702,21.25 -0.708295749,21.25 L159.208296,21.25 C163.097322,21.25 166.25,18.1501766 166.25,14.3263506 L166.25,-71.8263506 C166.25,-75.6501766 163.097322,-78.75 159.208296,-78.75 L-0.708295749,-78.75 Z" fill="#F2F3F5" fill-rule="nonzero" opacity=".03164528" mask="url(#615ixlm91__kosf6h90ed)"/>
    </g>
    <path d="M22.9282371,25.0209902 C24.7824551,25.0209902 26.2855958,23.5245051 26.2855958,21.6784971 C26.2855958,19.8324892 24.7824551,18.3360041 22.9282371,18.3360041 C21.0740191,18.3360041 19.5708784,19.8324892 19.5708784,21.6784971 C19.5708784,23.5245051 21.0740191,25.0209902 22.9282371,25.0209902 Z" fill="url(#615ixlm91__97vezorngk)" opacity=".27071708" transform="translate(14.772 47)"/>
    <path d="M35.5843589,25.0209902 C36.7836491,25.021168 37.8919342,24.3843517 38.491734,23.3504236 C39.0915338,22.3164955 39.0917244,21.042534 38.4922339,20.0084281 C37.8927435,18.9743222 36.7846489,18.3371772 35.5853587,18.3369995 C33.7314168,18.3367246 32.2282761,19.8327641 32.228,21.6784971 C32.2277239,23.5242302 33.730417,25.0207153 35.5843589,25.0209902 L35.5843589,25.0209902 Z" fill="url(#615ixlm91__ijhym2kesl)" opacity=".27071708" transform="translate(14.772 47)"/>
    <path d="M47.5853587,25.0209902 C48.785006,25.021168 49.8936212,24.3841619 50.4935995,23.3499258 C51.0935779,22.3156898 51.0937684,21.0413489 50.4940994,20.0069351 C49.8944304,18.9725212 48.7860058,18.3351865 47.5863585,18.3350087 C45.7318644,18.3347339 44.2282761,19.831219 44.228,21.6775018 C44.2277239,23.5237845 45.7308646,25.0207153 47.5853587,25.0209902 Z" fill="url(#615ixlm91__3sq382ji6m)" opacity=".27071708" transform="translate(14.772 47)"/>
    <g transform="rotate(-52 112.98610246 -134.5623735)" fill="url(#615ixlm91__nvty2ubien)" opacity=".40680804">
      <path d="M24.9943452,10.6417127 L25.7271777,22.9011647 L1.4937009,14.9432933 L24.9943452,10.6417127 Z M9.51469001,-4.95421144e-13 L14.581798,5.54512894 L-8.85182667e-13,11.0902602 L9.51469001,-4.95421144e-13 Z"/>
    </g>
    <path fill="#052461" d="M0 151.956533H200V152.956533H0z" transform="translate(0 17.043467)"/>
    <g>
      <path d="M65.7957587,54.984886 L21.2081569,55 C18.9681092,55.0008392 16.9615455,53.8424167 15.8408226,51.9011703 C15.2804612,50.9302673 15,49.8656045 15,48.800382 C15,47.7351594 15.2793427,46.6702168 15.8388653,45.6990339 L38.1182657,5.10274798 C39.2378701,3.16066201 41.2435949,2.0008401 43.4833629,2 C45.7234106,1.99916082 47.7299743,3.15758333 48.8506972,5.09910954 L71.1614152,45.6850399 C71.7200989,46.6531441 72,47.7169673 72,48.7813502 C72,49.845733 71.7203785,50.9106757 71.1605763,51.8821385 C70.0412516,53.8239446 68.0358063,54.9840464 65.7957587,54.984886" stroke="#226FD4" stroke-width=".5" fill="url(#615ixlm91__f67hksd1no)" transform="translate(120 114)"/>
      <path d="M24,0 C37.2549041,0 48,10.7450959 48,24 C48,37.2549041 37.2549041,48 24,48 C10.7450959,48 0,37.2549041 0,24 C0,10.7450959 10.7450959,0 24,0" stroke="#226FD4" stroke-width=".5" fill="#FFD147" transform="translate(120 114)"/>
      <path d="M24.5003827,35 C23.6071276,34.9998633 22.7816673,35.4763307 22.3350003,36.2498895 C21.8883332,37.0234484 21.8883332,37.9765516 22.3350003,38.7501105 C22.7816673,39.5236693 23.6071276,40.0001367 24.5003827,40 C25.8809451,39.9997886 27,38.8805624 27,37.5 C27,36.1194376 25.8809451,35.0002114 24.5003827,35 L24.5003827,35 Z M24.500603,7 C23.1636063,7 21.895807,7.6190851 21.0407382,8.68963537 C20.1856693,9.76018564 19.831867,11.1713049 20.0752005,12.540625 L21.5003301,28.875 C21.5003301,30.4374999 22.8444524,32 24.500603,32 C26.1567537,32 27.500876,30.4375 27.500876,28.875 L28.9260056,12.540625 C29.1671031,11.1716579 28.8124712,9.7618414 27.9578746,8.69188247 C27.1032781,7.62192354 25.8368596,7.00217728 24.500603,7 L24.500603,7 Z" fill="url(#615ixlm91__g70yyr80up)" transform="translate(120 114)"/>
    </g>
    <g>
      <path fill="url(#615ixlm91__b6830f0kvq)" d="M52.5 0.5L0.5 0.5 0.5 14.5 52.5 14.5z" transform="translate(47.5 154.5)"/>
      <path fill="#3491FA" fill-rule="nonzero" d="M35.5 0.5L0.5 0.5 0.5 14.5 35.5 14.5z" transform="translate(47.5 154.5)"/>
      <path d="M53,0 L53,15 L0,15 L0,0 L53,0 Z M52.5,0.5 L0.5,0.5 L0.5,14.5 L52.5,14.5 L52.5,0.5 Z" fill="#226FD4" fill-rule="nonzero" transform="translate(47.5 154.5)"/>
      <g>
        <path fill="url(#615ixlm91__8crsupgdvr)" d="M37.5 0.5L0.5 0.5 0.5 14.5 37.5 14.5z" transform="matrix(-1 0 0 1 105 140)"/>
        <path fill="#B0DDFF" fill-rule="nonzero" d="M20.5 0.5L0.5 0.5 0.5 14.5 20.5 14.5z" transform="matrix(-1 0 0 1 105 140)"/>
        <path d="M38,0 L38,15 L0,15 L0,0 L38,0 Z M37.5,0.5 L0.5,0.5 L0.5,14.5 L37.5,14.5 L37.5,0.5 Z" fill="#226FD4" fill-rule="nonzero" transform="matrix(-1 0 0 1 105 140)"/>
      </g>
      <g fill-rule="nonzero">
        <path fill="#5EAFFF" d="M0.349866014 30.4349986L6.54986601 38.8609986 47.637866 8.89599861 41.431866 0.349998606z" transform="translate(21.687134 129.778102)"/>
        <path d="M41.4866662,0 L41.6341544,0.203099277 L47.8401544,8.74909928 L47.9867562,8.95097801 L47.7851751,9.09798879 L6.6971751,39.0629888 L6.49604138,39.2096733 L6.34850359,39.0091646 L0.148503591,30.5831646 L0,30.3813435 L0.202158586,30.2332995 L41.2841586,0.148299534 L41.4866662,0 Z M41.376866,0.698998606 L0.698866014,30.4879986 L6.60386601,38.5119986 L47.288866,8.84099861 L41.376866,0.698998606 Z" fill="#052461" transform="translate(21.687134 129.778102)"/>
      </g>
    </g>
  </g>
</svg>
