<svg id="图层_1" data-name="图层 1" xmlns="http://www.w3.org/2000/svg" viewBox="0 0 32 32"><defs><style>.cls-1{fill:#0098f0;}.cls-2{fill:#77be00;}.cls-3{fill:#f5b40a;}</style></defs><path class="cls-1" d="M15.88,0c-1.68-.1-3.14,2.07-3.31,4.86s1,5.11,2.71,5.21h.11c1.63,0,3-2.13,3.2-4.85S17.54.11,15.88,0Z"/><path class="cls-2" d="M14.35,13c-.19-1.18-1.88-2-4.3-2a12.2,12.2,0,0,0-2,.17c-3.21.53-5.62,2.2-5.37,3.72.19,1.17,1.92,2,4.3,2a12.22,12.22,0,0,0,2-.17,10.15,10.15,0,0,0,3.94-1.45C14,14.52,14.48,13.72,14.35,13Z"/><path class="cls-3" d="M29.18,8.9c-.33-.78-1.32-1.22-2.71-1.22a10.21,10.21,0,0,0-3.92.9c-3,1.32-4.93,3.61-4.28,5.1.34.78,1.33,1.22,2.72,1.22h0a10.21,10.21,0,0,0,3.92-.9C27.91,12.68,29.83,10.39,29.18,8.9Z"/><path class="cls-1" d="M11.83,18.58a1,1,0,0,0-.5-.13C10,18.45,8.48,20.78,7.61,24c-1,3.72-.77,7.18.55,7.88a1,1,0,0,0,.5.13c1.29,0,2.85-2.33,3.72-5.54C13.39,22.74,13.15,19.28,11.83,18.58Z"/><path class="cls-1" d="M19.77,17.36c-1.77,0-3.21,1.94-3.21,4.32S18,26,19.77,26,23,24.07,23,21.68,21.54,17.36,19.77,17.36Z"/></svg>